<?xml version="1.0" encoding="UTF-8" standalone="no"?>
<!-- Created with Inkscape (http://www.inkscape.org/) -->

<svg
   width="100.0px"
   height="100.0px"
   viewBox="0 0 100.0 100.0"
   version="1.1"
   id="SVGRoot"
   sodipodi:docname="alex.svg"
   inkscape:version="1.2.1 (9c6d41e410, 2022-07-14)"
   xmlns:inkscape="http://www.inkscape.org/namespaces/inkscape"
   xmlns:sodipodi="http://sodipodi.sourceforge.net/DTD/sodipodi-0.dtd"
   xmlns="http://www.w3.org/2000/svg"
   xmlns:svg="http://www.w3.org/2000/svg">
  <sodipodi:namedview
     id="namedview2924"
     pagecolor="#ffffff"
     bordercolor="#000000"
     borderopacity="0.25"
     inkscape:showpageshadow="2"
     inkscape:pageopacity="0.0"
     inkscape:pagecheckerboard="0"
     inkscape:deskcolor="#d1d1d1"
     inkscape:document-units="px"
     showgrid="true"
     inkscape:zoom="5.6568543"
     inkscape:cx="27.577164"
     inkscape:cy="31.466251"
     inkscape:window-width="1920"
     inkscape:window-height="1017"
     inkscape:window-x="-8"
     inkscape:window-y="-8"
     inkscape:window-maximized="1"
     inkscape:current-layer="layer1">
    <inkscape:grid
       type="xygrid"
       id="grid3047" />
  </sodipodi:namedview>
  <defs
     id="defs2919" />
  <g
     inkscape:label="Calque 1"
     inkscape:groupmode="layer"
     id="layer1">
    <path
       fill="currentColor"
       d="M 33.905236,49.082547 C 34.218645,30.042007 59.669833,44.527113 59.559354,32.612499 59.739459,29.007917 58.241336,24.285518 52.237627,23.73915 42.361357,22.840326 38.345419,27.481944 38.02541,33.938137 h -2.087819 c 0.484636,-8.885018 6.669277,-13.368781 16.357114,-12.282153 3.435552,0.385451 9.112104,2.42246 9.364252,10.496548 v 21.96384 c -0.03142,2.355681 1.997237,2.219787 4.454421,1.921855 v 2.120226 C 59.332129,58.204413 59.597536,57.230798 59.5995,51.357582 53.347943,62.797122 33.168588,60.584704 33.905236,49.082547 Z M 59.530875,37.99923 c -5.139514,5.034317 -23.772389,-2.523844 -23.69359,11.083317 0,8.389342 9.744794,8.318145 13.909395,7.24709 5.197336,-1.336676 9.655921,-5.361197 9.779893,-12.674949 z"
       id="path7587"
       style="fill:#6f42c1;fill-opacity:1;stroke:#6f42c1;stroke-width:3;stroke-dasharray:none;stroke-opacity:1"
       sodipodi:nodetypes="ccccccccccccccccc" />
    <rect
       style="fill:none;stroke:#6f42c1;stroke-width:5;stroke-linecap:round;stroke-linejoin:round;stroke-dasharray:none;paint-order:fill markers stroke;stroke-opacity:1"
       id="rect1675"
       width="84.656715"
       height="85.010269"
       x="7.6716423"
       y="7.4948654"
       rx="14.570712"
       ry="14.48466" />
    <path
       style="fill:none;stroke:#6f42c1;stroke-width:5;stroke-linecap:round;stroke-linejoin:round;stroke-dasharray:none;stroke-opacity:1;paint-order:fill markers stroke"
       d="M 34.825009,67.35192 H 63.993163"
       id="path1731" />
    <path
       style="fill:none;stroke:#6f42c1;stroke-width:5;stroke-linecap:round;stroke-linejoin:round;stroke-dasharray:none;stroke-opacity:1;paint-order:fill markers stroke"
       d="M 35.090174,77.428192 H 64.258328"
       id="path1731-6" />
  </g>
</svg>
