<?xml version="1.0" encoding="UTF-8" standalone="no"?>
<!-- Created with Inkscape (http://www.inkscape.org/) -->

<svg
   width="100.0px"
   height="100.0px"
   viewBox="0 0 100.0 100.0"
   version="1.1"
   id="SVGRoot"
   sodipodi:docname="angular.svg"
   inkscape:version="1.2.1 (9c6d41e410, 2022-07-14)"
   xmlns:inkscape="http://www.inkscape.org/namespaces/inkscape"
   xmlns:sodipodi="http://sodipodi.sourceforge.net/DTD/sodipodi-0.dtd"
   xmlns="http://www.w3.org/2000/svg"
   xmlns:svg="http://www.w3.org/2000/svg">
  <sodipodi:namedview
     id="namedview7909"
     pagecolor="#ffffff"
     bordercolor="#000000"
     borderopacity="0.25"
     inkscape:showpageshadow="2"
     inkscape:pageopacity="0.0"
     inkscape:pagecheckerboard="0"
     inkscape:deskcolor="#d1d1d1"
     inkscape:document-units="px"
     showgrid="true"
     inkscape:zoom="5.9651515"
     inkscape:cx="60.18288"
     inkscape:cy="46.604013"
     inkscape:window-width="1920"
     inkscape:window-height="1017"
     inkscape:window-x="1912"
     inkscape:window-y="-8"
     inkscape:window-maximized="1"
     inkscape:current-layer="SVGRoot">
    <inkscape:grid
       type="xygrid"
       id="grid8032" />
  </sodipodi:namedview>
  <defs
     id="defs7904">
    <clipPath
       id="svgIDa">
      <path
         fill="#ffffff"
         d="M 0,0 H 24 V 24 H 0 Z"
         id="path3890" />
    </clipPath>
    <clipPath
       id="clipPath4034">
      <path
         fill="#ffffff"
         d="M 0,0 H 24 V 24 H 0 Z"
         id="path4032" />
    </clipPath>
    <linearGradient
       id="svgIDa-8"
       x1="22.069"
       x2="8.9370003"
       y1="27.785"
       y2="7.2579999"
       gradientTransform="matrix(3.0835605,0,0,-3.0835605,-2.4919157,105.79344)"
       gradientUnits="userSpaceOnUse">
      <stop
         offset="0"
         stop-color="#ffb45b"
         id="stop12232" />
      <stop
         offset="1"
         stop-color="#ff8a00"
         id="stop12234" />
    </linearGradient>
  </defs>
  <path
     fill="currentColor"
     d="m 34.575943,26.645402 v 3.378882 h 6.919024 v 23.764689 c 0,3.033871 0.701279,5.373963 2.111334,7.031528 1.421305,1.642565 3.423885,2.463847 6.000236,2.463847 h 5.467716 v -3.637643 h -5.040199 c -1.387554,0 -2.445095,-0.487518 -3.165124,-1.473808 -0.701277,-0.98629 -1.053793,-2.445096 -1.053793,-4.387673 V 26.649151 Z m -16.984419,9.735384 c -4.06516,0 -7.249036,1.218797 -9.5478783,3.660143 -2.2838403,2.437598 -3.4238844,5.812731 -3.4238844,10.132902 0,4.312669 1.1400441,7.691555 3.4238844,10.132901 2.2988423,2.437595 5.4827183,3.660144 9.5478783,3.660144 a 13.763044,13.763044 0 0 0 3.750147,-0.513771 c 1.237549,-0.330012 2.437597,-0.828781 3.592641,-1.500058 v -4.488928 c -1.016289,0.971288 -2.118833,1.687567 -3.307628,2.160086 a 11.250444,11.250444 0 0 1 -4.03516,0.675026 c -2.688857,0 -4.770189,-0.870033 -6.240248,-2.625103 -1.4513067,-1.76257 -2.1825858,-4.267667 -2.1825858,-7.504046 0,-3.255128 0.7312791,-5.756479 2.1825858,-7.507796 1.45506,-1.75132 3.536392,-2.625106 6.240248,-2.625106 1.455056,0 2.752609,0.225009 3.892654,0.678776 a 11.625459,11.625459 0 0 1 3.450134,2.20509 v -4.522681 a 15.95688,15.95688 0 0 0 -3.637643,-1.52256 14.025554,14.025554 0 0 0 -3.705145,-0.495019 z m 48.208153,22.962157 v 4.230168 h 28.823639 v -4.233917 z m 11.835467,8.456586 -8.63284,12.683 h 4.875192 l 6.352752,-8.265328 6.315249,8.265328 h 4.875194 l -8.629091,-12.683 z"
     id="path13906"
     style="display:none;stroke-width:3.75014" />
  <path
     fill="#ea2845"
     fill-rule="evenodd"
     d="m 57.516698,7.7065868 a 5.3803323,5.3803323 0 0 0 -1.703822,0.3020961 c 4.878853,3.2082611 -0.876079,7.8545001 1.812577,11.7817491 a 6.7518489,6.7518489 0 0 1 3.253575,-6.751848 c 0.860974,-0.715968 1.413811,-0.97275 1.229532,-2.156967 C 61.809485,8.9421601 59.223541,7.7065868 57.516698,7.7065868 Z m 6.948212,1.2506781 c -0.673675,3.3925391 -1.510481,3.5163991 -3.996733,5.7005541 a 5.5011709,5.5011709 0 0 0 -1.592046,6.618926 c -10.271269,-3.987668 -23.436619,-6.398396 -33.088591,0.50148 -3.471085,2.48021 -5.588779,6.041923 -9.86948,7.495006 -2.767201,0.948581 -5.486066,0.667632 -7.2200972,3.410665 a 4.2686185,4.2686185 0 0 0 0.1691738,5.534402 c 0.5165844,0.528668 1.5104804,0.867016 1.9213314,1.404747 0.238656,0.302096 0.232614,0.604192 0.459186,1.00598 a 7.8544998,7.8544998 0 0 0 1.703822,2.501356 c 0.444082,0.365536 1.969667,0.72201 2.22947,1.111714 0.326263,0.486374 -0.519606,2.416769 0.19032,2.718865 0.477312,0.22053 1.876018,-2.247596 2.01196,-2.465105 -0.277928,1.942479 -0.643464,5.389396 1.540689,2.519482 1.03619,-1.362453 1.099631,-1.812576 2.842725,-2.114672 a 24.771885,24.771885 0 0 1 3.374414,-0.350432 25.26128,25.26128 0 0 1 26.04673,23.025768 c -0.326263,-1.510481 -2.298952,-3.92725 -4.135696,-3.353267 -0.782429,0.241677 -1.072441,1.592046 -1.586005,2.374476 a 11.398087,11.398087 0 0 1 -2.371455,2.622194 14.159246,14.159246 0 0 0 -0.217509,-4.386436 c -0.549815,2.259679 -1.652466,6.008692 -4.42873,5.401479 a 4.9906283,4.9906283 0 0 1 -4.011836,-3.449938 c -0.359494,-2.295931 2.066338,-4.987607 -1.833724,-5.177928 -7.82429,-0.383662 -6.014734,11.12318 -1.395684,14.122995 a 9.8845864,9.8845864 0 0 0 -3.066276,0.854932 20.823487,20.823487 0 0 0 31.0434,-14.869172 21.321946,21.321946 0 0 1 -0.04532,9.319665 21.790195,21.790195 0 0 1 -1.673613,4.70968 20.485139,20.485139 0 0 1 -3.92725,5.46794 c -0.948581,0.939519 -2.688656,1.88508 -3.286806,2.842724 A 40.508072,40.508072 0 0 0 60.88507,81.131055 35.157949,35.157949 0 0 1 47.284702,92.293508 35.009922,35.009922 0 0 0 75.379644,74.442646 35.215348,35.215348 0 0 1 69.503873,88.544494 34.834706,34.834706 0 0 0 84.533157,65.032351 35.109614,35.109614 0 0 1 85.164538,75.605716 37.5143,37.5143 0 0 0 90.871134,43.686237 47.595248,47.595248 0 0 0 85.76873,31.717188 44.825026,44.825026 0 0 0 82.932047,27.505968 c -0.401788,-0.522627 -2.549691,-2.434895 -2.549691,-3.020961 q -0.02719,0.08761 -0.04532,0 c 0,9.812082 -10.573365,16.110787 -19.427803,13.48255 A 15.104808,15.104808 0 0 0 74.642529,25.379211 15.104808,15.104808 0 0 0 64.46491,8.9572649 Z"
     id="path16369"
     style="display:none;fill:none;stroke:#50b2dd;stroke-width:5;stroke-linecap:round;stroke-linejoin:round;stroke-dasharray:none;stroke-opacity:1" />
  <path
     fill="currentColor"
     d="m 49.99969,9.2842713 0.796826,-2.7917666 a 2.90809,2.90809 0 0 0 -1.593652,0 z M 9.2864363,20.91663 8.4896105,18.124864 a 2.90809,2.90809 0 0 0 -2.0938249,3.111655 z m 5.8161707,52.345623 -2.89065,0.319889 a 2.90809,2.90809 0 0 0 1.587817,2.279944 z m 34.897083,17.448541 -1.302834,2.599833 a 2.90809,2.90809 0 0 0 2.605667,0 z m 34.897082,-17.448541 1.302834,2.599833 a 2.90809,2.90809 0 0 0 1.587817,-2.279944 z m 5.816171,-52.345623 2.890651,0.319889 a 2.90809,2.90809 0 0 0 -2.093825,-3.117473 z m -40.713253,2.908089 2.66382,-1.163235 -2.66382,-6.089541 -2.66382,6.089541 z M 49.202864,6.4925047 8.4896105,18.124864 10.083235,23.708397 50.796516,12.076038 Z M 6.3957856,21.230704 12.211957,73.576327 17.993258,72.936546 12.177059,20.590923 Z M 13.799774,75.856271 48.696856,93.304812 51.302523,88.105146 16.405441,70.656603 Z M 51.302523,93.304812 86.199606,75.856271 83.593939,70.656603 48.696856,88.105146 Z M 87.787423,73.576327 93.603594,21.230704 87.82232,20.590923 82.006121,72.936546 Z M 91.509769,18.11323 50.796516,6.4808715 49.202864,12.076038 89.916145,23.708397 Z M 32.306869,71.517399 52.66351,24.987956 47.33587,22.661484 26.979257,69.190925 Z M 47.33587,24.987956 67.692511,71.517399 73.020123,69.190925 52.66351,22.661484 Z M 35.459248,58.721801 h 29.080884 v -5.81618 H 35.459248 Z"
     id="path20357"
     style="display:none;stroke-width:5;stroke-dasharray:none" />
  <path
     style="fill:none;fill-opacity:1;stroke:#c3002f;stroke-width:5;stroke-linecap:round;stroke-linejoin:round;stroke-dasharray:none;stroke-opacity:1;paint-order:fill markers stroke"
     d="M 50,7.7122119 92.287799,18.284161 87.001824,74.315494 50,92.287808 12.998176,74.315494 7.7122012,18.284161 Z"
     id="path20625"
     sodipodi:nodetypes="ccccccc" />
  <path
     style="fill:none;fill-opacity:1;stroke:#c3002f;stroke-width:5;stroke-linecap:round;stroke-linejoin:round;stroke-dasharray:none;stroke-opacity:1;paint-order:fill markers stroke"
     d="M 28.8561,69.371624 50,19.471056 71.143899,69.371624"
     id="path20627"
     sodipodi:nodetypes="ccc" />
  <path
     style="fill:none;fill-opacity:1;stroke:#c3002f;stroke-width:5;stroke-linecap:round;stroke-linejoin:round;stroke-dasharray:none;stroke-opacity:1;paint-order:fill markers stroke"
     d="M 36.130526,53.676159 H 64.132632"
     id="path20629" />
</svg>
