<?xml version="1.0" encoding="UTF-8" standalone="no"?>
<!-- Created with Inkscape (http://www.inkscape.org/) -->

<svg
   width="100.0px"
   height="100.0px"
   viewBox="0 0 100.0 100.0"
   version="1.1"
   id="SVGRoot"
   sodipodi:docname="babel.svg"
   inkscape:version="1.2.1 (9c6d41e4, 2022-07-14)"
   xmlns:inkscape="http://www.inkscape.org/namespaces/inkscape"
   xmlns:sodipodi="http://sodipodi.sourceforge.net/DTD/sodipodi-0.dtd"
   xmlns="http://www.w3.org/2000/svg"
   xmlns:svg="http://www.w3.org/2000/svg">
  <sodipodi:namedview
     id="namedview147"
     pagecolor="#ffffff"
     bordercolor="#000000"
     borderopacity="0.25"
     inkscape:showpageshadow="2"
     inkscape:pageopacity="0.0"
     inkscape:pagecheckerboard="0"
     inkscape:deskcolor="#d1d1d1"
     inkscape:document-units="px"
     showgrid="true"
     inkscape:zoom="4.4651612"
     inkscape:cx="66.738912"
     inkscape:cy="51.061987"
     inkscape:window-width="1309"
     inkscape:window-height="782"
     inkscape:window-x="0"
     inkscape:window-y="25"
     inkscape:window-maximized="0"
     inkscape:current-layer="layer1">
    <inkscape:grid
       type="xygrid"
       id="grid270" />
  </sodipodi:namedview>
  <defs
     id="defs142" />
  <g
     inkscape:label="Layer 1"
     inkscape:groupmode="layer"
     id="layer1">
    <path
       fill="currentColor"
       d="M 63.47492,7.0064461 C 57.731701,7.533117 50.150505,9.5609803 40.842403,13.165271 a 80.132795,80.132795 0 0 1 -8.742019,5.513919 l 0.03582,0.566082 c 0.22929,0 0.487262,-0.15405 0.859871,-0.343948 0.379778,-0.03582 0.605494,0.114659 0.605494,0.490844 l 0.60191,-0.336784 0.300954,-0.03942 0.03582,0.265136 c 0.03582,0.261534 -2.027864,1.873803 -6.115832,4.765119 l 0.3332,0.523086 -0.300955,0.043 -0.634155,-0.229291 c 0,0.186297 -0.261535,0.304541 -0.85987,0.340367 l 0.03582,0.300955 0.677148,0.752387 a 2.4112211,2.4112211 0 0 1 -0.902865,-0.189897 c -1.314885,0.111058 -2.629769,1.085587 -3.905245,2.887734 l 0.336784,0.52667 c 1.124996,-1.013932 1.762733,-1.540604 1.94904,-1.540604 l 0.07881,0.824045 c -0.186296,0 -0.487259,0.150477 -0.85987,0.336782 l 0.712975,1.056926 a 20.995179,20.995179 0 0 1 4.46058,-3.715359 c 0.824043,0.225715 1.239649,0.44785 1.239649,0.748805 l 0.60191,-0.03582 c 4.388923,-3.263927 8.742019,-5.596326 13.055702,-7.058107 l 0.043,0.566082 c -0.788213,1.200236 -1.350711,1.794981 -1.651666,1.830808 0.03582,0.415605 0.186296,0.752387 0.412021,1.092754 0.07524,0.752386 -1.877387,5.671562 -5.85787,14.829187 -9.082387,21.245976 -16.66358,36.927869 -22.782993,47.135251 0,0.186296 0.146903,0.487263 0.336782,0.824044 1.501192,-0.372612 2.475711,-0.705811 2.887733,-1.082005 l 0.343949,-0.043 0.03582,0.566082 0.566083,-0.03941 0.594743,-0.336781 c 0,0.186296 0.225716,0.261535 0.601909,0.222142 l 0.043,0.569664 c 0.03582,0.562498 -0.26871,1.422369 -0.981685,2.586776 -0.637739,0.71656 -1.271894,2.174759 -1.98487,4.388926 l 0.03582,0.265136 0.566082,-0.03582 c 2.436302,-2.737256 4.313685,-5.44585 5.58916,-8.075619 7.169174,-2.09952 12.611438,-4.16321 16.402037,-6.19107 3.790595,-0.336785 6.721322,-1.307722 8.670361,-2.959391 l -0.03941,-0.300955 -1.429536,0.412024 -0.336785,0.03582 -0.03582,-0.300955 c 2.780249,-0.415606 4.729288,-1.04976 5.78263,-1.877386 5.442266,-4.202618 9.530234,-7.165588 12.306902,-8.928324 8.598708,-6.30572 12.650849,-12.385721 12.163587,-18.16477 -0.03582,-0.60191 -1.952621,-2.966555 -5.667981,-7.093935 -0.07524,-0.788213 1.236065,-1.916795 3.862253,-3.417987 l 7.473712,-6.570845 c 1.648085,-2.138928 2.6656,-5.58916 3.002382,-10.354276 l -0.111078,-1.12859 C 84.982396,14.702309 82.574758,11.997298 77.995946,9.9300264 75.298101,8.092052 70.454161,7.1175307 63.474878,7.006465 Z m 9.046557,3.7153599 c 5.553333,0.225716 8.408822,1.200235 8.559299,2.927143 l -0.225717,0.566082 z m -5.309703,4.718541 c 3.808513,-0.05732 5.793379,0.956606 5.990435,3.091951 l 0.558916,-0.043 -0.111058,-1.425954 0.60191,-0.03582 c 1.46178,0.788216 2.246413,1.762735 2.321651,2.92356 0.07524,0.788214 -0.336781,1.769902 -1.271891,2.93431 -0.376193,0.03582 -0.60191,-0.229291 -0.637736,-0.791799 l -0.60191,0.043 -0.146904,1.683913 c -2.515122,3.75477 -4.317269,5.667982 -5.445849,5.782632 -1.01393,1.386542 -1.655252,2.103102 -1.916795,2.138929 -0.788213,0.938691 -2.92356,2.550949 -6.449031,4.800946 -1.164407,0.114658 -5.485259,1.766317 -12.955386,5.030245 a 2.131763,2.131763 0 0 0 -1.196653,-0.186297 l -0.043,-0.52667 c -0.07167,-1.08917 0.383357,-2.439885 1.468943,-4.091551 0.566084,-3.081205 1.200238,-4.84394 1.913213,-5.25596 l 6.2269,-13.994398 c -0.07167,-0.863453 1.243228,-1.540601 3.980484,-1.988452 l 0.902865,-0.07881 0.07167,0.791796 a 180.52629,180.52629 0 0 1 4.994414,-0.716557 25.903608,25.903608 0 0 1 1.744821,-0.08598 z m 12.966137,1.397287 h 0.09674 c 0.498008,0.043 1.031845,0.942277 1.597925,2.6656 l 0.03582,0.526671 c -0.30454,0.03582 -0.859871,-0.867037 -1.687497,-2.6656 z m -35.240374,8.896082 h 0.257962 l 0.07881,0.824041 c -0.265135,0.03582 -0.634155,0.415605 -1.085587,1.203818 l -0.043,-0.558915 c 0.526671,-0.637736 0.788214,-1.132163 0.788214,-1.468944 z m -17.863815,0.455013 0.03582,0.257962 c -0.189897,0 -0.487262,0.154051 -0.859871,0.340366 l -0.304539,0.03582 -0.03582,-0.523089 z M 42.426,31.584419 42.537058,32.713 42.236103,32.74882 42.125046,31.627405 Z m -0.71656,2.031445 c -0.07167,0.938691 -0.300955,1.422369 -0.788214,1.46178 l -0.300955,0.03582 c 0.336783,-0.637737 0.526671,-1.085588 0.490841,-1.42237 l 0.60191,-0.07524 z m -1.236064,2.923561 0.03582,0.265135 -0.526671,0.895698 -0.56608,0.043 -0.03582,-0.265136 c 0.5625,-0.03582 0.827626,-0.333199 0.788217,-0.895697 z m -1.28264,2.633354 -0.143302,1.38296 -0.304538,0.03582 -0.107483,-1.386542 0.555334,-0.03582 z m 30.443009,1.003182 1.236064,0.759553 c 0.03582,0.372612 -0.150477,0.598328 -0.523089,0.634155 -0.52667,-0.336782 -0.938691,-0.48726 -1.239646,-0.48726 l -0.07524,-0.824043 0.601909,-0.07881 z m -23.836337,3.19227 0.043,0.526671 -1.167989,0.118233 -0.03582,-0.530253 z m 19.214531,1.952624 c 0.824042,0.376194 1.243229,0.752387 1.28264,1.04976 l 0.03582,0.26871 c -0.788215,0.07167 -1.504775,-0.340366 -2.178338,-1.239648 z m 9.315266,0.902865 c 0.637739,0.265135 0.93511,0.530252 0.974521,0.791799 l 0.186296,2.210583 c -0.261535,0.601908 -0.523086,0.902863 -0.824041,0.902863 z M 59.29738,46.45661 c 3.009548,-0.05017 5.309702,0.659234 6.886134,2.167589 l 0.107483,1.128581 c -1.347132,3.905249 -2.848321,6.158825 -4.46058,6.871803 l -7.509539,5.968935 c -5.589161,3.675949 -8.598708,5.51034 -9.046556,5.546168 -8.896081,4.919179 -14.445829,7.434301 -16.588343,7.620605 l -0.340363,0.03582 c 0.300955,-1.049758 4.245612,-9.15404 11.902043,-24.391668 3.378576,-0.300955 8.706193,-1.880968 15.950605,-4.72929 l 1.762735,-0.150477 c 0.458599,-0.03582 0.906446,-0.06092 1.336381,-0.07167 z m -10.945438,1.755569 0.03582,0.265136 -1.196653,0.111058 -0.043,-0.265136 z M 29.628255,66.37695 c -0.376193,1.916795 -0.791798,2.894898 -1.203819,2.93431 l -0.03582,-0.26871 c -0.07524,-0.974521 0.336782,-1.837974 1.239646,-2.6656 z m 25.441429,1.20382 0.03582,0.52667 c 0.03582,0.225717 -0.824041,0.93511 -2.511537,2.174756 -4.994417,2.439884 -7.917979,4.12738 -8.785016,4.990836 -5.402853,1.873801 -8.068453,3.041793 -8.032626,3.489641 -4.800946,1.916797 -7.953805,3.30692 -9.451412,4.170373 -0.340366,0.03582 -0.863455,-0.111058 -1.540601,-0.412021 -0.07524,-0.974521 0.333197,-1.769902 1.307718,-2.407638 0.824045,-0.07166 1.658833,0.03941 2.407638,0.379776 0.899284,-0.451433 2.436302,-0.981685 4.654052,-1.504775 l -0.043,-0.558915 -1.762735,0.143302 c 0.225716,-0.297372 1.916794,-1.085587 5.144894,-2.400474 l 0.89928,-0.07167 0.03582,0.261535 c -1.501192,0.114658 -2.364645,0.598327 -2.554534,1.386542 0.03582,0.336781 0.229289,0.52667 0.601909,0.490844 1.089169,-0.752387 1.65167,-1.160826 1.65167,-1.275477 2.178337,-0.41202 8.147275,-3.564882 17.942636,-9.38334 z m -27.171919,2.59036 0.03582,0.257961 c 0.03582,0.376194 -0.150477,0.609076 -0.52667,0.644904 l -0.03582,-0.265136 c -0.03582,-0.340364 0.150478,-0.562498 0.526671,-0.637737 z m 13.507139,3.357079 c 0.318867,-0.0072 0.498007,0.175548 0.530252,0.469347 -0.712975,0.07524 -2.027863,0.637737 -4.016314,1.762735 l -0.300955,0.03582 -0.03582,-0.558916 a 5.6823128,5.6823128 0 0 0 3.675948,-1.683912 c 0.05017,-0.01075 0.100312,-0.02149 0.143303,-0.02499 z m -13.127364,4.453416 0.03582,0.293788 c -0.229289,0 -0.494425,0.154051 -0.870619,0.340367 l -0.558916,0.03582 c -0.03582,-0.261536 0.114658,-0.48726 0.490841,-0.60191 l 0.902865,-0.07167 z m -6.8718,3.414401 0.634155,0.257962 c -0.225716,1.687496 -0.709393,2.554534 -1.576428,2.629772 a 3.8550873,3.8550873 0 0 0 -1.837974,-0.376193 l -0.07524,-0.824044 c -0.03582,-0.340363 0.154051,-0.52667 0.56608,-0.637736 0.376193,-0.03582 0.598328,0.218541 0.637739,0.78105 1.010348,-1.236065 1.576429,-1.830811 1.648086,-1.830811 z"
       id="path2"
       style="display:none;stroke-width:3.58279" />
    <path
       style="fill:none;stroke:#f5da55;stroke-width:5;stroke-linecap:round;stroke-linejoin:round;stroke-dasharray:none;paint-order:fill markers stroke;stroke-opacity:1"
       d="M 54.087747,14.742382 18.091284,91.877661 c 0,0 39.172466,-13.731715 52.504269,-28.530588 2.772289,-3.077359 6.076632,-7.547176 4.764922,-11.475935 -1.13379,-3.395858 -5.722472,-4.854296 -9.251797,-5.455297 -9.979046,-1.699311 -29.790001,5.897214 -29.790001,5.897214"
       id="path502"
       sodipodi:nodetypes="ccaaac" />
    <path
       style="fill:none;stroke:#f5da55;stroke-width:5;stroke-linecap:round;stroke-linejoin:round;stroke-dasharray:none;paint-order:fill markers stroke;stroke-opacity:1"
       d="m 24.125724,24.335725 c 7.036902,-4.330402 14.837986,-9.825387 23.195182,-12.55513 7.38246,-2.4113648 15.475377,-4.6898478 23.085984,-3.1425755 3.80566,0.7737085 8.051889,2.6029485 10.014055,5.9543015 1.823867,3.115145 1.906783,7.608289 0.27065,10.826004 -6.162906,12.120332 -33.551416,23.200368 -33.551416,23.200368"
       id="path504"
       sodipodi:nodetypes="caaaac" />
  </g>
</svg>
