<?xml version="1.0" encoding="UTF-8" standalone="no"?>
<!-- Created with Inkscape (http://www.inkscape.org/) -->

<svg
   width="100.0px"
   height="100.0px"
   viewBox="0 0 100.0 100.0"
   version="1.1"
   id="SVGRoot"
   sodipodi:docname="coffee.svg"
   inkscape:version="1.2.1 (9c6d41e410, 2022-07-14)"
   xmlns:inkscape="http://www.inkscape.org/namespaces/inkscape"
   xmlns:sodipodi="http://sodipodi.sourceforge.net/DTD/sodipodi-0.dtd"
   xmlns="http://www.w3.org/2000/svg"
   xmlns:svg="http://www.w3.org/2000/svg">
  <sodipodi:namedview
     id="namedview8047"
     pagecolor="#ffffff"
     bordercolor="#000000"
     borderopacity="0.25"
     inkscape:showpageshadow="2"
     inkscape:pageopacity="0.0"
     inkscape:pagecheckerboard="0"
     inkscape:deskcolor="#d1d1d1"
     inkscape:document-units="px"
     showgrid="true"
     inkscape:zoom="4.07"
     inkscape:cx="16.216216"
     inkscape:cy="50.12285"
     inkscape:window-width="1920"
     inkscape:window-height="1017"
     inkscape:window-x="1912"
     inkscape:window-y="-8"
     inkscape:window-maximized="1"
     inkscape:current-layer="layer1">
    <inkscape:grid
       type="xygrid"
       id="grid8170" />
  </sodipodi:namedview>
  <defs
     id="defs8042" />
  <g
     inkscape:label="Calque 1"
     inkscape:groupmode="layer"
     id="layer1">
    <path
       fill="currentColor"
       d="m 40.377283,25.638527 a 16.830467,16.830467 0 0 0 9.709999,-3.429138 l -0.04125,0.02945 a 19.178424,19.178424 0 0 1 10.611473,-3.576438 h 0.02945 a 16.762709,16.762709 0 0 1 5.8095,0.377088 l -0.114893,-0.02357 q 2.16236,0.618658 2.33912,1.855976 0.26514,1.160723 -1.237318,1.897221 a 9.8572976,9.8572976 0 0 1 -3.682494,0.925043 h -0.02651 a 6.7168674,6.7168674 0 0 1 -4.368909,-0.547955 l 0.03829,0.01768 a 3.0667804,3.0667804 0 0 1 -1.581999,-1.835355 l -0.006,-0.02055 q -2.209496,0.176759 -2.78102,0.972178 a 2.1211161,2.1211161 0 0 0 -0.483144,1.508348 v -0.006 q 0.26514,1.237318 2.828155,2.209496 c 1.425863,0.44779 3.063835,0.707039 4.760728,0.707039 0.842554,0 1.673324,-0.0648 2.480528,-0.185598 l -0.09132,0.01171 h 0.09428 c 2.618989,0 5.052382,-0.810149 7.058604,-2.188874 l -0.04125,0.02651 a 4.1008245,4.1008245 0 0 0 1.540754,-3.862199 l 0.0029,0.02358 q -0.530274,-2.651366 -4.457286,-4.45726 A 22.672374,22.672374 0 0 0 57.561108,14.88851 l 0.123732,-0.0148 q -9.182663,0.872013 -11.701489,3.885765 a 12.346663,12.346663 0 0 1 -8.667117,3.532249 h -0.12667 0.006 a 9.0559872,9.0559872 0 0 1 -3.994769,-0.279871 l 0.0648,0.01768 a 2.4274994,2.4274994 0 0 1 -1.717516,-1.573161 l -0.006,-0.01768 a 1.3993474,1.3993474 0 0 1 0.916202,-1.449429 l 0.0088,-0.0029 c 0.733553,-0.335844 1.587892,-0.571524 2.483474,-0.659904 l 0.03241,-0.0029 a 12.617694,12.617694 0 0 1 2.854669,0.144346 l -0.07364,-0.0088 c 0.836661,0.106056 1.599675,0.30933 2.312605,0.60393 l -0.06187,-0.02055 a 1.9885463,1.9885463 0 0 0 0.836663,-0.577414 l 0.0029,-0.0029 a 0.7571206,0.7571206 0 0 0 0.13257,-0.668742 v 0.006 q -0.265139,-0.972178 -1.941409,-1.369888 a 13.215731,13.215731 0 0 0 -4.121448,-0.21505 l 0.05597,-0.006 q -4.592807,0.4419 -5.344035,2.032737 a 4.4042618,4.4042618 0 0 0 -0.577414,2.574798 v -0.0148 a 5.7653113,5.7653113 0 0 0 3.711953,3.873984 l 0.04125,0.01171 c 1.652703,0.689363 3.570545,1.090018 5.585606,1.090018 0.69231,0 1.372835,-0.04713 2.038629,-0.13847 l -0.0766,0.0088 z m 41.420683,13.958122 q -2.828153,0.704091 -6.095262,1.237317 -3.267108,0.533225 -6.887734,0.872013 -3.620628,0.35352 -7.683156,0.580362 -4.062525,0.226842 -8.390191,0.22095 -4.504425,0 -8.566952,-0.22095 -4.062527,-0.22095 -7.727343,-0.618659 -3.664818,-0.397709 -6.931927,-0.925043 -3.267106,-0.527331 -6.095261,-1.160721 a 41.774202,41.774202 0 0 1 -8.195756,-2.8311 l 0.256301,0.108994 A 9.5951042,9.5951042 0 0 1 11.698028,33.97863 l -0.0148,-0.02055 c 0.338789,2.554178 0.786581,4.78135 1.366943,6.958439 l -0.08544,-0.377088 c 0.677579,2.607205 1.358104,4.713593 2.138792,6.769895 l -0.150246,-0.450737 a 16.97482,16.97482 0 0 0 -2.533557,1.867762 l 0.0148,-0.0148 a 19.626215,19.626215 0 0 0 -2.224227,2.345011 l -0.02945,0.03829 a 16.379729,16.379729 0 0 0 -2.8694025,5.314572 l -0.032413,0.117832 A 17.390206,17.390206 0 0 0 6.483609,62.333811 v -0.02651 c 0.1031171,1.962033 0.6628488,3.77382 1.5761063,5.355819 l -0.029452,-0.05893 a 15.257306,15.257306 0 0 0 3.6206257,4.195097 l 0.02945,0.02358 a 12.437989,12.437989 0 0 0 4.849106,2.412769 l 0.08544,0.01768 a 13.772524,13.772524 0 0 0 5.562037,0.02945 l -0.08838,0.0148 c 0.877906,-0.141407 1.664486,-0.374142 2.406877,-0.686417 l -0.06776,0.02651 q 1.193129,-0.486089 2.339118,-0.839609 h -0.09428 a 12.326041,12.326041 0 0 1 -4.448453,-0.824877 l 0.08544,0.02945 a 16.046832,16.046832 0 0 1 -4.139123,-2.406877 l 0.02945,0.02358 a 15.236684,15.236684 0 0 1 -3.541084,-3.741413 l -0.03535,-0.05597 A 11.392161,11.392161 0 0 1 12.81748,60.943376 l -0.006,-0.05597 a 11.518839,11.518839 0 0 1 0.0148,-4.97873 l -0.0148,0.0766 a 13.286435,13.286435 0 0 1 1.970907,-4.504418 l -0.02945,0.04419 q 0.353519,-0.35352 0.662848,-0.704091 0.30933,-0.350574 0.662849,-0.704094 0.795419,2.032736 1.720462,3.974148 0.925043,1.941409 2.003277,3.800333 2.118169,3.267106 4.327665,6.313265 2.209495,3.046157 4.413099,6.127668 c 0.553847,1.019314 1.104748,2.241903 1.570216,3.50868 l 0.0648,0.200335 c 0.374143,0.992799 0.724715,2.206548 0.986909,3.452704 l 0.02945,0.167922 c 0.992801,1.343373 2.159415,2.486421 3.485113,3.420299 l 0.04713,0.03241 c 1.319805,0.91915 2.842886,1.670379 4.474965,2.177089 l 0.117833,0.03241 c 1.805894,0.645173 3.947631,1.18429 6.157127,1.520134 l 0.197374,0.02357 c 1.979708,0.309329 4.262854,0.486089 6.587243,0.486089 h 0.477251 a 44.858658,44.858658 0 0 0 7.055657,-0.565631 l -0.256302,0.03241 a 40.124446,40.124446 0 0 0 6.908358,-1.673324 l -0.282815,0.08248 a 17.275312,17.275312 0 0 0 4.42783,-2.200658 l -0.05893,0.03829 a 14.126044,14.126044 0 0 0 3.452707,-3.437975 l 0.02945,-0.04419 h 0.26514 q 0.353519,-1.590837 0.925043,-3.532249 c 0.438952,-1.461212 0.96334,-2.719153 1.599675,-3.909334 l -0.05597,0.111955 q 2.118171,-3.090346 4.327667,-6.095261 2.209496,-3.004914 4.416045,-6.357455 A 64.473089,64.473089 0 0 0 90.252831,46.973499 L 90.3913,46.499195 a 83.018125,83.018125 0 0 0 3.052049,-11.904764 l 0.08248,-0.547955 a 11.153535,11.153535 0 0 1 -3.906389,3.019643 l -0.06777,0.02945 a 31.021323,31.021323 0 0 1 -7.559424,2.47758 l -0.200335,0.03241 z M 23.423085,33.49844 q 2.828155,0.704091 6.095264,1.237318 3.267106,0.533224 6.887734,0.872013 3.620628,0.353519 7.638964,0.530279 4.018337,0.176759 8.416705,0.176759 4.504427,0 8.522764,-0.176759 4.018335,-0.17676 7.638963,-0.530279 3.620629,-0.35352 6.843545,-0.925041 3.222919,-0.571524 6.136506,-1.193128 a 34.615435,34.615435 0 0 0 9.147313,-3.358434 l -0.182659,0.09132 q 2.957777,-1.76465 2.957777,-3.532246 a 3.4468137,3.4468137 0 0 0 -1.272669,-2.512936 l -0.006,-0.006 a 12.034388,12.034388 0 0 0 -3.582331,-2.135847 l -0.08248,-0.02651 c 0.353519,0.244519 0.645173,0.553848 0.863177,0.913258 l 0.0088,0.01171 a 2.2271719,2.2271719 0 0 1 0.353519,1.193128 q 0,1.855977 -2.736829,3.355486 c -2.36858,1.18429 -5.117193,2.129954 -8.001321,2.701478 l -0.209173,0.03535 q -5.123083,1.060558 -11.657301,1.811787 C 63.049501,32.511342 58.235747,32.78532 53.35718,32.78532 l -0.668741,-0.0029 h 0.03535 -0.480197 c -4.884459,0 -9.709999,-0.256301 -14.461886,-0.757121 l 0.592145,0.05009 A 113.12619,113.12619 0 0 1 26.024314,30.181171 l 0.7365,0.129631 a 35.060282,35.060282 0 0 1 -8.239946,-2.91948 l 0.200335,0.09132 q -2.736828,-1.49951 -2.736828,-3.267107 v -0.0029 c 0,-0.5509 0.147307,-1.066449 0.406547,-1.511295 l -0.0088,0.0148 c 0.374141,-0.577414 0.86023,-1.05172 1.431754,-1.402294 l 0.02055,-0.01171 a 25.97778,25.97778 0 0 0 -5.179059,2.577746 l 0.103117,-0.06187 c -1.004585,0.589197 -1.679217,1.64681 -1.720461,2.866452 v 0.006 q 0.176759,1.855976 3.222919,3.620626 c 2.642557,1.396401 5.703445,2.501149 8.929309,3.15516 l 0.22095,0.03829 z"
       id="path11241"
       style="display:none;stroke-width:5;stroke-dasharray:none" />
    <path
       style="fill:none;stroke:#6f4e37;stroke-width:5;stroke-linecap:round;stroke-linejoin:round;stroke-dasharray:none;stroke-opacity:1;paint-order:fill markers stroke"
       d="m 14.545508,36.533964 c 21.467045,10.762017 58.641269,10.032844 76.396242,0 C 87.853161,46.727939 80.382228,69.431563 72.783802,76.83575 65.185377,84.239935 61.922889,84.064519 54.847294,84.364654 47.771698,84.664789 41.338824,84.805908 32.924893,77.278625 24.510963,69.751343 15.968367,51.887817 14.545508,36.533964 Z"
       id="path11807"
       sodipodi:nodetypes="cczzzc" />
    <path
       d="m 14.43933,27.000695 c 21.487974,10.77251 58.698442,10.042626 76.470724,0"
       style="fill:none;stroke:#6f4e37;stroke-width:5;stroke-linecap:round;stroke-linejoin:round;stroke-dasharray:none;stroke-opacity:1;paint-order:fill markers stroke"
       id="path11837" />
    <path
       style="fill:none;stroke:#6f4e37;stroke-width:5;stroke-linecap:round;stroke-linejoin:round;stroke-dasharray:none;stroke-opacity:1;paint-order:fill markers stroke"
       d="m 40.28527,17.157967 c -3.911807,-1.659555 -10.387671,-1.482008 -10.668565,2.133713 -0.283697,3.651809 6.654861,3.979297 10.312946,3.793268 3.688609,-0.187581 6.708242,-3.103862 9.957328,-4.860124 3.975392,-2.14886 7.944163,-3.112047 11.972502,-2.489332 3.26944,0.505401 9.05475,1.139881 8.653392,4.860124 -0.516759,4.789901 -13.394977,4.583532 -14.343294,1.778094"
       id="path11852"
       sodipodi:nodetypes="caasasc" />
    <path
       style="fill:none;stroke:#6f4e37;stroke-width:5;stroke-linecap:round;stroke-linejoin:round;stroke-dasharray:none;stroke-opacity:1;paint-order:fill markers stroke"
       d="M 15.783658,47.091167 C 4.8961825,57.225785 6.3439852,72.22502 26.902782,71.761723"
       id="path11854"
       sodipodi:nodetypes="cc" />
  </g>
</svg>
