<?xml version="1.0" encoding="UTF-8" standalone="no"?>
<!-- Created with Inkscape (http://www.inkscape.org/) -->

<svg
   width="100.0px"
   height="100.0px"
   viewBox="0 0 100.0 100.0"
   version="1.1"
   id="SVGRoot"
   sodipodi:docname="cucumber.svg"
   inkscape:version="1.2.1 (9c6d41e4, 2022-07-14)"
   xmlns:inkscape="http://www.inkscape.org/namespaces/inkscape"
   xmlns:sodipodi="http://sodipodi.sourceforge.net/DTD/sodipodi-0.dtd"
   xmlns="http://www.w3.org/2000/svg"
   xmlns:svg="http://www.w3.org/2000/svg">
  <sodipodi:namedview
     id="namedview58509"
     pagecolor="#ffffff"
     bordercolor="#000000"
     borderopacity="0.25"
     inkscape:showpageshadow="2"
     inkscape:pageopacity="0.0"
     inkscape:pagecheckerboard="0"
     inkscape:deskcolor="#d1d1d1"
     inkscape:document-units="px"
     showgrid="true"
     inkscape:zoom="3.4739732"
     inkscape:cx="57.858823"
     inkscape:cy="53.541001"
     inkscape:window-width="1309"
     inkscape:window-height="570"
     inkscape:window-x="0"
     inkscape:window-y="25"
     inkscape:window-maximized="0"
     inkscape:current-layer="layer1">
    <inkscape:grid
       type="xygrid"
       id="grid58632" />
  </sodipodi:namedview>
  <defs
     id="defs58504" />
  <g
     inkscape:label="Layer 1"
     inkscape:groupmode="layer"
     id="layer1">
    <path
       fill="none"
       stroke="currentColor"
       stroke-linecap="round"
       stroke-linejoin="round"
       stroke-width="8.87441"
       d="M 87.474149,45.352016 C 87.427489,71.172303 66.518531,92.127896 40.698245,92.174671 V 81.603323 l -0.04666,-0.04676 C 20.631497,76.364435 8.5633208,55.970152 13.70868,35.950074 A 37.425382,37.425382 0 0 1 59.268398,9.0071679 C 75.780261,13.263775 87.474254,28.325607 87.474254,45.398801 Z M 43.037051,31.366027 40.698245,26.68844 m 16.37157,32.743115 2.338805,4.677591 M 36.020669,52.415173 31.343092,54.753968 m 14.032764,4.677587 -2.338805,4.677591 M 54.731009,31.366027 57.069815,26.68844 M 68.763773,52.415173 64.086197,50.076382 M 36.020669,40.721204 31.343092,38.382409"
       id="path70294"
       style="stroke-width:5;stroke-dasharray:none;stroke:#23d96c;stroke-opacity:1" />
  </g>
</svg>
