<?xml version="1.0" encoding="UTF-8" standalone="no"?>
<!-- Created with Inkscape (http://www.inkscape.org/) -->

<svg
   width="100.0px"
   height="100.0px"
   viewBox="0 0 100.0 100.0"
   version="1.1"
   id="SVGRoot"
   sodipodi:docname="cypress.svg"
   inkscape:version="1.2.1 (9c6d41e410, 2022-07-14)"
   xmlns:inkscape="http://www.inkscape.org/namespaces/inkscape"
   xmlns:sodipodi="http://sodipodi.sourceforge.net/DTD/sodipodi-0.dtd"
   xmlns="http://www.w3.org/2000/svg"
   xmlns:svg="http://www.w3.org/2000/svg">
  <sodipodi:namedview
     id="namedview109453"
     pagecolor="#ffffff"
     bordercolor="#000000"
     borderopacity="0.25"
     inkscape:showpageshadow="2"
     inkscape:pageopacity="0.0"
     inkscape:pagecheckerboard="0"
     inkscape:deskcolor="#d1d1d1"
     inkscape:document-units="px"
     showgrid="true"
     inkscape:zoom="5.9651515"
     inkscape:cx="70.911862"
     inkscape:cy="52.303785"
     inkscape:window-width="1920"
     inkscape:window-height="1017"
     inkscape:window-x="1912"
     inkscape:window-y="-8"
     inkscape:window-maximized="1"
     inkscape:current-layer="layer1">
    <inkscape:grid
       type="xygrid"
       id="grid109576" />
  </sodipodi:namedview>
  <defs
     id="defs109448">
    <linearGradient
       id="svgIDb"
       x1="-232.57899"
       x2="-232.515"
       y1="267.655"
       y2="267.655"
       gradientTransform="matrix(613.05188,483.09209,483.09209,-613.05188,13294.197,276504.83)"
       gradientUnits="userSpaceOnUse">
      <stop
         offset="0"
         stop-color="#58d09e"
         id="stop108560" />
      <stop
         offset="1"
         stop-color="#d2d2d2"
         id="stop108562" />
    </linearGradient>
    <linearGradient
       id="svgIDa"
       x1="-232.591"
       x2="-232.52699"
       y1="266.35001"
       y2="266.35001"
       gradientTransform="matrix(-207.13735,752.46905,752.46905,207.13735,-248507.37,119885.64)"
       gradientUnits="userSpaceOnUse">
      <stop
         offset="0"
         stop-color="#58d09e"
         id="stop108555" />
      <stop
         offset="1"
         id="stop108557" />
    </linearGradient>
  </defs>
  <g
     inkscape:label="Calque 1"
     inkscape:groupmode="layer"
     id="layer1">
    <path
       fill="#d2d2d2"
       d="M 74.075526,35.817169 65.617402,57.041122 57.107919,35.817169 h -6.965513 l 11.93767,28.969476 -8.483803,20.427894 6.098837,1.203717 20.979999,-50.601087 z"
       id="path108569"
       style="stroke-width:3.2088189;fill:#04c38e;fill-opacity:1;stroke-dasharray:none" />
    <path
       fill="#d2d2d2"
       d="m 36.917559,41.184146 a 8.3810859,8.3810859 0 0 1 7.889969,5.135863 l 0.115557,0.253583 5.935131,-1.999777 -0.128396,-0.301732 A 14.611529,14.611529 0 0 0 36.927189,35.284324 14.842643,14.842643 0 0 0 26.05521,39.53104 14.255229,14.255229 0 0 0 21.644788,50.130177 14.184611,14.184611 0 0 0 26.04558,60.687584 14.842643,14.842643 0 0 0 36.917559,64.937511 14.617949,14.617949 0 0 0 50.72019,55.949751 l 0.128397,-0.301732 -5.944761,-2.002986 -0.112347,0.266423 a 8.22701,8.22701 0 0 1 -7.88355,5.119813 8.3457768,8.3457768 0 0 1 -6.166245,-2.545462 8.7566459,8.7566459 0 0 1 -2.506943,-6.34921 8.9043019,8.9043019 0 0 1 2.506943,-6.419829 8.3072579,8.3072579 0 0 1 6.188715,-2.542252 z"
       id="path108571"
       style="stroke-width:3.2088189;fill:#04c38e;fill-opacity:1;stroke-dasharray:none" />
    <path
       fill="url(#svgIDa)"
       d="M 70.066343,81.523137 A 37.289573,37.289573 0 0 0 83.24625,32.687503 l 5.399076,-2.789415 A 43.279273,43.279273 0 0 1 73.340455,86.620481 Z"
       id="path108573"
       style="display:inline;fill:#04c38e;stroke-width:3.2088189;fill-opacity:1;stroke-dasharray:none" />
    <path
       fill="#58d09e"
       d="M 7.967345,61.499693 A 43.032109,43.032109 0 0 1 6.4137465,50.027459 43.597054,43.597054 0 0 1 34.400987,9.6210602 l 2.195581,5.6333988 a 37.520687,37.520687 0 0 0 -24.074356,34.769791 37.0392,37.0392 0 0 0 1.335325,9.870486 z"
       id="path108575"
       style="stroke-width:3.2088189;fill:#04c38e;fill-opacity:1;stroke-dasharray:none" />
    <path
       fill="#58d09e"
       d="M 34.108884,9.7622962 A 43.876317,43.876317 0 0 1 88.88607,30.411674 L 83.467735,33.16578 A 37.76464,37.76464 0 0 0 36.326935,15.398905 L 34.108884,9.7719262 Z"
       id="path108577"
       style="stroke-width:3.2088189;fill:#04c38e;fill-opacity:1;stroke-dasharray:none" />
    <path
       fill="url(#svgIDb)"
       d="m 54.777522,82.357715 -1.482981,3.563005 a 1.9708873,1.9708873 0 0 1 -1.726934,1.213347 c -0.500746,0.02247 -1.007913,0.03531 -1.518289,0.03531 A 37.832048,37.832048 0 0 1 13.315061,58.122863 L 7.3703009,59.454977 A 43.404459,43.404459 0 0 0 22.553193,83.574272 44.13953,44.13953 0 0 0 49.98512,93.204015 H 50.075 c 0.584205,0 1.168409,0 1.746194,-0.03531 a 8.0857738,8.0857738 0 0 0 7.116379,-4.952898 l 1.925949,-4.654375 -6.098837,-1.203718 z"
       id="path108579"
       style="fill:#04c38e;stroke-width:3.2088189;fill-opacity:1;stroke-dasharray:none" />
  </g>
</svg>
