<?xml version="1.0" encoding="UTF-8" standalone="no"?>
<!-- Created with Inkscape (http://www.inkscape.org/) -->

<svg
   width="100.0px"
   height="100.0px"
   viewBox="0 0 100.0 100.0"
   version="1.1"
   id="SVGRoot"
   sodipodi:docname="erlang.svg"
   inkscape:version="1.2.1 (9c6d41e4, 2022-07-14)"
   xmlns:inkscape="http://www.inkscape.org/namespaces/inkscape"
   xmlns:sodipodi="http://sodipodi.sourceforge.net/DTD/sodipodi-0.dtd"
   xmlns="http://www.w3.org/2000/svg"
   xmlns:svg="http://www.w3.org/2000/svg">
  <sodipodi:namedview
     id="namedview58509"
     pagecolor="#ffffff"
     bordercolor="#000000"
     borderopacity="0.25"
     inkscape:showpageshadow="2"
     inkscape:pageopacity="0.0"
     inkscape:pagecheckerboard="0"
     inkscape:deskcolor="#d1d1d1"
     inkscape:document-units="px"
     showgrid="true"
     inkscape:zoom="3.3890423"
     inkscape:cx="38.063851"
     inkscape:cy="47.801115"
     inkscape:window-width="1309"
     inkscape:window-height="456"
     inkscape:window-x="0"
     inkscape:window-y="25"
     inkscape:window-maximized="0"
     inkscape:current-layer="layer1">
    <inkscape:grid
       type="xygrid"
       id="grid58632" />
  </sodipodi:namedview>
  <defs
     id="defs58504" />
  <g
     inkscape:label="Layer 1"
     inkscape:groupmode="layer"
     id="layer1">
    <path
       fill="currentColor"
       d="M 40.227595,35.361478 C 40.706723,28.7277 45.277118,24.269572 50.63154,24.25533 c 5.39487,0.01416 9.290128,4.47237 9.42391,11.106148 z M 77.904566,77.04782 c 2.495204,-3.062293 4.729068,-6.665827 6.757587,-10.789239 l -11.2502,-6.434373 C 69.460692,67.173707 63.683142,73.942797 55.696622,73.985527 44.06685,73.942797 39.499568,62.562465 39.524455,47.913318 h 43.451413 c 0.0591,-1.652215 0.0591,-2.421349 0,-3.218968 0.283124,-8.713293 -1.736066,-16.037865 -5.404203,-21.742274 l -0.02171,0.01788 h 15.060904 v 54.0743 H 77.879756 Z m -53.53179,-0.0034 C 18.579672,70.011797 15.188431,60.305047 15.194655,48.718187 15.188421,38.473751 18.000983,29.667881 22.835829,22.966448 H 7.3891414 V 77.044294 H 24.366553 Z"
       id="path58370"
       style="fill:none;stroke:#a2003e;stroke-width:5;stroke-linecap:round;stroke-linejoin:round;stroke-dasharray:none;stroke-opacity:1;paint-order:normal"
       sodipodi:nodetypes="cccccccccccccccccccccccc" />
  </g>
</svg>
