<?xml version="1.0" encoding="UTF-8" standalone="no"?>
<!-- Created with Inkscape (http://www.inkscape.org/) -->

<svg
   width="100.0px"
   height="100.0px"
   viewBox="0 0 100.0 100.0"
   version="1.1"
   id="SVGRoot"
   sodipodi:docname="folder_github.svg"
   inkscape:version="1.2.1 (9c6d41e410, 2022-07-14)"
   xmlns:inkscape="http://www.inkscape.org/namespaces/inkscape"
   xmlns:sodipodi="http://sodipodi.sourceforge.net/DTD/sodipodi-0.dtd"
   xmlns="http://www.w3.org/2000/svg"
   xmlns:svg="http://www.w3.org/2000/svg">
  <sodipodi:namedview
     id="namedview137"
     pagecolor="#161849"
     bordercolor="#000000"
     borderopacity="0.25"
     inkscape:showpageshadow="2"
     inkscape:pageopacity="0"
     inkscape:pagecheckerboard="true"
     inkscape:deskcolor="#d1d1d1"
     inkscape:document-units="px"
     showgrid="true"
     inkscape:zoom="4.6669048"
     inkscape:cx="-35.033927"
     inkscape:cy="37.712362"
     inkscape:window-width="1920"
     inkscape:window-height="1017"
     inkscape:window-x="1912"
     inkscape:window-y="-8"
     inkscape:window-maximized="1"
     inkscape:current-layer="layer1"
     inkscape:lockguides="true">
    <inkscape:grid
       type="xygrid"
       id="grid260" />
  </sodipodi:namedview>
  <defs
     id="defs132">
    <linearGradient
       id="linearGradient2281"
       inkscape:swatch="solid">
      <stop
         style="stop-color:#000000;stop-opacity:1;"
         offset="0"
         id="stop2279" />
    </linearGradient>
  </defs>
  <g
     inkscape:label="Calque 1"
     inkscape:groupmode="layer"
     id="layer1">
    <path
       style="display:none;fill:none;stroke:#d9d9d9;stroke-width:5;stroke-linecap:round;stroke-linejoin:round;stroke-dasharray:none;stroke-opacity:1;paint-order:fill markers stroke"
       d="M 77.454,80 H 25.25 c -6.245702,0 -10,-3.979838 -10,-10 V 45.077937 42.869 c 0,-4.714051 5.285949,-10.000028 10,-10.000024 l 23.987,2.4e-5 v -2.755 c 0,-4.714007 5.285592,-10.000239 9.999599,-10.000239 H 77.454 c 4.714102,0 10,5.286137 10,10.000239 V 70 c 0,6.245702 -3.979837,10 -10,10 z"
       id="path2277"
       sodipodi:nodetypes="ssscsscssssss" />
    <path
       style="display:none;fill:none;stroke:#d9d9d9;stroke-width:5;stroke-linecap:round;stroke-linejoin:round;stroke-opacity:1;paint-order:fill markers stroke"
       d="M 49.237,32.869 H 87.454"
       id="path5270"
       sodipodi:nodetypes="cc" />
    <path
       d="m 31.156197,31.619231 c -1.045727,0 -1.893492,0.847763 -1.893492,1.893492 0,1.045727 0.847765,1.893491 1.893492,1.893491 z m 55.266273,9.467456 v 32.189349 h 3.786981 V 41.086687 Z M 80.741997,78.956508 H 19.676908 v 3.786983 H 80.741997 Z M 13.996434,73.276036 V 33.512723 h -3.786983 v 39.763313 z m 0,-39.763313 v -1.656805 h -3.786983 v 1.656805 z m 36.213018,1.893491 H 80.741997 V 31.619231 H 50.209452 Z M 13.996434,31.855918 c 0,-3.137231 2.543243,-5.680473 5.680474,-5.680473 v -3.786983 c -5.228735,0 -9.467457,4.238722 -9.467457,9.467456 z m 5.680474,47.10059 c -3.137231,0 -5.680474,-2.54343 -5.680474,-5.680472 h -3.786983 c 0,5.228874 4.238722,9.467455 9.467457,9.467455 z M 86.42247,73.276036 c 0,3.137042 -2.543437,5.680472 -5.680473,5.680472 v 3.786983 c 5.228878,0 9.467454,-4.238581 9.467454,-9.467455 z M 42.635487,26.175445 c 3.137231,0 5.680473,2.543242 5.680473,5.680473 h 3.786983 c 0,-5.228734 -4.238722,-9.467456 -9.467456,-9.467456 z m 47.573964,14.911242 c 0,-5.228734 -4.238576,-9.467456 -9.467454,-9.467456 v 3.786983 c 3.137036,0 5.680473,2.543242 5.680473,5.680473 z M 19.676908,26.175445 H 31.156197 V 22.388462 H 19.676908 Z m 11.479289,0 h 11.47929 v -3.786983 h -11.47929 z m 19.053255,5.443786 H 31.156197 v 3.786983 h 19.053255 z m -1.893492,0.236687 v 1.656805 h 3.786983 v -1.656805 z"
       fill="#d9d9d9"
       id="path5187"
       style="display:none;stroke-width:0.473373" />
    <path
       style="fill:none;stroke:#d9d9d9;stroke-width:5;stroke-linecap:round;stroke-linejoin:round;stroke-dasharray:none;stroke-opacity:1;paint-order:fill markers stroke"
       d="m 24.023123,28.126014 h 54.285891 c 0,0 9.207079,0.247865 9.207079,9.542778 V 45 M 40,82.656166 H 10.272291 c 0,0 -7.7722083,-0.61966 -7.7722083,-8.05559 V 26.390965 c 0,0 0,-9.047049 8.7287883,-9.047049 h 26.186366 c 0,0 7.293919,0 7.293919,7.559862 v 2.974372"
       id="path5390"
       sodipodi:nodetypes="ccscccscscsc" />
    <path
       sodipodi:type="star"
       style="display:none;fill:none;stroke:#336633;stroke-width:5.06036;stroke-linecap:round;stroke-linejoin:round;stroke-dasharray:none;stroke-opacity:1;paint-order:fill markers stroke"
       id="path56793"
       inkscape:flatsided="true"
       sodipodi:sides="6"
       sodipodi:cx="-84.242424"
       sodipodi:cy="-15.151515"
       sodipodi:r1="22.90436"
       sodipodi:r2="19.835758"
       sodipodi:arg1="0.52359878"
       sodipodi:arg2="1.0471976"
       inkscape:rounded="0"
       inkscape:randomized="0"
       d="m -64.406667,-3.699335 -19.835757,11.4521798 -19.835756,-11.45218 0,-22.9043598 19.835756,-11.45218 19.835757,11.45218 z"
       transform="matrix(0.9880717,0,0,0.9880717,154.4867,86.788893)" />
    <path
       fill="currentColor"
       d="m 62.886545,85.898233 a 1.607882,1.607882 0 1 0 -0.964673,-3.067661 z m -11.730427,-9.51811 -1.556339,-0.411594 -0.816757,3.11268 1.556342,0.408377 0.816754,-3.112677 z m 22.502611,16.023223 v 1.607788 h 3.215578 V 92.403346 Z M 73.861311,76.926772 73.687669,75.32863 a 1.6077886,1.6077886 0 0 0 -0.961457,2.739671 l 1.131881,-1.138314 z M 84.913249,64.791183 h 1.607789 v -0.0097 l -1.607789,0.0065 z m -2.678575,-6.453664 -1.49846,-0.578804 a 1.6077886,1.6077886 0 0 0 0.360145,1.713903 z M 82.073895,51.8517 83.540199,51.195722 A 1.6077886,1.6077886 0 0 0 82.51443,50.308223 Z m -6.987449,2.546737 -0.405163,1.556339 a 1.6077886,1.6077886 0 0 0 1.279799,-0.205795 z m -12.502165,0 -0.874638,1.350544 a 1.6077886,1.6077886 0 0 0 1.279801,0.205795 z m -6.987449,-2.543522 -0.440535,-1.543477 a 1.6077886,1.6077886 0 0 0 -1.028985,0.8875 z m -0.16078,6.485819 1.138316,1.1351 a 1.6077886,1.6077886 0 0 0 0.360143,-1.717119 z m -2.678576,6.505113 h 1.607789 v -0.0065 z m 11.055155,12.08414 1.131884,1.14153 a 1.6077886,1.6077886 0 0 0 -0.942164,-2.736456 l -0.192935,1.594926 z m -1.408423,4.218837 h 1.60779 l -0.0032,-0.118972 z M 60.79642,92.403346 v 1.607788 h 3.215578 v -1.607788 z m 1.125452,-9.572774 c -1.938993,0.610959 -3.170558,0.543432 -3.987316,0.273323 -0.807111,-0.266892 -1.427715,-0.803893 -2.022599,-1.575631 A 15.434771,15.434771 0 0 1 55.043751,80.235602 C 54.770428,79.788635 54.458517,79.264496 54.14339,78.798239 53.529214,77.89466 52.622422,76.762778 51.156118,76.376909 l -0.816754,3.112677 c 0.257244,0.06432 0.591664,0.305481 1.141529,1.112591 0.263677,0.392299 0.514491,0.810327 0.829618,1.324818 0.302264,0.488768 0.649546,1.028984 1.051495,1.556338 0.81354,1.06114 1.922914,2.131929 3.56929,2.675362 1.639945,0.540217 3.588585,0.482336 5.955249,-0.260462 z M 76.874307,80.94946 c 0,-1.022554 -0.04503,-1.955072 -0.334422,-2.823279 -0.308695,-0.926086 -0.84248,-1.639943 -1.546691,-2.337723 l -2.266982,2.283059 c 0.498414,0.491983 0.668839,0.787816 0.762092,1.070786 0.112549,0.337637 0.170425,0.816758 0.170425,1.807157 z m -2.842571,-2.42133 c 2.903665,-0.311913 6.071011,-1.045064 8.511634,-3.157698 2.50815,-2.170515 3.977668,-5.559734 3.977668,-10.579249 h -3.215576 c 0,4.36997 -1.254075,6.752712 -2.868296,8.148272 -1.684962,1.459874 -4.045197,2.099773 -6.749497,2.389175 z M 86.521038,64.781536 a 10.785046,10.785046 0 0 0 -3.151267,-7.582331 l -2.273412,2.270197 c 1.408424,1.414854 2.202671,3.324908 2.209103,5.321781 z m -2.787905,-5.865213 c 0.482336,-1.234781 0.707426,-2.553169 0.675271,-3.881201 l -3.215578,0.08038 a 6.8170239,6.8170239 0 0 1 -0.456612,2.636773 z m 0.675271,-3.881201 a 10.029386,10.029386 0 0 0 -0.868205,-3.842616 l -2.935822,1.311955 c 0.36979,0.823189 0.569157,1.710688 0.591665,2.61105 l 3.215577,-0.08038 z M 82.073895,51.8517 c 0.440535,-1.546693 0.440535,-1.549909 0.437318,-1.549909 h -0.0097 l -0.01281,-0.0065 a 1.4855967,1.4855967 0 0 0 -0.09646,-0.0225 4.0548431,4.0548431 0 0 0 -0.681704,-0.07717 6.9842339,6.9842339 0 0 0 -1.639943,0.173642 c -1.36662,0.292617 -3.29275,1.019338 -5.85235,2.67536 l 1.742842,2.701085 c 2.312,-1.492027 3.877987,-2.038676 4.784779,-2.23161 a 3.8586928,3.8586928 0 0 1 0.983967,-0.09646 l -0.02573,-0.0032 a 0.89393049,0.89393049 0 0 1 -0.03215,-0.0065 l -0.01929,-0.0065 h -0.0097 l -0.0065,-0.0032 c -0.0032,0 -0.0065,0 0.437318,-1.549909 z m -6.582287,0.987182 a 26.396675,26.396675 0 0 0 -13.312489,0 l 0.810325,3.112679 a 23.181097,23.181097 0 0 1 11.691839,0 z M 63.455703,53.044679 C 60.892886,51.391872 58.963541,50.665152 57.59692,50.37575 a 6.9778029,6.9778029 0 0 0 -1.639944,-0.170426 4.0484119,4.0484119 0 0 0 -0.774953,0.09646 l -0.01281,0.0065 h -0.0097 l 0.43732,1.546692 0.440532,1.546692 h -0.0032 l -0.0065,0.0032 -0.0097,0.0032 a 1.0514938,1.0514938 0 0 1 -0.05145,0.01281 l -0.02573,0.0032 h 0.02573 a 3.826537,3.826537 0 0 1 0.958242,0.09646 c 0.906792,0.192934 2.472779,0.739582 4.784779,2.23161 l 1.746058,-2.701084 z m -9.325175,-1.852173 a 10.032601,10.032601 0 0 0 -0.868205,3.842616 l 3.215576,0.08038 a 6.7205566,6.7205566 0 0 1 0.588451,-2.611049 z m -0.868205,3.842616 c -0.03215,1.328032 0.192934,2.64642 0.675271,3.881201 l 2.996917,-1.164039 a 6.8170239,6.8170239 0 0 1 -0.459827,-2.636773 l -3.215579,-0.08038 z m 1.035415,2.164083 a 10.785046,10.785046 0 0 0 -2.334509,3.508196 l 2.971193,1.221917 C 55.31386,61.01288 55.87337,60.17683 56.574368,59.469402 Z m -2.334509,3.508196 a 10.785046,10.785046 0 0 0 -0.81354,4.138446 l 3.215576,-0.0097 c 0,-0.996828 0.192936,-1.980795 0.569157,-2.90045 l -2.971193,-1.221908 z m -0.81354,4.138446 c 0,4.993792 1.472733,8.350855 3.9841,10.508508 2.434191,2.090124 5.595104,2.829708 8.489123,3.173775 l 0.379439,-3.193069 C 61.278755,75.007072 58.918523,74.363957 57.22713,72.910514 55.612909,71.524602 54.365265,69.174015 54.365265,64.839416 h -3.215576 z m 11.527843,10.945827 c -1.607788,1.601357 -2.022597,3.504978 -1.877897,5.479342 l 3.212363,-0.241167 c -0.09646,-1.311957 0.167209,-2.19624 0.935732,-2.961548 l -2.266982,-2.279843 z m -1.881112,5.35715 v 11.254522 h 3.215578 V 81.148824 Z M 76.874307,92.403346 V 87.57998 h -3.215578 v 4.823366 z m 0,-4.823366 v -6.633737 h -3.215578 v 6.633737 z"
       id="path36603"
       style="fill:#999999;fill-opacity:1;stroke:#999999;stroke-width:2.03809;stroke-linecap:round;stroke-linejoin:round;stroke-dasharray:none;stroke-opacity:1" />
  </g>
</svg>
