<?xml version="1.0" encoding="UTF-8" standalone="no"?>
<!-- Created with Inkscape (http://www.inkscape.org/) -->

<svg
   width="100.0px"
   height="100.0px"
   viewBox="0 0 100.0 100.0"
   version="1.1"
   id="SVGRoot"
   sodipodi:docname="folder_plugins.svg"
   inkscape:version="1.2.1 (9c6d41e410, 2022-07-14)"
   xmlns:inkscape="http://www.inkscape.org/namespaces/inkscape"
   xmlns:sodipodi="http://sodipodi.sourceforge.net/DTD/sodipodi-0.dtd"
   xmlns="http://www.w3.org/2000/svg"
   xmlns:svg="http://www.w3.org/2000/svg">
  <sodipodi:namedview
     id="namedview137"
     pagecolor="#676a5f"
     bordercolor="#000000"
     borderopacity="0.25"
     inkscape:showpageshadow="2"
     inkscape:pageopacity="0"
     inkscape:pagecheckerboard="true"
     inkscape:deskcolor="#d1d1d1"
     inkscape:document-units="px"
     showgrid="true"
     inkscape:zoom="6.5176587"
     inkscape:cx="48.943956"
     inkscape:cy="68.813054"
     inkscape:window-width="1309"
     inkscape:window-height="718"
     inkscape:window-x="2193"
     inkscape:window-y="97"
     inkscape:window-maximized="0"
     inkscape:current-layer="layer1">
    <inkscape:grid
       type="xygrid"
       id="grid260" />
  </sodipodi:namedview>
  <defs
     id="defs132">
    <linearGradient
       id="linearGradient2281"
       inkscape:swatch="solid">
      <stop
         style="stop-color:#000000;stop-opacity:1;"
         offset="0"
         id="stop2279" />
    </linearGradient>
  </defs>
  <g
     inkscape:label="Calque 1"
     inkscape:groupmode="layer"
     id="layer1">
    <path
       style="display:none;fill:none;stroke:#d9d9d9;stroke-width:5;stroke-linecap:round;stroke-linejoin:round;stroke-dasharray:none;stroke-opacity:1;paint-order:fill markers stroke"
       d="M 77.454,80 H 25.25 c -6.245702,0 -10,-3.979838 -10,-10 V 45.077937 42.869 c 0,-4.714051 5.285949,-10.000028 10,-10.000024 l 23.987,2.4e-5 v -2.755 c 0,-4.714007 5.285592,-10.000239 9.999599,-10.000239 H 77.454 c 4.714102,0 10,5.286137 10,10.000239 V 70 c 0,6.245702 -3.979837,10 -10,10 z"
       id="path2277"
       sodipodi:nodetypes="ssscsscssssss" />
    <path
       style="display:none;fill:none;stroke:#d9d9d9;stroke-width:5;stroke-linecap:round;stroke-linejoin:round;stroke-opacity:1;paint-order:fill markers stroke"
       d="M 49.237,32.869 H 87.454"
       id="path5270"
       sodipodi:nodetypes="cc" />
    <path
       d="m 31.156197,31.619231 c -1.045727,0 -1.893492,0.847763 -1.893492,1.893492 0,1.045727 0.847765,1.893491 1.893492,1.893491 z m 55.266273,9.467456 v 32.189349 h 3.786981 V 41.086687 Z M 80.741997,78.956508 H 19.676908 v 3.786983 H 80.741997 Z M 13.996434,73.276036 V 33.512723 h -3.786983 v 39.763313 z m 0,-39.763313 v -1.656805 h -3.786983 v 1.656805 z m 36.213018,1.893491 H 80.741997 V 31.619231 H 50.209452 Z M 13.996434,31.855918 c 0,-3.137231 2.543243,-5.680473 5.680474,-5.680473 v -3.786983 c -5.228735,0 -9.467457,4.238722 -9.467457,9.467456 z m 5.680474,47.10059 c -3.137231,0 -5.680474,-2.54343 -5.680474,-5.680472 h -3.786983 c 0,5.228874 4.238722,9.467455 9.467457,9.467455 z M 86.42247,73.276036 c 0,3.137042 -2.543437,5.680472 -5.680473,5.680472 v 3.786983 c 5.228878,0 9.467454,-4.238581 9.467454,-9.467455 z M 42.635487,26.175445 c 3.137231,0 5.680473,2.543242 5.680473,5.680473 h 3.786983 c 0,-5.228734 -4.238722,-9.467456 -9.467456,-9.467456 z m 47.573964,14.911242 c 0,-5.228734 -4.238576,-9.467456 -9.467454,-9.467456 v 3.786983 c 3.137036,0 5.680473,2.543242 5.680473,5.680473 z M 19.676908,26.175445 H 31.156197 V 22.388462 H 19.676908 Z m 11.479289,0 h 11.47929 v -3.786983 h -11.47929 z m 19.053255,5.443786 H 31.156197 v 3.786983 h 19.053255 z m -1.893492,0.236687 v 1.656805 h 3.786983 v -1.656805 z"
       fill="#d9d9d9"
       id="path5187"
       style="display:none;stroke-width:0.473373" />
    <path
       style="fill:none;stroke:#d9d9d9;stroke-width:5;stroke-linecap:round;stroke-linejoin:round;stroke-dasharray:none;stroke-opacity:1;paint-order:fill markers stroke"
       d="m 24.023123,28.126014 h 54.285891 c 0,0 9.207079,0.247865 9.207079,9.542778 V 45 M 40,82.656166 H 10.272291 c 0,0 -7.7722083,-0.61966 -7.7722083,-8.05559 V 26.390965 c 0,0 0,-9.047049 8.7287883,-9.047049 h 26.186366 c 0,0 7.293919,0 7.293919,7.559862 v 2.974372"
       id="path5390"
       sodipodi:nodetypes="ccscccscscsc" />
    <path
       style="display:none;fill:none;stroke:#bf4646;stroke-width:5;stroke-linecap:round;stroke-linejoin:round;stroke-dasharray:none;stroke-opacity:1;paint-order:fill markers stroke"
       d="M 49.66043,64.745311 V 77.992329 H 76.377237 V 89.127505 L 91.853436,70.888855 76.540144,52.842192 v 11.903119 z"
       id="path62004" />
    <path
       fill="currentColor"
       d="m 65.654355,94.074773 c -0.87646,0 -1.701162,-0.339991 -2.321872,-0.958626 L 44.474802,74.259159 c -1.27598,-1.282202 -1.27598,-3.367593 -0.0028,-4.647028 l 6.907986,-6.906601 c 0.426522,-0.42648 1.0811,-0.528089 1.617439,-0.248103 0.53435,0.27925 0.825999,0.87365 0.721022,1.467403 -0.07051,0.395416 -0.102339,0.712684 -0.102339,0.998802 0,3.024059 2.461411,5.53597 5.48685,5.53597 3.028206,0 5.239397,-2.511869 5.239397,-5.535926 0,-3.028206 -2.211191,-5.490308 -5.239397,-5.490308 -0.283398,0 -0.599195,0.03244 -0.994612,0.102294 -0.599281,0.110593 -1.188195,-0.186627 -1.467446,-0.720978 -0.27925,-0.535692 -0.178333,-1.190961 0.248146,-1.61744 l 6.440725,-6.442106 c 1.24764,-1.242112 3.404917,-1.239347 4.646982,-0.0028 l 4.715458,4.718221 c 0.984288,-3.059308 3.856972,-5.28022 7.237694,-5.28022 4.191561,0 7.602046,3.411829 7.602046,7.604685 0,3.380725 -2.219525,6.253406 -5.280216,7.236312 l 4.580669,4.577905 c 1.278742,1.282201 1.278742,3.367591 0.0014,4.648453 l -18.854891,18.85565 c -0.623433,0.6214 -1.448093,0.961477 -2.324508,0.961477 z M 51.09114,66.903958 46.429555,71.564119 c -0.201143,0.202524 -0.201143,0.537115 0.0028,0.742405 l 18.85146,18.85215 c 0.264734,0.261971 0.472833,0.264778 0.742406,-0.0028 L 84.876954,72.30376 c 0.202568,-0.203908 0.202568,-0.535691 -0.0014,-0.740938 l -6.648781,-6.644634 c -0.41611,-0.416109 -0.523939,-1.050643 -0.267544,-1.579422 0.256399,-0.528777 0.814251,-0.842631 1.405238,-0.770703 l 0.210821,0.02691 c 0.116123,0.01595 0.23229,0.03529 0.353944,0.03529 2.667392,0 4.83711,-2.16838 4.83711,-4.834348 0,-2.668816 -2.169718,-4.839875 -4.83711,-4.839875 -2.66601,0 -4.835728,2.171101 -4.835728,4.839875 0,0.110594 0.01727,0.218425 0.03248,0.326902 l 0.02973,0.246764 a 1.382556,1.382556 0 0 1 -0.778911,1.394868 c -0.525364,0.25091 -1.158516,0.14308 -1.572553,-0.270307 l -6.780111,-6.783569 c -0.264734,-0.261969 -0.472789,-0.264778 -0.742406,0.0028 l -4.195663,4.195664 c 3.597764,0.890974 6.021159,4.145898 6.021159,8.015309 0,4.549566 -3.452612,8.300089 -8.004942,8.300089 -3.868029,-6.91e-4 -7.12157,-2.725455 -8.011119,-6.320455 z"
       id="path90962"
       style="fill:#0288d1;fill-opacity:1;stroke:#0288d1;stroke-width:1.93277;stroke-dasharray:none;stroke-opacity:1" />
  </g>
</svg>
