<?xml version="1.0" encoding="UTF-8" standalone="no"?>
<!-- Created with Inkscape (http://www.inkscape.org/) -->

<svg
   width="100.0px"
   height="100.0px"
   viewBox="0 0 100.0 100.0"
   version="1.1"
   id="SVGRoot"
   sodipodi:docname="folder_plugins_open.svg"
   inkscape:version="1.2.1 (9c6d41e410, 2022-07-14)"
   xmlns:inkscape="http://www.inkscape.org/namespaces/inkscape"
   xmlns:sodipodi="http://sodipodi.sourceforge.net/DTD/sodipodi-0.dtd"
   xmlns="http://www.w3.org/2000/svg"
   xmlns:svg="http://www.w3.org/2000/svg">
  <sodipodi:namedview
     id="namedview137"
     pagecolor="#676a5f"
     bordercolor="#000000"
     borderopacity="0.25"
     inkscape:showpageshadow="2"
     inkscape:pageopacity="0"
     inkscape:pagecheckerboard="true"
     inkscape:deskcolor="#d1d1d1"
     inkscape:document-units="px"
     showgrid="true"
     inkscape:zoom="6.6"
     inkscape:cx="76.893939"
     inkscape:cy="53.030303"
     inkscape:window-width="1920"
     inkscape:window-height="1017"
     inkscape:window-x="1912"
     inkscape:window-y="-8"
     inkscape:window-maximized="1"
     inkscape:current-layer="layer1">
    <inkscape:grid
       type="xygrid"
       id="grid260" />
  </sodipodi:namedview>
  <defs
     id="defs132">
    <linearGradient
       id="linearGradient2281"
       inkscape:swatch="solid">
      <stop
         style="stop-color:#000000;stop-opacity:1;"
         offset="0"
         id="stop2279" />
    </linearGradient>
  </defs>
  <g
     inkscape:label="Calque 1"
     inkscape:groupmode="layer"
     id="layer1">
    <path
       style="display:none;fill:none;stroke:#d9d9d9;stroke-width:5;stroke-linecap:round;stroke-linejoin:round;stroke-dasharray:none;stroke-opacity:1;paint-order:fill markers stroke"
       d="M 77.454,80 H 25.25 c -6.245702,0 -10,-3.979838 -10,-10 V 45.077937 42.869 c 0,-4.714051 5.285949,-10.000028 10,-10.000024 l 23.987,2.4e-5 v -2.755 c 0,-4.714007 5.285592,-10.000239 9.999599,-10.000239 H 77.454 c 4.714102,0 10,5.286137 10,10.000239 V 70 c 0,6.245702 -3.979837,10 -10,10 z"
       id="path2277"
       sodipodi:nodetypes="ssscsscssssss" />
    <path
       style="display:none;fill:none;stroke:#d9d9d9;stroke-width:5;stroke-linecap:round;stroke-linejoin:round;stroke-opacity:1;paint-order:fill markers stroke"
       d="M 49.237,32.869 H 87.454"
       id="path5270"
       sodipodi:nodetypes="cc" />
    <path
       d="m 31.156197,31.619231 c -1.045727,0 -1.893492,0.847763 -1.893492,1.893492 0,1.045727 0.847765,1.893491 1.893492,1.893491 z m 55.266273,9.467456 v 32.189349 h 3.786981 V 41.086687 Z M 80.741997,78.956508 H 19.676908 v 3.786983 H 80.741997 Z M 13.996434,73.276036 V 33.512723 h -3.786983 v 39.763313 z m 0,-39.763313 v -1.656805 h -3.786983 v 1.656805 z m 36.213018,1.893491 H 80.741997 V 31.619231 H 50.209452 Z M 13.996434,31.855918 c 0,-3.137231 2.543243,-5.680473 5.680474,-5.680473 v -3.786983 c -5.228735,0 -9.467457,4.238722 -9.467457,9.467456 z m 5.680474,47.10059 c -3.137231,0 -5.680474,-2.54343 -5.680474,-5.680472 h -3.786983 c 0,5.228874 4.238722,9.467455 9.467457,9.467455 z M 86.42247,73.276036 c 0,3.137042 -2.543437,5.680472 -5.680473,5.680472 v 3.786983 c 5.228878,0 9.467454,-4.238581 9.467454,-9.467455 z M 42.635487,26.175445 c 3.137231,0 5.680473,2.543242 5.680473,5.680473 h 3.786983 c 0,-5.228734 -4.238722,-9.467456 -9.467456,-9.467456 z m 47.573964,14.911242 c 0,-5.228734 -4.238576,-9.467456 -9.467454,-9.467456 v 3.786983 c 3.137036,0 5.680473,2.543242 5.680473,5.680473 z M 19.676908,26.175445 H 31.156197 V 22.388462 H 19.676908 Z m 11.479289,0 h 11.47929 v -3.786983 h -11.47929 z m 19.053255,5.443786 H 31.156197 v 3.786983 h 19.053255 z m -1.893492,0.236687 v 1.656805 h 3.786983 v -1.656805 z"
       fill="#d9d9d9"
       id="path5187"
       style="display:none;stroke-width:0.473373" />
    <path
       d="m 24.2274,40.809878 1.803212,0.643061 c 0.0064,-0.01785 0.01244,-0.03575 0.01828,-0.05375 z m 65.449974,32.545507 1.825416,0.576726 c 0.01438,-0.04595 0.02729,-0.09189 0.03833,-0.138319 z M 49.234793,31.476975 c 0,1.057298 0.857143,1.914442 1.914441,1.914442 1.057299,0 1.914442,-0.857144 1.914442,-1.914442 z M 18.475652,51.23899 c -0.35513,0.995892 0.164259,2.091145 1.160151,2.446464 0.995892,0.35513 2.091097,-0.164641 2.446274,-1.160342 z m 78.8212,-10.266911 1.863706,0.438503 z m 0.03636,-0.329379 1.913966,-0.04102 z m -1.899601,-0.109076 -7.619961,32.383354 3.72742,0.876814 7.619479,-32.38321 z M 82.019606,79.09871 H 20.278864 v 3.828883 H 82.019606 Z M 51.149234,35.066553 h 38.52814 v -3.828884 h -38.52814 z m -25.100339,6.332638 c 0.62875,-1.943397 1.389118,-3.57029 2.360268,-4.688276 0.913427,-1.051555 1.995566,-1.644362 3.476003,-1.644362 v -3.828884 c -2.748803,0 -4.837507,1.201983 -6.366571,2.962264 -1.471345,1.693851 -2.425263,3.895841 -3.112691,6.020632 z M 20.278864,79.09871 c -3.171943,0 -5.743325,-2.571574 -5.743325,-5.743325 h -3.828884 c 0,5.28673 4.285621,9.572208 9.572209,9.572208 z m 67.573084,-6.320051 c -0.693981,2.196822 -1.451624,3.795381 -2.38156,4.833008 -0.850017,0.948606 -1.890516,1.487043 -3.450782,1.487043 v 3.828883 c 2.669205,0 4.73968,-1.017047 6.302341,-2.760624 1.482258,-1.654557 2.438994,-3.884881 3.180843,-6.234858 z M 43.491468,25.73365 c 3.171943,0 5.743325,2.571383 5.743325,5.743325 h 3.828883 c 0,-5.286586 -4.285621,-9.572208 -9.572208,-9.572208 z m 55.755719,14.868033 c -0.111036,-5.190914 -4.352961,-9.364014 -9.569813,-9.364014 v 3.828884 c 3.129626,0 5.675361,2.503899 5.74189,5.617115 z M 31.885166,25.73365 H 43.491468 V 21.904767 H 31.885166 Z m 19.264068,5.504019 H 31.885166 v 3.828884 h 19.264068 z m -36.613695,0.239306 c 0,-3.171942 2.571382,-5.743325 5.743325,-5.743325 v -3.828883 c -5.286588,0 -9.572209,4.285622 -9.572209,9.572208 z M 20.278864,25.73365 H 31.885166 V 21.904767 H 20.278864 Z m -9.572209,5.743325 v 41.87841 h 3.828884 V 31.476975 Z M 22.082077,52.525112 26.030612,41.452939 22.424187,40.166817 18.475652,51.23899 Z m 77.078481,-11.11453 c 0.05744,-0.244953 0.09282,-0.517665 0.08661,-0.808899 l -3.827923,0.08199 c -9.85e-4,-0.06983 0.0069,-0.120657 0.01439,-0.150044 z"
       fill="#d9d9d9"
       id="path5774"
       style="display:none;stroke-width:0.478611" />
    <path
       style="fill:none;stroke:#d9d9d9;stroke-width:5;stroke-linecap:round;stroke-linejoin:round;stroke-dasharray:none;stroke-opacity:1;paint-order:fill markers stroke"
       d="m 44.713612,27.877877 v -2.974408 c 0,-7.559955 -7.294688,-7.559955 -7.294688,-7.559955 H 11.229791 c -8.7297083,0 -8.7297083,9.047159 -8.7297083,9.047159 v 48.210205 c 0,7.436021 7.7730283,8.05569 7.7730283,8.05569 H 40 M 94.627007,45 96.565771,37.668638 C 98.39867,28.8413 89.255881,28.125744 89.255881,28.125744 H 24.025395 c 0,0 -4.885741,1.206318 -6.746049,5.588037 -1.860305,4.381718 -5.750039,15.511281 -5.750039,15.511281"
       id="path5390"
       sodipodi:nodetypes="ccccscscccscsc" />
    <path
       fill="currentColor"
       d="m 65.654617,94.074586 c -0.87646,0 -1.701162,-0.339991 -2.321872,-0.958626 L 44.475064,74.258972 c -1.27598,-1.282202 -1.27598,-3.367593 -0.0028,-4.647028 l 6.907986,-6.906601 c 0.426522,-0.42648 1.0811,-0.528089 1.617439,-0.248103 0.53435,0.27925 0.825999,0.87365 0.721022,1.467403 -0.07051,0.395416 -0.102339,0.712684 -0.102339,0.998802 0,3.024059 2.461411,5.53597 5.48685,5.53597 3.028206,0 5.239397,-2.511869 5.239397,-5.535926 0,-3.028206 -2.211191,-5.490308 -5.239397,-5.490308 -0.283398,0 -0.599195,0.03244 -0.994612,0.102294 -0.599281,0.110593 -1.188195,-0.186627 -1.467446,-0.720978 -0.27925,-0.535692 -0.178333,-1.190961 0.248146,-1.61744 l 6.440725,-6.442106 c 1.24764,-1.242112 3.404917,-1.239347 4.646982,-0.0028 l 4.715458,4.718221 c 0.984288,-3.059308 3.856972,-5.28022 7.237694,-5.28022 4.191561,0 7.602046,3.411829 7.602046,7.604685 0,3.380725 -2.219525,6.253406 -5.280216,7.236312 l 4.580669,4.577905 c 1.278742,1.282201 1.278742,3.367591 0.0014,4.648453 l -18.854891,18.85565 c -0.623433,0.6214 -1.448093,0.961477 -2.324508,0.961477 z M 51.091402,66.903771 46.429817,71.563932 c -0.201143,0.202524 -0.201143,0.537115 0.0028,0.742405 l 18.85146,18.85215 c 0.264734,0.261971 0.472833,0.264778 0.742406,-0.0028 L 84.877216,72.303573 c 0.202568,-0.203908 0.202568,-0.535691 -0.0014,-0.740938 l -6.648781,-6.644634 c -0.41611,-0.416109 -0.523939,-1.050643 -0.267544,-1.579422 0.256399,-0.528777 0.814251,-0.842631 1.405238,-0.770703 l 0.210821,0.02691 c 0.116123,0.01595 0.23229,0.03529 0.353944,0.03529 2.667392,0 4.83711,-2.16838 4.83711,-4.834348 0,-2.668816 -2.169718,-4.839875 -4.83711,-4.839875 -2.66601,0 -4.835728,2.171101 -4.835728,4.839875 0,0.110594 0.01727,0.218425 0.03248,0.326902 l 0.02973,0.246764 a 1.382556,1.382556 0 0 1 -0.778911,1.394868 c -0.525364,0.25091 -1.158516,0.14308 -1.572553,-0.270307 l -6.780111,-6.783569 c -0.264734,-0.261969 -0.472789,-0.264778 -0.742406,0.0028 l -4.195663,4.195664 c 3.597764,0.890974 6.021159,4.145898 6.021159,8.015309 0,4.549566 -3.452612,8.300089 -8.004942,8.300089 -3.868029,-6.91e-4 -7.12157,-2.725455 -8.011119,-6.320455 z"
       id="path90962"
       style="fill:#0288d1;fill-opacity:1;stroke:#0288d1;stroke-width:1.93277;stroke-dasharray:none;stroke-opacity:1" />
  </g>
</svg>
