<?xml version="1.0" encoding="UTF-8" standalone="no"?>
<!-- Created with Inkscape (http://www.inkscape.org/) -->

<svg
   width="100.0px"
   height="100.0px"
   viewBox="0 0 100.0 100.0"
   version="1.1"
   id="SVGRoot"
   sodipodi:docname="folder_config.svg"
   inkscape:version="1.2.1 (9c6d41e4, 2022-07-14)"
   xmlns:inkscape="http://www.inkscape.org/namespaces/inkscape"
   xmlns:sodipodi="http://sodipodi.sourceforge.net/DTD/sodipodi-0.dtd"
   xmlns="http://www.w3.org/2000/svg"
   xmlns:svg="http://www.w3.org/2000/svg">
  <sodipodi:namedview
     id="namedview137"
     pagecolor="#676a5f"
     bordercolor="#000000"
     borderopacity="0.25"
     inkscape:showpageshadow="2"
     inkscape:pageopacity="0"
     inkscape:pagecheckerboard="true"
     inkscape:deskcolor="#d1d1d1"
     inkscape:document-units="px"
     showgrid="true"
     inkscape:zoom="4.6086807"
     inkscape:cx="55.981314"
     inkscape:cy="59.236041"
     inkscape:window-width="1309"
     inkscape:window-height="696"
     inkscape:window-x="21"
     inkscape:window-y="25"
     inkscape:window-maximized="0"
     inkscape:current-layer="layer1">
    <inkscape:grid
       type="xygrid"
       id="grid260" />
  </sodipodi:namedview>
  <defs
     id="defs132">
    <linearGradient
       id="linearGradient2281"
       inkscape:swatch="solid">
      <stop
         style="stop-color:#000000;stop-opacity:1;"
         offset="0"
         id="stop2279" />
    </linearGradient>
  </defs>
  <g
     inkscape:label="Calque 1"
     inkscape:groupmode="layer"
     id="layer1">
    <path
       style="display:none;fill:none;stroke:#d9d9d9;stroke-width:5;stroke-linecap:round;stroke-linejoin:round;stroke-dasharray:none;stroke-opacity:1;paint-order:fill markers stroke"
       d="M 77.454,80 H 25.25 c -6.245702,0 -10,-3.979838 -10,-10 V 45.077937 42.869 c 0,-4.714051 5.285949,-10.000028 10,-10.000024 l 23.987,2.4e-5 v -2.755 c 0,-4.714007 5.285592,-10.000239 9.999599,-10.000239 H 77.454 c 4.714102,0 10,5.286137 10,10.000239 V 70 c 0,6.245702 -3.979837,10 -10,10 z"
       id="path2277"
       sodipodi:nodetypes="ssscsscssssss" />
    <path
       style="display:none;fill:none;stroke:#d9d9d9;stroke-width:5;stroke-linecap:round;stroke-linejoin:round;stroke-opacity:1;paint-order:fill markers stroke"
       d="M 49.237,32.869 H 87.454"
       id="path5270"
       sodipodi:nodetypes="cc" />
    <path
       d="m 31.156197,31.619231 c -1.045727,0 -1.893492,0.847763 -1.893492,1.893492 0,1.045727 0.847765,1.893491 1.893492,1.893491 z m 55.266273,9.467456 v 32.189349 h 3.786981 V 41.086687 Z M 80.741997,78.956508 H 19.676908 v 3.786983 H 80.741997 Z M 13.996434,73.276036 V 33.512723 h -3.786983 v 39.763313 z m 0,-39.763313 v -1.656805 h -3.786983 v 1.656805 z m 36.213018,1.893491 H 80.741997 V 31.619231 H 50.209452 Z M 13.996434,31.855918 c 0,-3.137231 2.543243,-5.680473 5.680474,-5.680473 v -3.786983 c -5.228735,0 -9.467457,4.238722 -9.467457,9.467456 z m 5.680474,47.10059 c -3.137231,0 -5.680474,-2.54343 -5.680474,-5.680472 h -3.786983 c 0,5.228874 4.238722,9.467455 9.467457,9.467455 z M 86.42247,73.276036 c 0,3.137042 -2.543437,5.680472 -5.680473,5.680472 v 3.786983 c 5.228878,0 9.467454,-4.238581 9.467454,-9.467455 z M 42.635487,26.175445 c 3.137231,0 5.680473,2.543242 5.680473,5.680473 h 3.786983 c 0,-5.228734 -4.238722,-9.467456 -9.467456,-9.467456 z m 47.573964,14.911242 c 0,-5.228734 -4.238576,-9.467456 -9.467454,-9.467456 v 3.786983 c 3.137036,0 5.680473,2.543242 5.680473,5.680473 z M 19.676908,26.175445 H 31.156197 V 22.388462 H 19.676908 Z m 11.479289,0 h 11.47929 v -3.786983 h -11.47929 z m 19.053255,5.443786 H 31.156197 v 3.786983 h 19.053255 z m -1.893492,0.236687 v 1.656805 h 3.786983 v -1.656805 z"
       fill="#d9d9d9"
       id="path5187"
       style="display:none;stroke-width:0.473373" />
    <path
       style="fill:none;stroke:#d9d9d9;stroke-width:5;stroke-linecap:round;stroke-linejoin:round;stroke-dasharray:none;stroke-opacity:1;paint-order:fill markers stroke"
       d="m 24.023123,28.126014 h 54.285891 c 0,0 9.207079,0.247865 9.207079,9.542778 V 45 M 40,82.656166 H 10.272291 c 0,0 -7.7722083,-0.61966 -7.7722083,-8.05559 V 26.390965 c 0,0 0,-9.047049 8.7287883,-9.047049 h 26.186366 c 0,0 7.293919,0 7.293919,7.559862 v 2.974372"
       id="path5390"
       sodipodi:nodetypes="ccscccscscsc" />
    <path
       fill="currentColor"
       d="M 95.031297,79.97227 83.90564,68.871228 a 16.860786,16.860786 0 0 0 0.344601,-3.446 18.879157,18.879157 0 0 0 -26.854188,-17.106929 2.4614287,2.4614287 0 0 0 -1.403013,1.821455 2.4614287,2.4614287 0 0 0 0.689199,2.166059 l 10.707214,10.6826 -4.430571,4.430572 L 52.276283,56.71177 a 2.4614287,2.4614287 0 0 0 -2.166059,-0.664586 2.4614287,2.4614287 0 0 0 -1.821455,1.378401 18.879157,18.879157 0 0 0 17.23,26.854186 16.860786,16.860786 0 0 0 3.445999,-0.344602 l 11.101042,11.12566 a 2.4614287,2.4614287 0 0 0 3.495231,0 2.4614287,2.4614287 0 0 0 0,-3.495229 l -12.061,-12.061002 a 2.4614287,2.4614287 0 0 0 -2.338359,-0.63997 14.473201,14.473201 0 0 1 -3.642913,0.492285 13.956301,13.956301 0 0 1 -14.079373,-13.931685 14.768572,14.768572 0 0 1 0.196915,-2.461429 l 9.6488,9.673415 a 2.4614287,2.4614287 0 0 0 3.495228,0 l 7.827345,-7.901186 a 2.4614287,2.4614287 0 0 0 0,-3.421388 l -9.574959,-9.648798 a 15.063944,15.063944 0 0 1 2.461429,-0.196915 13.956301,13.956301 0 0 1 13.931686,13.956301 14.473201,14.473201 0 0 1 -0.492286,3.642913 2.4614287,2.4614287 0 0 0 0.639971,2.338358 l 12.061001,12.061 a 2.4714999,2.4714999 0 0 0 3.495228,-3.495229 z"
       id="path9440"
       style="stroke-width:2.46142;fill:#7cb342;fill-opacity:1" />
  </g>
</svg>
