<?xml version="1.0" encoding="UTF-8" standalone="no"?>
<!-- Created with Inkscape (http://www.inkscape.org/) -->

<svg
   width="100.0px"
   height="100.0px"
   viewBox="0 0 100.0 100.0"
   version="1.1"
   id="SVGRoot"
   sodipodi:docname="folder_composables.svg"
   inkscape:version="1.2.1 (9c6d41e410, 2022-07-14)"
   xmlns:inkscape="http://www.inkscape.org/namespaces/inkscape"
   xmlns:sodipodi="http://sodipodi.sourceforge.net/DTD/sodipodi-0.dtd"
   xmlns="http://www.w3.org/2000/svg"
   xmlns:svg="http://www.w3.org/2000/svg">
  <sodipodi:namedview
     id="namedview137"
     pagecolor="#676a5f"
     bordercolor="#000000"
     borderopacity="0.25"
     inkscape:showpageshadow="2"
     inkscape:pageopacity="0"
     inkscape:pagecheckerboard="true"
     inkscape:deskcolor="#d1d1d1"
     inkscape:document-units="px"
     showgrid="true"
     inkscape:zoom="4.6086807"
     inkscape:cx="86.575753"
     inkscape:cy="76.052134"
     inkscape:window-width="1309"
     inkscape:window-height="718"
     inkscape:window-x="2098"
     inkscape:window-y="41"
     inkscape:window-maximized="0"
     inkscape:current-layer="layer1">
    <inkscape:grid
       type="xygrid"
       id="grid260" />
  </sodipodi:namedview>
  <defs
     id="defs132">
    <linearGradient
       id="linearGradient2281"
       inkscape:swatch="solid">
      <stop
         style="stop-color:#000000;stop-opacity:1;"
         offset="0"
         id="stop2279" />
    </linearGradient>
  </defs>
  <g
     inkscape:label="Calque 1"
     inkscape:groupmode="layer"
     id="layer1">
    <path
       style="display:none;fill:none;stroke:#d9d9d9;stroke-width:5;stroke-linecap:round;stroke-linejoin:round;stroke-dasharray:none;stroke-opacity:1;paint-order:fill markers stroke"
       d="M 77.454,80 H 25.25 c -6.245702,0 -10,-3.979838 -10,-10 V 45.077937 42.869 c 0,-4.714051 5.285949,-10.000028 10,-10.000024 l 23.987,2.4e-5 v -2.755 c 0,-4.714007 5.285592,-10.000239 9.999599,-10.000239 H 77.454 c 4.714102,0 10,5.286137 10,10.000239 V 70 c 0,6.245702 -3.979837,10 -10,10 z"
       id="path2277"
       sodipodi:nodetypes="ssscsscssssss" />
    <path
       style="display:none;fill:none;stroke:#d9d9d9;stroke-width:5;stroke-linecap:round;stroke-linejoin:round;stroke-opacity:1;paint-order:fill markers stroke"
       d="M 49.237,32.869 H 87.454"
       id="path5270"
       sodipodi:nodetypes="cc" />
    <path
       d="m 31.156197,31.619231 c -1.045727,0 -1.893492,0.847763 -1.893492,1.893492 0,1.045727 0.847765,1.893491 1.893492,1.893491 z m 55.266273,9.467456 v 32.189349 h 3.786981 V 41.086687 Z M 80.741997,78.956508 H 19.676908 v 3.786983 H 80.741997 Z M 13.996434,73.276036 V 33.512723 h -3.786983 v 39.763313 z m 0,-39.763313 v -1.656805 h -3.786983 v 1.656805 z m 36.213018,1.893491 H 80.741997 V 31.619231 H 50.209452 Z M 13.996434,31.855918 c 0,-3.137231 2.543243,-5.680473 5.680474,-5.680473 v -3.786983 c -5.228735,0 -9.467457,4.238722 -9.467457,9.467456 z m 5.680474,47.10059 c -3.137231,0 -5.680474,-2.54343 -5.680474,-5.680472 h -3.786983 c 0,5.228874 4.238722,9.467455 9.467457,9.467455 z M 86.42247,73.276036 c 0,3.137042 -2.543437,5.680472 -5.680473,5.680472 v 3.786983 c 5.228878,0 9.467454,-4.238581 9.467454,-9.467455 z M 42.635487,26.175445 c 3.137231,0 5.680473,2.543242 5.680473,5.680473 h 3.786983 c 0,-5.228734 -4.238722,-9.467456 -9.467456,-9.467456 z m 47.573964,14.911242 c 0,-5.228734 -4.238576,-9.467456 -9.467454,-9.467456 v 3.786983 c 3.137036,0 5.680473,2.543242 5.680473,5.680473 z M 19.676908,26.175445 H 31.156197 V 22.388462 H 19.676908 Z m 11.479289,0 h 11.47929 v -3.786983 h -11.47929 z m 19.053255,5.443786 H 31.156197 v 3.786983 h 19.053255 z m -1.893492,0.236687 v 1.656805 h 3.786983 v -1.656805 z"
       fill="#d9d9d9"
       id="path5187"
       style="display:none;stroke-width:0.473373" />
    <path
       style="fill:none;stroke:#d9d9d9;stroke-width:5;stroke-linecap:round;stroke-linejoin:round;stroke-dasharray:none;stroke-opacity:1;paint-order:fill markers stroke"
       d="m 24.023123,28.126014 h 54.285891 c 0,0 9.207079,0.247865 9.207079,9.542778 V 45 M 40,82.656166 H 10.272291 c 0,0 -7.7722083,-0.61966 -7.7722083,-8.05559 V 26.390965 c 0,0 0,-9.047049 8.7287883,-9.047049 h 26.186366 c 0,0 7.293919,0 7.293919,7.559862 v 2.974372"
       id="path5390"
       sodipodi:nodetypes="ccscccscscsc" />
    <path
       style="display:none;fill:none;stroke:#bf4646;stroke-width:5;stroke-linecap:round;stroke-linejoin:round;stroke-dasharray:none;stroke-opacity:1;paint-order:fill markers stroke"
       d="M 49.66043,64.745311 V 77.992329 H 76.377237 V 89.127505 L 91.853436,70.888855 76.540144,52.842192 v 11.903119 z"
       id="path62004" />
    <path
       fill="currentColor"
       d="m 68.120789,53.141436 c 1.438332,-2.563909 5.127818,-2.563909 6.566149,0 l 4.358478,7.778695 -2.677637,-0.473311 a 2.0908552,2.0908552 0 1 0 -0.729201,4.117641 l 7.108032,1.254359 a 2.0905976,2.0905976 0 0 0 2.348159,-1.396519 l 2.090598,-6.271793 a 2.0909429,2.0909429 0 0 0 -3.967118,-1.32293 l -0.623834,1.873175 -4.259802,-7.603085 c -3.033875,-5.413812 -10.827623,-5.413812 -13.861498,0 l -3.687814,6.581201 a 2.0905976,2.0905976 0 1 0 3.646002,2.043768 z m 20.150016,15.691189 a 2.0905976,2.0905976 0 0 0 -3.646002,2.043768 l 5.524195,9.860931 c 1.404882,2.508717 -0.408085,5.602802 -3.283074,5.602802 H 76.284155 l 1.324602,-1.588855 A 2.0905976,2.0905976 0 0 0 74.3976,82.073634 l -4.181196,5.017434 a 2.0905976,2.0905976 0 0 0 0,2.675965 l 4.181196,5.017434 a 2.0905976,2.0905976 0 0 0 3.211157,-2.675965 L 76.2875,90.521321 h 10.578424 c 6.071095,0 9.897725,-6.531027 6.930749,-11.827765 z M 64.292487,86.340126 h -8.354028 c -2.876662,0 -4.687956,-3.094085 -3.283074,-5.602802 l 5.933952,-10.586786 1.353035,2.538822 a 2.0905976,2.0905976 0 0 0 3.689486,-1.966835 l -3.344956,-6.271792 a 2.0905976,2.0905976 0 0 0 -2.187601,-1.078749 l -7.526151,1.254359 a 2.0905976,2.0905976 0 1 0 0.685716,4.124331 l 3.662727,-0.610455 -5.913883,10.553337 c -2.966976,5.295065 0.859654,11.827765 6.930749,11.827765 h 8.354028 a 2.0905976,2.0905976 0 1 0 0,-4.181195 z"
       id="path94815"
       style="stroke-width:1;stroke:#7e57c2;stroke-opacity:1;stroke-dasharray:none;fill:#7e57c2;fill-opacity:1" />
  </g>
</svg>
