<?xml version="1.0" encoding="UTF-8" standalone="no"?>
<!-- Created with Inkscape (http://www.inkscape.org/) -->

<svg
   width="100.0px"
   height="100.0px"
   viewBox="0 0 100.0 100.0"
   version="1.1"
   id="SVGRoot"
   sodipodi:docname="folder_examples.svg"
   inkscape:version="1.2.1 (9c6d41e410, 2022-07-14)"
   xmlns:inkscape="http://www.inkscape.org/namespaces/inkscape"
   xmlns:sodipodi="http://sodipodi.sourceforge.net/DTD/sodipodi-0.dtd"
   xmlns="http://www.w3.org/2000/svg"
   xmlns:svg="http://www.w3.org/2000/svg">
  <sodipodi:namedview
     id="namedview137"
     pagecolor="#161849"
     bordercolor="#000000"
     borderopacity="0.25"
     inkscape:showpageshadow="2"
     inkscape:pageopacity="0"
     inkscape:pagecheckerboard="true"
     inkscape:deskcolor="#d1d1d1"
     inkscape:document-units="px"
     showgrid="true"
     inkscape:zoom="6.6"
     inkscape:cx="23.257576"
     inkscape:cy="37.878788"
     inkscape:window-width="1920"
     inkscape:window-height="1017"
     inkscape:window-x="1912"
     inkscape:window-y="-8"
     inkscape:window-maximized="1"
     inkscape:current-layer="layer1"
     inkscape:lockguides="true">
    <inkscape:grid
       type="xygrid"
       id="grid260" />
  </sodipodi:namedview>
  <defs
     id="defs132">
    <linearGradient
       id="linearGradient2281"
       inkscape:swatch="solid">
      <stop
         style="stop-color:#000000;stop-opacity:1;"
         offset="0"
         id="stop2279" />
    </linearGradient>
  </defs>
  <g
     inkscape:label="Calque 1"
     inkscape:groupmode="layer"
     id="layer1">
    <path
       style="display:none;fill:none;stroke:#d9d9d9;stroke-width:5;stroke-linecap:round;stroke-linejoin:round;stroke-dasharray:none;stroke-opacity:1;paint-order:fill markers stroke"
       d="M 77.454,80 H 25.25 c -6.245702,0 -10,-3.979838 -10,-10 V 45.077937 42.869 c 0,-4.714051 5.285949,-10.000028 10,-10.000024 l 23.987,2.4e-5 v -2.755 c 0,-4.714007 5.285592,-10.000239 9.999599,-10.000239 H 77.454 c 4.714102,0 10,5.286137 10,10.000239 V 70 c 0,6.245702 -3.979837,10 -10,10 z"
       id="path2277"
       sodipodi:nodetypes="ssscsscssssss" />
    <path
       style="display:none;fill:none;stroke:#d9d9d9;stroke-width:5;stroke-linecap:round;stroke-linejoin:round;stroke-opacity:1;paint-order:fill markers stroke"
       d="M 49.237,32.869 H 87.454"
       id="path5270"
       sodipodi:nodetypes="cc" />
    <path
       d="m 31.156197,31.619231 c -1.045727,0 -1.893492,0.847763 -1.893492,1.893492 0,1.045727 0.847765,1.893491 1.893492,1.893491 z m 55.266273,9.467456 v 32.189349 h 3.786981 V 41.086687 Z M 80.741997,78.956508 H 19.676908 v 3.786983 H 80.741997 Z M 13.996434,73.276036 V 33.512723 h -3.786983 v 39.763313 z m 0,-39.763313 v -1.656805 h -3.786983 v 1.656805 z m 36.213018,1.893491 H 80.741997 V 31.619231 H 50.209452 Z M 13.996434,31.855918 c 0,-3.137231 2.543243,-5.680473 5.680474,-5.680473 v -3.786983 c -5.228735,0 -9.467457,4.238722 -9.467457,9.467456 z m 5.680474,47.10059 c -3.137231,0 -5.680474,-2.54343 -5.680474,-5.680472 h -3.786983 c 0,5.228874 4.238722,9.467455 9.467457,9.467455 z M 86.42247,73.276036 c 0,3.137042 -2.543437,5.680472 -5.680473,5.680472 v 3.786983 c 5.228878,0 9.467454,-4.238581 9.467454,-9.467455 z M 42.635487,26.175445 c 3.137231,0 5.680473,2.543242 5.680473,5.680473 h 3.786983 c 0,-5.228734 -4.238722,-9.467456 -9.467456,-9.467456 z m 47.573964,14.911242 c 0,-5.228734 -4.238576,-9.467456 -9.467454,-9.467456 v 3.786983 c 3.137036,0 5.680473,2.543242 5.680473,5.680473 z M 19.676908,26.175445 H 31.156197 V 22.388462 H 19.676908 Z m 11.479289,0 h 11.47929 v -3.786983 h -11.47929 z m 19.053255,5.443786 H 31.156197 v 3.786983 h 19.053255 z m -1.893492,0.236687 v 1.656805 h 3.786983 v -1.656805 z"
       fill="#d9d9d9"
       id="path5187"
       style="display:none;stroke-width:0.473373" />
    <path
       style="fill:none;stroke:#d9d9d9;stroke-width:5;stroke-linecap:round;stroke-linejoin:round;stroke-dasharray:none;stroke-opacity:1;paint-order:fill markers stroke"
       d="m 24.023123,28.126014 h 54.285891 c 0,0 9.207079,0.247865 9.207079,9.542778 V 45 M 40,82.656166 H 10.272291 c 0,0 -7.7722083,-0.61966 -7.7722083,-8.05559 V 26.390965 c 0,0 0,-9.047049 8.7287883,-9.047049 h 26.186366 c 0,0 7.293919,0 7.293919,7.559862 v 2.974372"
       id="path5390"
       sodipodi:nodetypes="ccscccscscsc" />
    <path
       sodipodi:type="star"
       style="display:none;fill:none;stroke:#336633;stroke-width:5.06036;stroke-linecap:round;stroke-linejoin:round;stroke-dasharray:none;stroke-opacity:1;paint-order:fill markers stroke"
       id="path56793"
       inkscape:flatsided="true"
       sodipodi:sides="6"
       sodipodi:cx="-84.242424"
       sodipodi:cy="-15.151515"
       sodipodi:r1="22.90436"
       sodipodi:r2="19.835758"
       sodipodi:arg1="0.52359878"
       sodipodi:arg2="1.0471976"
       inkscape:rounded="0"
       inkscape:randomized="0"
       d="m -64.406667,-3.699335 -19.835757,11.4521798 -19.835756,-11.45218 0,-22.9043598 19.835756,-11.45218 19.835757,11.45218 z"
       transform="matrix(0.9880717,0,0,0.9880717,154.4867,86.788893)" />
    <path
       d="m 65.449854,47.232613 c -9.006337,0 -16.059615,7.326881 -16.059615,16.333217 0,6.785497 3.332716,10.017067 5.966188,12.376164 1.695465,1.520096 2.836447,2.435502 2.836447,3.563386 v 2.467474 c 0,0.06331 0.0087,0.125159 0.01674,0.187738 h -0.03275 v 4.212465 c 7.28e-4,4.443864 2.874286,7.43021 7.325426,7.43021 4.296147,0 7.228645,-2.986346 7.228645,-7.43021 v -4.21242 h -0.0422 c 0.008,-0.06258 0.01892,-0.124431 0.01892,-0.187738 v -2.467474 c 0,-1.717295 1.274873,-2.755676 3.207557,-4.443136 2.615236,-2.28342 5.594988,-5.12496 5.594988,-11.496414 7.28e-4,-9.006381 -7.054006,-16.333262 -16.060388,-16.333262 z m -0.05526,43.66003 c -2.724386,0 -4.30638,-1.689643 -4.30638,-4.51954 l -0.02106,-1.940689 c 1.047068,0.358012 2.473296,0.638892 4.383422,0.638892 1.883931,0 3.313069,-0.301254 4.369642,-0.671637 v 1.973434 c 0,2.872102 -1.603006,4.51954 -4.425672,4.51954 z m 8.606847,-18.02286 c -1.977072,1.726754 -4.203778,3.511722 -4.203778,6.635597 v 1.838815 c -0.690512,0.385663 -1.963929,0.844094 -4.37178,0.844094 -2.527233,0 -3.725656,-0.448243 -4.321615,-0.794658 v -1.888979 c 0,-2.483528 -1.941416,-4.061156 -3.805699,-5.731152 -2.470431,-2.213563 -4.996936,-4.72256 -4.996936,-10.208443 -6.83e-4,-7.400375 5.747888,-13.421821 13.148218,-13.421821 7.401831,0 13.150401,6.021446 13.150401,13.422594 0,5.049283 -2.204058,7.21191 -4.598856,9.303953 z"
       style="fill:#aeac43;fill-opacity:1;stroke:#aeac43;stroke-width:1.945;stroke-dasharray:none;stroke-opacity:1"
       id="path49073" />
  </g>
</svg>
