<?xml version="1.0" encoding="UTF-8" standalone="no"?>
<!-- Created with Inkscape (http://www.inkscape.org/) -->

<svg
   width="100.0px"
   height="100.0px"
   viewBox="0 0 100.0 100.0"
   version="1.1"
   id="SVGRoot"
   sodipodi:docname="folder_packages_open.svg"
   inkscape:version="1.2.1 (9c6d41e410, 2022-07-14)"
   xmlns:inkscape="http://www.inkscape.org/namespaces/inkscape"
   xmlns:sodipodi="http://sodipodi.sourceforge.net/DTD/sodipodi-0.dtd"
   xmlns="http://www.w3.org/2000/svg"
   xmlns:svg="http://www.w3.org/2000/svg">
  <sodipodi:namedview
     id="namedview137"
     pagecolor="#676a5f"
     bordercolor="#000000"
     borderopacity="0.25"
     inkscape:showpageshadow="2"
     inkscape:pageopacity="0"
     inkscape:pagecheckerboard="true"
     inkscape:deskcolor="#d1d1d1"
     inkscape:document-units="px"
     showgrid="true"
     inkscape:zoom="4.6669048"
     inkscape:cx="24.534462"
     inkscape:cy="68.246517"
     inkscape:window-width="1419"
     inkscape:window-height="1040"
     inkscape:window-x="2320"
     inkscape:window-y="39"
     inkscape:window-maximized="0"
     inkscape:current-layer="layer1">
    <inkscape:grid
       type="xygrid"
       id="grid260" />
  </sodipodi:namedview>
  <defs
     id="defs132">
    <linearGradient
       id="linearGradient2281"
       inkscape:swatch="solid">
      <stop
         style="stop-color:#000000;stop-opacity:1;"
         offset="0"
         id="stop2279" />
    </linearGradient>
  </defs>
  <g
     inkscape:label="Calque 1"
     inkscape:groupmode="layer"
     id="layer1">
    <path
       style="display:none;fill:none;stroke:#d9d9d9;stroke-width:5;stroke-linecap:round;stroke-linejoin:round;stroke-dasharray:none;stroke-opacity:1;paint-order:fill markers stroke"
       d="M 77.454,80 H 25.25 c -6.245702,0 -10,-3.979838 -10,-10 V 45.077937 42.869 c 0,-4.714051 5.285949,-10.000028 10,-10.000024 l 23.987,2.4e-5 v -2.755 c 0,-4.714007 5.285592,-10.000239 9.999599,-10.000239 H 77.454 c 4.714102,0 10,5.286137 10,10.000239 V 70 c 0,6.245702 -3.979837,10 -10,10 z"
       id="path2277"
       sodipodi:nodetypes="ssscsscssssss" />
    <path
       style="display:none;fill:none;stroke:#d9d9d9;stroke-width:5;stroke-linecap:round;stroke-linejoin:round;stroke-opacity:1;paint-order:fill markers stroke"
       d="M 49.237,32.869 H 87.454"
       id="path5270"
       sodipodi:nodetypes="cc" />
    <path
       d="m 31.156197,31.619231 c -1.045727,0 -1.893492,0.847763 -1.893492,1.893492 0,1.045727 0.847765,1.893491 1.893492,1.893491 z m 55.266273,9.467456 v 32.189349 h 3.786981 V 41.086687 Z M 80.741997,78.956508 H 19.676908 v 3.786983 H 80.741997 Z M 13.996434,73.276036 V 33.512723 h -3.786983 v 39.763313 z m 0,-39.763313 v -1.656805 h -3.786983 v 1.656805 z m 36.213018,1.893491 H 80.741997 V 31.619231 H 50.209452 Z M 13.996434,31.855918 c 0,-3.137231 2.543243,-5.680473 5.680474,-5.680473 v -3.786983 c -5.228735,0 -9.467457,4.238722 -9.467457,9.467456 z m 5.680474,47.10059 c -3.137231,0 -5.680474,-2.54343 -5.680474,-5.680472 h -3.786983 c 0,5.228874 4.238722,9.467455 9.467457,9.467455 z M 86.42247,73.276036 c 0,3.137042 -2.543437,5.680472 -5.680473,5.680472 v 3.786983 c 5.228878,0 9.467454,-4.238581 9.467454,-9.467455 z M 42.635487,26.175445 c 3.137231,0 5.680473,2.543242 5.680473,5.680473 h 3.786983 c 0,-5.228734 -4.238722,-9.467456 -9.467456,-9.467456 z m 47.573964,14.911242 c 0,-5.228734 -4.238576,-9.467456 -9.467454,-9.467456 v 3.786983 c 3.137036,0 5.680473,2.543242 5.680473,5.680473 z M 19.676908,26.175445 H 31.156197 V 22.388462 H 19.676908 Z m 11.479289,0 h 11.47929 v -3.786983 h -11.47929 z m 19.053255,5.443786 H 31.156197 v 3.786983 h 19.053255 z m -1.893492,0.236687 v 1.656805 h 3.786983 v -1.656805 z"
       fill="#d9d9d9"
       id="path5187"
       style="display:none;stroke-width:0.473373" />
    <path
       d="m 24.2274,40.809878 1.803212,0.643061 c 0.0064,-0.01785 0.01244,-0.03575 0.01828,-0.05375 z m 65.449974,32.545507 1.825416,0.576726 c 0.01438,-0.04595 0.02729,-0.09189 0.03833,-0.138319 z M 49.234793,31.476975 c 0,1.057298 0.857143,1.914442 1.914441,1.914442 1.057299,0 1.914442,-0.857144 1.914442,-1.914442 z M 18.475652,51.23899 c -0.35513,0.995892 0.164259,2.091145 1.160151,2.446464 0.995892,0.35513 2.091097,-0.164641 2.446274,-1.160342 z m 78.8212,-10.266911 1.863706,0.438503 z m 0.03636,-0.329379 1.913966,-0.04102 z m -1.899601,-0.109076 -7.619961,32.383354 3.72742,0.876814 7.619479,-32.38321 z M 82.019606,79.09871 H 20.278864 v 3.828883 H 82.019606 Z M 51.149234,35.066553 h 38.52814 v -3.828884 h -38.52814 z m -25.100339,6.332638 c 0.62875,-1.943397 1.389118,-3.57029 2.360268,-4.688276 0.913427,-1.051555 1.995566,-1.644362 3.476003,-1.644362 v -3.828884 c -2.748803,0 -4.837507,1.201983 -6.366571,2.962264 -1.471345,1.693851 -2.425263,3.895841 -3.112691,6.020632 z M 20.278864,79.09871 c -3.171943,0 -5.743325,-2.571574 -5.743325,-5.743325 h -3.828884 c 0,5.28673 4.285621,9.572208 9.572209,9.572208 z m 67.573084,-6.320051 c -0.693981,2.196822 -1.451624,3.795381 -2.38156,4.833008 -0.850017,0.948606 -1.890516,1.487043 -3.450782,1.487043 v 3.828883 c 2.669205,0 4.73968,-1.017047 6.302341,-2.760624 1.482258,-1.654557 2.438994,-3.884881 3.180843,-6.234858 z M 43.491468,25.73365 c 3.171943,0 5.743325,2.571383 5.743325,5.743325 h 3.828883 c 0,-5.286586 -4.285621,-9.572208 -9.572208,-9.572208 z m 55.755719,14.868033 c -0.111036,-5.190914 -4.352961,-9.364014 -9.569813,-9.364014 v 3.828884 c 3.129626,0 5.675361,2.503899 5.74189,5.617115 z M 31.885166,25.73365 H 43.491468 V 21.904767 H 31.885166 Z m 19.264068,5.504019 H 31.885166 v 3.828884 h 19.264068 z m -36.613695,0.239306 c 0,-3.171942 2.571382,-5.743325 5.743325,-5.743325 v -3.828883 c -5.286588,0 -9.572209,4.285622 -9.572209,9.572208 z M 20.278864,25.73365 H 31.885166 V 21.904767 H 20.278864 Z m -9.572209,5.743325 v 41.87841 h 3.828884 V 31.476975 Z M 22.082077,52.525112 26.030612,41.452939 22.424187,40.166817 18.475652,51.23899 Z m 77.078481,-11.11453 c 0.05744,-0.244953 0.09282,-0.517665 0.08661,-0.808899 l -3.827923,0.08199 c -9.85e-4,-0.06983 0.0069,-0.120657 0.01439,-0.150044 z"
       fill="#d9d9d9"
       id="path5774"
       style="display:none;stroke-width:0.478611" />
    <path
       style="fill:none;stroke:#d9d9d9;stroke-width:5;stroke-linecap:round;stroke-linejoin:round;stroke-dasharray:none;stroke-opacity:1;paint-order:fill markers stroke"
       d="m 44.713612,27.877877 v -2.974408 c 0,-7.559955 -7.294688,-7.559955 -7.294688,-7.559955 H 11.229791 c -8.7297083,0 -8.7297083,9.047159 -8.7297083,9.047159 v 48.210205 c 0,7.436021 7.7730283,8.05569 7.7730283,8.05569 H 40 M 94.627007,45 96.565771,37.668638 C 98.39867,28.8413 89.255881,28.125744 89.255881,28.125744 H 24.025395 c 0,0 -4.885741,1.206318 -6.746049,5.588037 -1.860305,4.381718 -5.750039,15.511281 -5.750039,15.511281"
       id="path5390"
       sodipodi:nodetypes="ccccscscccscsc" />
    <path
       style="display:inline;fill:none;fill-opacity:1;stroke:#e5aa6e;stroke-width:2.65981;stroke-linecap:round;stroke-linejoin:round;stroke-dasharray:none;stroke-opacity:1;paint-order:fill markers stroke"
       d="M 90.763479,56.228091 V 81.064029 L 69.302959,93.464224 47.806905,81.064029 V 56.299148 l 21.531584,-12.471264 10.71254,6.200103 z"
       id="path30315"
       sodipodi:nodetypes="cccccccc" />
    <path
       style="fill:none;fill-opacity:1;stroke:#e5aa6e;stroke-width:2.65981;stroke-linecap:round;stroke-linejoin:round;stroke-dasharray:none;stroke-opacity:1;paint-order:fill markers stroke"
       d="M 48.5155,56.698147 58.900237,62.6721 69.285199,68.646053"
       id="path30317"
       sodipodi:nodetypes="ccc" />
    <path
       style="fill:none;fill-opacity:1;stroke:#e5aa6e;stroke-width:2.65981;stroke-linecap:round;stroke-linejoin:round;stroke-dasharray:none;stroke-opacity:1;paint-order:fill markers stroke"
       d="M 89.919819,56.647897 69.306099,68.549233 V 92.776171"
       id="path30321" />
    <path
       style="fill:none;stroke:#e5aa6e;stroke-width:2.65981;stroke-linecap:round;stroke-linejoin:round;stroke-opacity:1;paint-order:fill markers stroke"
       d="M 79.924429,50.027401 58.91194,62.672126 v 8.447951"
       id="path18424"
       sodipodi:nodetypes="ccc" />
  </g>
</svg>
