<?xml version="1.0" encoding="UTF-8" standalone="no"?>
<!-- Created with Inkscape (http://www.inkscape.org/) -->

<svg
   width="100.0px"
   height="100.0px"
   viewBox="0 0 100.0 100.0"
   version="1.1"
   id="SVGRoot"
   sodipodi:docname="folder_github_open.svg"
   inkscape:version="1.2.1 (9c6d41e410, 2022-07-14)"
   xmlns:inkscape="http://www.inkscape.org/namespaces/inkscape"
   xmlns:sodipodi="http://sodipodi.sourceforge.net/DTD/sodipodi-0.dtd"
   xmlns="http://www.w3.org/2000/svg"
   xmlns:svg="http://www.w3.org/2000/svg">
  <sodipodi:namedview
     id="namedview137"
     pagecolor="#161849"
     bordercolor="#000000"
     borderopacity="0.25"
     inkscape:showpageshadow="2"
     inkscape:pageopacity="0"
     inkscape:pagecheckerboard="true"
     inkscape:deskcolor="#d1d1d1"
     inkscape:document-units="px"
     showgrid="true"
     inkscape:zoom="4.6669048"
     inkscape:cx="57.639916"
     inkscape:cy="44.676292"
     inkscape:window-width="1419"
     inkscape:window-height="1040"
     inkscape:window-x="391"
     inkscape:window-y="0"
     inkscape:window-maximized="0"
     inkscape:current-layer="layer1">
    <inkscape:grid
       type="xygrid"
       id="grid260" />
  </sodipodi:namedview>
  <defs
     id="defs132">
    <linearGradient
       id="linearGradient2281"
       inkscape:swatch="solid">
      <stop
         style="stop-color:#000000;stop-opacity:1;"
         offset="0"
         id="stop2279" />
    </linearGradient>
  </defs>
  <g
     inkscape:label="Calque 1"
     inkscape:groupmode="layer"
     id="layer1">
    <path
       style="display:none;fill:none;stroke:#d9d9d9;stroke-width:5;stroke-linecap:round;stroke-linejoin:round;stroke-dasharray:none;stroke-opacity:1;paint-order:fill markers stroke"
       d="M 77.454,80 H 25.25 c -6.245702,0 -10,-3.979838 -10,-10 V 45.077937 42.869 c 0,-4.714051 5.285949,-10.000028 10,-10.000024 l 23.987,2.4e-5 v -2.755 c 0,-4.714007 5.285592,-10.000239 9.999599,-10.000239 H 77.454 c 4.714102,0 10,5.286137 10,10.000239 V 70 c 0,6.245702 -3.979837,10 -10,10 z"
       id="path2277"
       sodipodi:nodetypes="ssscsscssssss" />
    <path
       style="display:none;fill:none;stroke:#d9d9d9;stroke-width:5;stroke-linecap:round;stroke-linejoin:round;stroke-opacity:1;paint-order:fill markers stroke"
       d="M 49.237,32.869 H 87.454"
       id="path5270"
       sodipodi:nodetypes="cc" />
    <path
       d="m 31.156197,31.619231 c -1.045727,0 -1.893492,0.847763 -1.893492,1.893492 0,1.045727 0.847765,1.893491 1.893492,1.893491 z m 55.266273,9.467456 v 32.189349 h 3.786981 V 41.086687 Z M 80.741997,78.956508 H 19.676908 v 3.786983 H 80.741997 Z M 13.996434,73.276036 V 33.512723 h -3.786983 v 39.763313 z m 0,-39.763313 v -1.656805 h -3.786983 v 1.656805 z m 36.213018,1.893491 H 80.741997 V 31.619231 H 50.209452 Z M 13.996434,31.855918 c 0,-3.137231 2.543243,-5.680473 5.680474,-5.680473 v -3.786983 c -5.228735,0 -9.467457,4.238722 -9.467457,9.467456 z m 5.680474,47.10059 c -3.137231,0 -5.680474,-2.54343 -5.680474,-5.680472 h -3.786983 c 0,5.228874 4.238722,9.467455 9.467457,9.467455 z M 86.42247,73.276036 c 0,3.137042 -2.543437,5.680472 -5.680473,5.680472 v 3.786983 c 5.228878,0 9.467454,-4.238581 9.467454,-9.467455 z M 42.635487,26.175445 c 3.137231,0 5.680473,2.543242 5.680473,5.680473 h 3.786983 c 0,-5.228734 -4.238722,-9.467456 -9.467456,-9.467456 z m 47.573964,14.911242 c 0,-5.228734 -4.238576,-9.467456 -9.467454,-9.467456 v 3.786983 c 3.137036,0 5.680473,2.543242 5.680473,5.680473 z M 19.676908,26.175445 H 31.156197 V 22.388462 H 19.676908 Z m 11.479289,0 h 11.47929 v -3.786983 h -11.47929 z m 19.053255,5.443786 H 31.156197 v 3.786983 h 19.053255 z m -1.893492,0.236687 v 1.656805 h 3.786983 v -1.656805 z"
       fill="#d9d9d9"
       id="path5187"
       style="display:none;stroke-width:0.473373" />
    <path
       d="m 24.2274,40.809878 1.803212,0.643061 c 0.0064,-0.01785 0.01244,-0.03575 0.01828,-0.05375 z m 65.449974,32.545507 1.825416,0.576726 c 0.01438,-0.04595 0.02729,-0.09189 0.03833,-0.138319 z M 49.234793,31.476975 c 0,1.057298 0.857143,1.914442 1.914441,1.914442 1.057299,0 1.914442,-0.857144 1.914442,-1.914442 z M 18.475652,51.23899 c -0.35513,0.995892 0.164259,2.091145 1.160151,2.446464 0.995892,0.35513 2.091097,-0.164641 2.446274,-1.160342 z m 78.8212,-10.266911 1.863706,0.438503 z m 0.03636,-0.329379 1.913966,-0.04102 z m -1.899601,-0.109076 -7.619961,32.383354 3.72742,0.876814 7.619479,-32.38321 z M 82.019606,79.09871 H 20.278864 v 3.828883 H 82.019606 Z M 51.149234,35.066553 h 38.52814 v -3.828884 h -38.52814 z m -25.100339,6.332638 c 0.62875,-1.943397 1.389118,-3.57029 2.360268,-4.688276 0.913427,-1.051555 1.995566,-1.644362 3.476003,-1.644362 v -3.828884 c -2.748803,0 -4.837507,1.201983 -6.366571,2.962264 -1.471345,1.693851 -2.425263,3.895841 -3.112691,6.020632 z M 20.278864,79.09871 c -3.171943,0 -5.743325,-2.571574 -5.743325,-5.743325 h -3.828884 c 0,5.28673 4.285621,9.572208 9.572209,9.572208 z m 67.573084,-6.320051 c -0.693981,2.196822 -1.451624,3.795381 -2.38156,4.833008 -0.850017,0.948606 -1.890516,1.487043 -3.450782,1.487043 v 3.828883 c 2.669205,0 4.73968,-1.017047 6.302341,-2.760624 1.482258,-1.654557 2.438994,-3.884881 3.180843,-6.234858 z M 43.491468,25.73365 c 3.171943,0 5.743325,2.571383 5.743325,5.743325 h 3.828883 c 0,-5.286586 -4.285621,-9.572208 -9.572208,-9.572208 z m 55.755719,14.868033 c -0.111036,-5.190914 -4.352961,-9.364014 -9.569813,-9.364014 v 3.828884 c 3.129626,0 5.675361,2.503899 5.74189,5.617115 z M 31.885166,25.73365 H 43.491468 V 21.904767 H 31.885166 Z m 19.264068,5.504019 H 31.885166 v 3.828884 h 19.264068 z m -36.613695,0.239306 c 0,-3.171942 2.571382,-5.743325 5.743325,-5.743325 v -3.828883 c -5.286588,0 -9.572209,4.285622 -9.572209,9.572208 z M 20.278864,25.73365 H 31.885166 V 21.904767 H 20.278864 Z m -9.572209,5.743325 v 41.87841 h 3.828884 V 31.476975 Z M 22.082077,52.525112 26.030612,41.452939 22.424187,40.166817 18.475652,51.23899 Z m 77.078481,-11.11453 c 0.05744,-0.244953 0.09282,-0.517665 0.08661,-0.808899 l -3.827923,0.08199 c -9.85e-4,-0.06983 0.0069,-0.120657 0.01439,-0.150044 z"
       fill="#d9d9d9"
       id="path5774"
       style="display:none;stroke-width:0.478611" />
    <path
       style="fill:none;stroke:#d9d9d9;stroke-width:5;stroke-linecap:round;stroke-linejoin:round;stroke-dasharray:none;stroke-opacity:1;paint-order:fill markers stroke"
       d="m 44.713612,27.877877 v -2.974408 c 0,-7.559955 -7.294688,-7.559955 -7.294688,-7.559955 H 11.229791 c -8.7297083,0 -8.7297083,9.047159 -8.7297083,9.047159 v 48.210205 c 0,7.436021 7.7730283,8.05569 7.7730283,8.05569 H 40 M 94.627007,45 96.565771,37.668638 C 98.39867,28.8413 89.255881,28.125744 89.255881,28.125744 H 24.025395 c 0,0 -4.885741,1.206318 -6.746049,5.588037 -1.860305,4.381718 -5.750039,15.511281 -5.750039,15.511281"
       id="path5390"
       sodipodi:nodetypes="ccccscscccscsc" />
    <path
       fill="currentColor"
       d="m 62.886546,85.89865 a 1.607882,1.607882 0 1 0 -0.964673,-3.067661 z m -11.730427,-9.51811 -1.556339,-0.411594 -0.816757,3.11268 1.556342,0.408377 0.816754,-3.112677 z M 73.65873,92.403763 v 1.607788 h 3.215578 V 92.403763 Z M 73.861312,76.927189 73.68767,75.329047 a 1.6077886,1.6077886 0 0 0 -0.961457,2.739671 l 1.131881,-1.138314 z M 84.91325,64.7916 h 1.607789 v -0.0097 l -1.607789,0.0065 z m -2.678575,-6.453664 -1.49846,-0.578804 a 1.6077886,1.6077886 0 0 0 0.360145,1.713903 z M 82.073896,51.852117 83.5402,51.196139 A 1.6077886,1.6077886 0 0 0 82.514431,50.30864 Z m -6.987449,2.546737 -0.405163,1.556339 a 1.6077886,1.6077886 0 0 0 1.279799,-0.205795 z m -12.502165,0 -0.874638,1.350544 a 1.6077886,1.6077886 0 0 0 1.279801,0.205795 z m -6.987449,-2.543522 -0.440535,-1.543477 a 1.6077886,1.6077886 0 0 0 -1.028985,0.8875 z m -0.16078,6.485819 1.138316,1.1351 a 1.6077886,1.6077886 0 0 0 0.360143,-1.717119 z m -2.678576,6.505113 h 1.607789 v -0.0065 z m 11.055155,12.08414 1.131884,1.14153 a 1.6077886,1.6077886 0 0 0 -0.942164,-2.736456 l -0.192935,1.594926 z m -1.408423,4.218837 h 1.60779 l -0.0032,-0.118972 z m -1.607788,11.254522 v 1.607788 h 3.215578 v -1.607788 z m 1.125452,-9.572774 c -1.938993,0.610959 -3.170558,0.543432 -3.987316,0.273323 -0.807111,-0.266892 -1.427715,-0.803893 -2.022599,-1.575631 a 15.434771,15.434771 0 0 1 -0.868206,-1.292662 c -0.273323,-0.446967 -0.585234,-0.971106 -0.900361,-1.437363 -0.614176,-0.903579 -1.520968,-2.035461 -2.987272,-2.42133 l -0.816754,3.112677 c 0.257244,0.06432 0.591664,0.305481 1.141529,1.112591 0.263677,0.392299 0.514491,0.810327 0.829618,1.324818 0.302264,0.488768 0.649546,1.028984 1.051495,1.556338 0.81354,1.06114 1.922914,2.131929 3.56929,2.675362 1.639945,0.540217 3.588585,0.482336 5.955249,-0.260462 z m 14.952435,-1.881112 c 0,-1.022554 -0.04503,-1.955072 -0.334422,-2.823279 -0.308695,-0.926086 -0.84248,-1.639943 -1.546691,-2.337723 l -2.266982,2.283059 c 0.498414,0.491983 0.668839,0.787816 0.762092,1.070786 0.112549,0.337637 0.170425,0.816758 0.170425,1.807157 z m -2.842571,-2.42133 c 2.903665,-0.311913 6.071011,-1.045064 8.511634,-3.157698 2.50815,-2.170515 3.977668,-5.559734 3.977668,-10.579249 h -3.215576 c 0,4.36997 -1.254075,6.752712 -2.868296,8.148272 -1.684962,1.459874 -4.045197,2.099773 -6.749497,2.389175 z M 86.521039,64.781953 a 10.785046,10.785046 0 0 0 -3.151267,-7.582331 l -2.273412,2.270197 c 1.408424,1.414854 2.202671,3.324908 2.209103,5.321781 z M 83.733134,58.91674 c 0.482336,-1.234781 0.707426,-2.553169 0.675271,-3.881201 l -3.215578,0.08038 a 6.8170239,6.8170239 0 0 1 -0.456612,2.636773 z m 0.675271,-3.881201 A 10.029386,10.029386 0 0 0 83.5402,51.192923 l -2.935822,1.311955 c 0.36979,0.823189 0.569157,1.710688 0.591665,2.61105 l 3.215577,-0.08038 z m -2.334509,-3.183422 c 0.440535,-1.546693 0.440535,-1.549909 0.437318,-1.549909 h -0.0097 l -0.01281,-0.0065 a 1.4855967,1.4855967 0 0 0 -0.09646,-0.0225 4.0548431,4.0548431 0 0 0 -0.681704,-0.07717 6.9842339,6.9842339 0 0 0 -1.639943,0.173642 c -1.36662,0.292617 -3.29275,1.019338 -5.85235,2.67536 l 1.742842,2.701085 c 2.312,-1.492027 3.877987,-2.038676 4.784779,-2.23161 a 3.8586928,3.8586928 0 0 1 0.983967,-0.09646 l -0.02573,-0.0032 a 0.89393049,0.89393049 0 0 1 -0.03215,-0.0065 l -0.01929,-0.0065 h -0.0097 l -0.0065,-0.0032 c -0.0032,0 -0.0065,0 0.437318,-1.549909 z m -6.582287,0.987182 a 26.396675,26.396675 0 0 0 -13.312489,0 l 0.810325,3.112679 a 23.181097,23.181097 0 0 1 11.691839,0 z m -12.035905,0.205797 c -2.562817,-1.652807 -4.492162,-2.379527 -5.858783,-2.668929 a 6.9778029,6.9778029 0 0 0 -1.639944,-0.170426 4.0484119,4.0484119 0 0 0 -0.774953,0.09646 l -0.01281,0.0065 h -0.0097 l 0.43732,1.546692 0.440532,1.546692 h -0.0032 l -0.0065,0.0032 -0.0097,0.0032 a 1.0514938,1.0514938 0 0 1 -0.05145,0.01281 l -0.02573,0.0032 h 0.02573 a 3.826537,3.826537 0 0 1 0.958242,0.09646 c 0.906792,0.192934 2.472779,0.739582 4.784779,2.23161 l 1.746058,-2.701084 z m -9.325175,-1.852173 a 10.032601,10.032601 0 0 0 -0.868205,3.842616 l 3.215576,0.08038 a 6.7205566,6.7205566 0 0 1 0.588451,-2.611049 z m -0.868205,3.842616 c -0.03215,1.328032 0.192934,2.64642 0.675271,3.881201 l 2.996917,-1.164039 a 6.8170239,6.8170239 0 0 1 -0.459827,-2.636773 l -3.215579,-0.08038 z m 1.035415,2.164083 a 10.785046,10.785046 0 0 0 -2.334509,3.508196 l 2.971193,1.221917 c 0.379438,-0.916438 0.938948,-1.752488 1.639946,-2.459916 z m -2.334509,3.508196 a 10.785046,10.785046 0 0 0 -0.81354,4.138446 l 3.215576,-0.0097 c 0,-0.996828 0.192936,-1.980795 0.569157,-2.90045 L 51.96323,60.714206 Z m -0.81354,4.138446 c 0,4.993792 1.472733,8.350855 3.9841,10.508508 2.434191,2.090124 5.595104,2.829708 8.489123,3.173775 l 0.379439,-3.193069 C 61.278756,75.007489 58.918524,74.364374 57.227131,72.910931 55.61291,71.525019 54.365266,69.174432 54.365266,64.839833 H 51.14969 Z m 11.527843,10.945827 c -1.607788,1.601357 -2.022597,3.504978 -1.877897,5.479342 l 3.212363,-0.241167 c -0.09646,-1.311957 0.167209,-2.19624 0.935732,-2.961548 l -2.266982,-2.279843 z m -1.881112,5.35715 v 11.254522 h 3.215578 V 81.149241 Z M 76.874308,92.403763 V 87.580397 H 73.65873 v 4.823366 z m 0,-4.823366 V 80.94666 H 73.65873 v 6.633737 z"
       id="path36603"
       style="fill:#999999;fill-opacity:1;stroke:#999999;stroke-width:2.03809;stroke-linecap:round;stroke-linejoin:round;stroke-dasharray:none;stroke-opacity:1" />
  </g>
</svg>
