<?xml version="1.0" encoding="UTF-8" standalone="no"?>
<!-- Created with Inkscape (http://www.inkscape.org/) -->

<svg
   width="100.0px"
   height="100.0px"
   viewBox="0 0 100.0 100.0"
   version="1.1"
   id="SVGRoot"
   sodipodi:docname="packagelock.svg"
   inkscape:version="1.2.1 (9c6d41e4, 2022-07-14)"
   xmlns:inkscape="http://www.inkscape.org/namespaces/inkscape"
   xmlns:sodipodi="http://sodipodi.sourceforge.net/DTD/sodipodi-0.dtd"
   xmlns="http://www.w3.org/2000/svg"
   xmlns:svg="http://www.w3.org/2000/svg">
  <sodipodi:namedview
     id="namedview25243"
     pagecolor="#ffffff"
     bordercolor="#000000"
     borderopacity="0.25"
     inkscape:showpageshadow="2"
     inkscape:pageopacity="0.0"
     inkscape:pagecheckerboard="0"
     inkscape:deskcolor="#d1d1d1"
     inkscape:document-units="px"
     showgrid="true"
     inkscape:zoom="4.2179991"
     inkscape:cx="53.342828"
     inkscape:cy="87.482238"
     inkscape:window-width="1309"
     inkscape:window-height="456"
     inkscape:window-x="0"
     inkscape:window-y="510"
     inkscape:window-maximized="0"
     inkscape:current-layer="layer1">
    <inkscape:grid
       type="xygrid"
       id="grid25249" />
  </sodipodi:namedview>
  <defs
     id="defs25238" />
  <g
     inkscape:label="Calque 1"
     inkscape:groupmode="layer"
     id="layer1"
     style="stroke:#1e8d83;stroke-opacity:1">
    <path
       style="display:inline;fill:none;fill-opacity:1;stroke:#1e8d83;stroke-width:5;stroke-linecap:round;stroke-linejoin:round;stroke-dasharray:none;stroke-opacity:1;paint-order:fill markers stroke"
       d="M 57.046613,92.703963 50.033395,96.654052 9.6243742,73.343724 V 26.78986 L 50.100187,3.3459476 90.375626,26.656275 v 23.690763"
       id="path30315"
       sodipodi:nodetypes="ccccccc" />
    <path
       style="fill:none;fill-opacity:1;stroke:#1e8d83;stroke-width:5;stroke-linecap:round;stroke-linejoin:round;stroke-dasharray:none;stroke-opacity:1;paint-order:fill markers stroke"
       d="M 88.789668,27.445446 50.039285,49.817989 v 45.542635"
       id="path30321" />
    <path
       style="fill:none;fill-opacity:1;stroke:#1e8d83;stroke-width:5;stroke-linecap:round;stroke-linejoin:round;stroke-dasharray:none;stroke-opacity:1;paint-order:fill markers stroke"
       d="m 64.514006,11.859904 10.768192,6.092529"
       id="path30347"
       sodipodi:nodetypes="cc" />
    <path
       fill="currentColor"
       d="m 90.432029,67.445793 h -2.035825 v -4.071651 c 0,-5.61888 -4.56025,-10.179131 -10.17913,-10.179131 -5.61888,0 -10.179132,4.560251 -10.179132,10.179131 v 4.071651 h -2.035825 c -2.239409,0 -4.071653,1.832244 -4.071653,4.071653 v 20.358261 c 0,2.239409 1.832244,4.071653 4.071653,4.071653 h 24.429912 c 2.239409,0 4.071653,-1.832244 4.071653,-4.071653 V 71.517446 c 0,-2.239409 -1.832244,-4.071653 -4.071653,-4.071653 z M 72.109595,63.374142 c 0,-3.379471 2.728006,-6.107478 6.107479,-6.107478 3.379471,0 6.107477,2.728007 6.107477,6.107478 v 4.071651 H 72.109595 Z M 90.432029,91.875707 H 66.002117 V 71.517446 H 90.432029 Z M 78.217074,85.768229 c 2.239408,0 4.071651,-1.832244 4.071651,-4.071652 0,-2.239409 -1.832243,-4.071652 -4.071651,-4.071652 -2.23941,0 -4.071653,1.832243 -4.071653,4.071652 0,2.239408 1.832243,4.071652 4.071653,4.071652 z"
       id="path7739"
       style="display:none;stroke-width:2.03582;stroke:#1e8d83;stroke-opacity:1" />
    <path
       style="display:inline;fill:none;stroke:#1e8d83;stroke-width:5.47705;stroke-linecap:round;stroke-linejoin:round;stroke-dasharray:none;stroke-opacity:1;paint-order:fill markers stroke"
       d="M 64.489639,66.83703 H 95.372478 V 92.899917 L 64.489639,92.90016 Z"
       id="path7886"
       sodipodi:nodetypes="ccccc" />
    <path
       style="fill:none;stroke:#1e8d83;stroke-width:5.47705;stroke-linecap:round;stroke-linejoin:round;stroke-dasharray:none;stroke-opacity:1;paint-order:fill markers stroke"
       id="path9221"
       sodipodi:type="arc"
       sodipodi:cx="80.175186"
       sodipodi:cy="64.23082"
       sodipodi:rx="9.0521479"
       sodipodi:ry="9.4048386"
       sodipodi:start="3.1415927"
       sodipodi:end="0"
       sodipodi:arc-type="arc"
       d="m 71.123038,64.23082 a 9.0521479,9.4048386 0 0 1 9.052148,-9.404839 9.0521479,9.4048386 0 0 1 9.052148,9.404839"
       sodipodi:open="true" />
    <path
       style="fill:none;fill-opacity:1;stroke:#1e8d83;stroke-width:5;stroke-linecap:round;stroke-linejoin:round;stroke-dasharray:none;stroke-opacity:1;paint-order:fill markers stroke"
       d="m 10.956,27.54 19.521584,11.230048 19.522,11.230049"
       id="path30317"
       sodipodi:nodetypes="ccc" />
    <path
       style="fill:none;stroke:#1e8d83;stroke-width:5;stroke-linecap:round;stroke-linejoin:round;stroke-opacity:1;paint-order:fill markers stroke"
       d="M 69.999996,15 30.5,38.77 v 15.880749"
       id="path18424"
       sodipodi:nodetypes="ccc" />
  </g>
</svg>
