<?xml version="1.0" encoding="UTF-8" standalone="no"?>
<!-- Created with Inkscape (http://www.inkscape.org/) -->

<svg
   width="100.0px"
   height="100.0px"
   viewBox="0 0 100.0 100.0"
   version="1.1"
   id="SVGRoot"
   sodipodi:docname="jest.svg"
   inkscape:version="1.2.1 (9c6d41e4, 2022-07-14)"
   xmlns:inkscape="http://www.inkscape.org/namespaces/inkscape"
   xmlns:sodipodi="http://sodipodi.sourceforge.net/DTD/sodipodi-0.dtd"
   xmlns="http://www.w3.org/2000/svg"
   xmlns:svg="http://www.w3.org/2000/svg">
  <sodipodi:namedview
     id="namedview21641"
     pagecolor="#ffffff"
     bordercolor="#000000"
     borderopacity="0.25"
     inkscape:showpageshadow="2"
     inkscape:pageopacity="0.0"
     inkscape:pagecheckerboard="0"
     inkscape:deskcolor="#d1d1d1"
     inkscape:document-units="px"
     showgrid="true"
     inkscape:zoom="3.505167"
     inkscape:cx="43.079259"
     inkscape:cy="40.796915"
     inkscape:window-width="1309"
     inkscape:window-height="724"
     inkscape:window-x="0"
     inkscape:window-y="25"
     inkscape:window-maximized="0"
     inkscape:current-layer="layer1">
    <inkscape:grid
       type="xygrid"
       id="grid21764" />
  </sodipodi:namedview>
  <defs
     id="defs21636" />
  <g
     inkscape:label="Layer 1"
     inkscape:groupmode="layer"
     id="layer1">
    <path
       fill="#fff"
       d="M 86.988297,49.322965 A 10.272064,10.272064 0 0 0 78.62702,39.243879 L 89.996838,5.7101926 H 36.254362 L 47.64316,39.310313 a 10.253082,10.253082 0 0 0 -3.163554,18.72192 34.372028,34.372028 0 0 1 -4.960455,5.839923 31.088257,31.088257 0 0 1 -9.996835,6.422017 8.4024027,8.4024027 0 0 1 -3.587471,-10.376461 l 0.126542,-0.294211 0.234103,-0.553622 a 10.265737,10.265737 0 1 0 -10.566274,-2.38532 c -0.341664,0.730781 -0.70231,1.471052 -1.072445,2.233469 a 44.289773,44.289773 0 0 0 -4.428978,12.021511 c -1.4710526,8.857954 0.901613,15.953809 6.678265,19.955705 a 18.193606,18.193606 0 0 0 10.632709,3.394495 c 6.7447,0 13.568489,-3.388167 20.246753,-6.703573 a 74.887679,74.887679 0 0 1 14.685224,-6.067699 c 1.825371,-0.449225 3.704523,-0.721291 5.6944,-1.009174 a 31.562791,31.562791 0 0 0 11.641882,-3.252135 16.102496,16.102496 0 0 0 7.867762,-11.167349 16.624483,16.624483 0 0 0 -2.186016,-11.429926 10.196138,10.196138 0 0 0 1.502689,-5.340081 z m -4.027206,0 a 6.2322038,6.2322038 0 1 1 -6.232203,-6.232203 6.2385309,6.2385309 0 0 1 6.232203,6.232203 z M 84.3752,9.7373983 74.334076,39.348276 A 10.123377,10.123377 0 0 0 73.068654,39.74372 L 63.150908,19.496967 53.201527,39.623505 A 10.123377,10.123377 0 0 0 51.875997,39.26286 L 41.869672,9.7373983 Z M 49.870303,43.090762 a 6.2322038,6.2322038 0 1 1 -6.232203,6.232203 6.2385309,6.2385309 0 0 1 6.232203,-6.232203 z m -26.959817,0.06011 a 6.2322038,6.2322038 0 1 1 -6.235367,6.216387 6.2385309,6.2385309 0 0 1 6.232204,-6.232204 z m 60.79404,22.252447 a 12.08478,12.08478 0 0 1 -5.919012,8.370768 28.155641,28.155641 0 0 1 -10.196138,2.74913 c -1.999367,0.287882 -4.065169,0.585257 -6.08668,1.085098 a 77.782332,77.782332 0 0 0 -15.50142,6.368238 C 35.991786,88.946494 27.3363,93.239439 19.199636,87.592492 13.230008,83.454563 13.505237,75.798759 14.201219,71.603885 a 40.556777,40.556777 0 0 1 4.055677,-10.923756 l 0.85416,-1.768427 a 10.17083,10.17083 0 0 0 2.65106,0.664345 12.543496,12.543496 0 0 0 6.643465,14.726351 l 0.775071,0.398607 0.819361,-0.291046 A 34.890851,34.890851 0 0 0 42.25879,66.817426 38.20942,38.20942 0 0 0 48.326489,59.481141 10.253082,10.253082 0 0 0 56.678274,41.679817 L 63.1256,28.642806 69.63936,41.929737 a 10.249919,10.249919 0 0 0 12.932613,15.817776 12.518188,12.518188 0 0 1 1.123063,7.662131 z"
       id="path20776"
       style="fill:#c63d14;fill-opacity:1;stroke:#c63d14;stroke-width:1;stroke-dasharray:none;stroke-opacity:1" />
  </g>
</svg>
