<?xml version="1.0" encoding="UTF-8" standalone="no"?>
<!-- Created with Inkscape (http://www.inkscape.org/) -->

<svg
   width="100.0px"
   height="100.0px"
   viewBox="0 0 100.0 100.0"
   version="1.1"
   id="SVGRoot"
   sodipodi:docname="perl_alt.svg"
   inkscape:version="1.2.1 (9c6d41e410, 2022-07-14)"
   xmlns:inkscape="http://www.inkscape.org/namespaces/inkscape"
   xmlns:sodipodi="http://sodipodi.sourceforge.net/DTD/sodipodi-0.dtd"
   xmlns="http://www.w3.org/2000/svg"
   xmlns:svg="http://www.w3.org/2000/svg">
  <sodipodi:namedview
     id="namedview7909"
     pagecolor="#ffffff"
     bordercolor="#000000"
     borderopacity="0.25"
     inkscape:showpageshadow="2"
     inkscape:pageopacity="0.0"
     inkscape:pagecheckerboard="0"
     inkscape:deskcolor="#d1d1d1"
     inkscape:document-units="px"
     showgrid="true"
     inkscape:zoom="2.1089995"
     inkscape:cx="-54.054066"
     inkscape:cy="62.11476"
     inkscape:window-width="1920"
     inkscape:window-height="1017"
     inkscape:window-x="1912"
     inkscape:window-y="-8"
     inkscape:window-maximized="1"
     inkscape:current-layer="layer1">
    <inkscape:grid
       type="xygrid"
       id="grid8032" />
  </sodipodi:namedview>
  <defs
     id="defs7904" />
  <g
     inkscape:label="Calque 1"
     inkscape:groupmode="layer"
     id="layer1">
    <path
       d="m 17.101716,28.917152 c -2.647425,5.147146 0.324442,12.412999 2.141333,15.402541 0,9.826538 11.160753,10.46332 16.741152,9.55332 0.778655,9.553494 3.440599,9.943807 3.50397,15.402945 0.194675,16.767288 -4.866607,17.936919 -4.866607,21.056355 0,3.119448 8.565251,1.364794 7.981271,0 -0.584025,-1.364781 1.946616,-14.232435 3.309295,-18.911826 1.090118,-3.743501 1.881754,-11.828277 2.141291,-15.402494 1.751984,-1.559945 5.139167,-3.860607 4.671974,-0.585036 -0.58398,4.094344 -1.362679,14.427597 -1.362679,15.98753 0,1.559504 3.89345,4.581596 6.229197,6.044173 3.114618,1.949377 3.114618,4.48423 -0.778435,8.383423 -3.893409,3.899634 0.583716,2.729575 3.309337,3.314611 2.180059,0.467928 3.633432,-2.534853 4.087775,-4.094357 2.011654,2.79447 6.073554,7.252833 6.229242,2.729564 0.194718,-5.65429 -3.114621,-6.82392 -3.893057,-8.968459 -0.778875,-2.144968 4.866648,-8.188701 6.61824,-12.088336 -5.06093,-7.603678 2.920339,-25.540897 2.530902,-18.327058 -0.526265,9.748472 5.256088,11.893011 6.229241,18.912094 0.778436,5.615261 -0.129811,16.312506 -0.973153,23.006171 1.297684,0.324977 4.554836,0.780198 7.202395,0 C 86.130027,87.524683 86.532184,73.825096 86.986528,67.326142 85.818215,63.3616 83.920586,53.678291 85.67393,46.659348 c 1.752907,-7.018909 0.730195,-12.15307 0,-13.842828 0.473202,-3.880648 -1.612568,-7.57517 -3.164616,-9.358506 C 80.497662,21.963232 76.435761,21.898243 76.279636,17.998875 76.085354,13.124634 73.554452,9.4202085 65.962619,8.0554265 59.889065,6.9635962 53.439144,12.799668 50.973411,15.854209 c -0.843562,2.859552 -3.89332,4.484264 -5.645304,4.484264 -3.698602,0 -5.645261,13.842829 -5.839936,15.987495 -0.194676,2.144667 -7.397247,0.194942 -4.866607,-4.289335 2.024505,-3.587421 2.141292,-11.113252 1.946617,-14.427723 -0.778655,-0.129989 -2.258078,-1.013855 -1.946617,-3.509449 0.389306,-3.119493 -6.618633,-4.2893095 -8.175944,-5.0691844 -1.55731,-0.7798729 -2.919947,0.9748404 -4.282625,3.7043914 -9.34391,-0.584896 -10.317236,2.924553 -10.317236,6.239024 0,2.651599 4.931513,3.314471 7.39729,3.314471 0.38935,0.06499 0.506138,1.481796 -2.141333,6.628989 z"
       style="fill:none;stroke:#9575cd;stroke-width:5;stroke-linecap:round;stroke-linejoin:round;stroke-dasharray:none;stroke-opacity:1"
       id="path7902" />
  </g>
</svg>
