<?xml version="1.0" encoding="UTF-8" standalone="no"?>
<!-- Created with Inkscape (http://www.inkscape.org/) -->

<svg
   width="100.0px"
   height="100.0px"
   viewBox="0 0 100.0 100.0"
   version="1.1"
   id="SVGRoot"
   sodipodi:docname="prettier.svg"
   inkscape:version="1.2.1 (9c6d41e410, 2022-07-14)"
   xmlns:inkscape="http://www.inkscape.org/namespaces/inkscape"
   xmlns:sodipodi="http://sodipodi.sourceforge.net/DTD/sodipodi-0.dtd"
   xmlns="http://www.w3.org/2000/svg"
   xmlns:svg="http://www.w3.org/2000/svg">
  <sodipodi:namedview
     id="namedview49788"
     pagecolor="#ffffff"
     bordercolor="#000000"
     borderopacity="0.25"
     inkscape:showpageshadow="2"
     inkscape:pageopacity="0.0"
     inkscape:pagecheckerboard="0"
     inkscape:deskcolor="#d1d1d1"
     inkscape:document-units="px"
     showgrid="true"
     inkscape:zoom="5.9651515"
     inkscape:cx="29.169418"
     inkscape:cy="33.360427"
     inkscape:window-width="1920"
     inkscape:window-height="1017"
     inkscape:window-x="1912"
     inkscape:window-y="-8"
     inkscape:window-maximized="1"
     inkscape:current-layer="layer1">
    <inkscape:grid
       type="xygrid"
       id="grid49911" />
  </sodipodi:namedview>
  <defs
     id="defs49783" />
  <g
     inkscape:label="Calque 1"
     inkscape:groupmode="layer"
     id="layer1">
    <path
       fill="currentColor"
       d="m 37.274017,92.417319 a 2.1191958,2.1191958 0 0 1 -2.119198,2.119195 H 13.948018 a 2.1210516,2.1210516 0 0 1 0,-4.242103 h 21.206801 c 1.172797,0 2.119198,0.950114 2.119198,2.122908 z M 35.154819,81.806494 h -4.242103 a 2.121052,2.121052 0 0 0 0,4.242104 h 4.242103 a 2.121052,2.121052 0 0 0 0,-4.242104 z M 13.948018,86.048598 H 22.4248 a 2.121052,2.121052 0 0 0 0,-4.242104 h -8.476782 a 2.121052,2.121052 0 0 0 0,4.242104 z M 35.154819,73.329712 H 13.948018 a 2.1210516,2.1210516 0 0 0 0,4.242103 h 21.206801 a 2.1210516,2.1210516 0 0 0 0,-4.242103 z M 64.845831,64.845505 H 26.670613 a 2.1210516,2.1210516 0 0 0 0,4.242103 h 38.175218 a 2.1210516,2.1210516 0 0 0 0,-4.242103 z m -50.897813,4.242103 h 4.242102 a 2.1210516,2.1210516 0 0 0 0,-4.242103 h -4.242102 a 2.1210516,2.1210516 0 0 0 0,4.242103 z M 77.57214,56.361299 H 64.845831 a 2.121052,2.121052 0 0 0 0,4.242104 H 77.57214 a 2.121052,2.121052 0 0 0 0,-4.242104 z m -38.175217,4.242104 h 16.964701 a 2.121052,2.121052 0 0 0 0,-4.242104 H 39.396923 a 2.121052,2.121052 0 0 0 0,4.242104 z m -25.448905,0 h 16.964698 a 2.121052,2.121052 0 0 0 0,-4.242104 H 13.948018 a 2.121052,2.121052 0 0 0 0,4.242104 z M 81.806819,47.884517 H 47.884842 a 2.1191958,2.1191958 0 0 0 0,4.23839 h 33.929401 a 2.1191958,2.1191958 0 0 0 0,-4.23839 z M 41.51612,50.000001 a 2.1191958,2.1191958 0 0 0 -2.119197,-2.119198 h -12.72631 a 2.1191965,2.1191965 0 0 0 0,4.238393 h 12.72631 a 2.1191958,2.1191958 0 0 0 2.119197,-2.119195 z m -27.568102,2.119195 h 4.242102 a 2.1191965,2.1191965 0 0 0 0,-4.238393 h -4.242102 a 2.1191965,2.1191965 0 0 0 0,4.238393 z M 86.052633,39.396597 H 64.845831 a 2.1210516,2.1210516 0 0 0 0,4.242103 h 21.206802 a 2.1210516,2.1210516 0 0 0 0,-4.242103 z M 13.948018,43.6387 h 21.206801 a 2.1210516,2.1210516 0 0 0 0,-4.242103 H 13.948018 a 2.1210516,2.1210516 0 0 0 0,4.242103 z M 62.726633,33.035299 a 2.1154845,2.1154845 0 0 0 2.119198,2.119195 h 21.206802 a 2.1210516,2.1210516 0 0 0 0,-4.242103 H 64.845831 a 2.1191958,2.1191958 0 0 0 -2.119198,2.122908 z M 30.912716,30.912391 a 2.1210516,2.1210516 0 0 0 0,4.242103 h 4.242103 a 2.1210516,2.1210516 0 0 0 0,-4.242103 z M 13.948018,35.154494 H 22.4248 a 2.1210516,2.1210516 0 0 0 0,-4.242103 h -8.476782 a 2.1210516,2.1210516 0 0 0 0,4.242103 z M 75.449232,24.551093 c 0,1.169083 0.950111,2.119195 2.122908,2.119195 h 4.23839 a 2.1210515,2.1210515 0 0 0 0,-4.242101 h -4.234679 a 2.1191958,2.1191958 0 0 0 -2.122909,2.122906 z m -4.242103,0 A 2.1191958,2.1191958 0 0 0 69.087934,22.428187 H 52.115811 a 2.1210515,2.1210515 0 0 0 0,4.242101 h 16.96841 a 2.1191958,2.1191958 0 0 0 2.119198,-2.119195 z m -57.259111,2.119195 h 29.691008 a 2.1210515,2.1210515 0 0 0 0,-4.242101 H 13.948018 a 2.1210515,2.1210515 0 0 0 0,4.242101 z M 33.035624,16.066886 c 0,1.172797 0.946401,2.122908 2.119195,2.122908 H 77.57214 a 2.1210516,2.1210516 0 0 0 0,-4.242103 H 35.154819 a 2.1191958,2.1191958 0 0 0 -2.119195,2.119195 z m -19.087606,2.122908 h 12.722595 a 2.1210516,2.1210516 0 0 0 0,-4.242103 H 13.948018 a 2.1210516,2.1210516 0 0 0 0,4.242103 z m 0,-8.4842053 h 50.897813 a 2.1210516,2.1210516 0 0 0 0,-4.2421031 H 13.948018 a 2.1210516,2.1210516 0 0 0 0,4.2421031 z"
       id="path49640"
       style="stroke:#56b3b4;stroke-width:0.793106;stroke-dasharray:none;stroke-opacity:1;fill:#56b3b4;fill-opacity:1"
       inkscape:label="path49640" />
  </g>
</svg>
