<?xml version="1.0" encoding="UTF-8" standalone="no"?>
<!-- Created with Inkscape (http://www.inkscape.org/) -->

<svg
   width="100.0px"
   height="100.0px"
   viewBox="0 0 100.0 100.0"
   version="1.1"
   id="SVGRoot"
   sodipodi:docname="rollup.svg"
   inkscape:version="1.2.1 (9c6d41e410, 2022-07-14)"
   xmlns:inkscape="http://www.inkscape.org/namespaces/inkscape"
   xmlns:sodipodi="http://sodipodi.sourceforge.net/DTD/sodipodi-0.dtd"
   xmlns="http://www.w3.org/2000/svg"
   xmlns:svg="http://www.w3.org/2000/svg">
  <sodipodi:namedview
     id="namedview102748"
     pagecolor="#ffffff"
     bordercolor="#000000"
     borderopacity="0.25"
     inkscape:showpageshadow="2"
     inkscape:pageopacity="0.0"
     inkscape:pagecheckerboard="0"
     inkscape:deskcolor="#d1d1d1"
     inkscape:document-units="px"
     showgrid="true"
     inkscape:zoom="2.1089996"
     inkscape:cx="32.005697"
     inkscape:cy="71.12377"
     inkscape:window-width="1920"
     inkscape:window-height="1017"
     inkscape:window-x="1912"
     inkscape:window-y="-8"
     inkscape:window-maximized="1"
     inkscape:current-layer="layer1">
    <inkscape:grid
       type="xygrid"
       id="grid102871" />
  </sodipodi:namedview>
  <defs
     id="defs102743" />
  <g
     inkscape:label="Calque 1"
     inkscape:groupmode="layer"
     id="layer1">
    <path
       d="m 49.331272,22.658299 2.590936,1.298365 z m -15.041339,65.370416 -2.480805,-1.49544 z m 23.225684,-62.257813 2.753231,-0.915815 z m 2.648898,7.946695 -2.747436,0.915811 z m 12.954681,-1.709904 -2.747437,0.915813 z M 58.703852,16.879409 61.1209,18.490776 58.703852,16.885207 Z m 7.894532,22.518538 0.568035,-2.840176 z M 18.263227,78.998113 c -7.728371,-48.302309 -3.864187,-24.151157 0,0 z M 58.837169,6.5446477 c -34.777665,0 -17.388832,0 0,0 z m 0,5.7962763 c -34.777665,-3.864185 -17.388832,-1.932092 0,0 z M 18.263227,78.998113 c -7.728371,-48.302309 -3.864187,-24.151157 0,0 z M 20.854163,86.092757 51.922208,23.956664 46.740337,21.365727 15.672293,83.50182 Z M 51.922208,23.956664 c 2.865803,-5.734295 8.801797,-9.281415 15.209434,-9.088562 L 67.305529,9.071823 C 58.641982,8.8118338 50.616237,13.607383 46.740337,21.359931 Z m -16.681685,68.123649 1.536012,-2.561956 -4.967407,-2.985082 -1.54181,2.567749 z m 1.536012,-2.561956 C 47.233288,72.089027 59.225076,55.627961 72.609124,40.331148 L 68.250322,36.517195 C 54.639018,52.073604 42.443553,68.813996 31.809128,86.539071 Z m 17.991647,-62.831646 2.648897,7.946697 5.500667,-1.831625 -2.648898,-7.946696 -5.506464,1.831624 z m 21.098449,4.405171 -2.689474,-8.074215 -5.494872,1.831625 2.689474,8.074214 5.500667,-1.831624 z M 67.201197,9.442787 c -4.378584,3.506e-4 -8.467471,2.188341 -10.897003,5.831054 l 4.822502,3.216935 c 1.354183,-2.030946 3.63349,-3.251071 6.074501,-3.251713 z m -1.165053,32.795336 c 6.47199,1.295424 11.92875,-4.884407 9.84208,-11.146241 l -5.50067,1.831624 c 0.678166,2.040289 -1.10129,4.057393 -3.205339,3.634265 z m -8.619065,-7.604715 c 1.297886,3.897228 4.585264,6.799679 8.613267,7.604715 l 1.136073,-5.680352 C 65.178515,36.15948 63.556818,34.725839 62.917746,32.801783 Z m 2.851769,-9.778321 C 59.555025,22.715881 59.869511,20.366881 61.1209,18.490776 l -4.8283,-3.216935 c -2.242462,3.365076 -2.805078,7.577208 -1.524418,11.41287 z m 6.862794,-9.986985 c -0.525387,-0.01956 -1.031715,-0.201928 -1.449072,-0.521665 -0.735802,-0.560725 -1.140816,-1.453496 -1.078107,-2.376473 0.150712,-2.2315669 2.21418,-2.527177 2.590935,-2.527177 v 5.796276 c 0.76511,0 3.031456,-0.475292 3.193751,-2.880752 0.06909,-1.023314 -0.381976,-2.012587 -1.199831,-2.6315069 -0.54471,-0.4078401 -1.20347,-0.6348554 -1.883789,-0.649182 l -0.173887,5.7962759 z"
       style="fill:#fbb040;fill-opacity:1;stroke-width:5.79626"
       id="path6964" />
    <path
       d="M 14.972161,9.1356861 V 6.2168058 c -1.612053,0 -2.918881,1.3068271 -2.918881,2.9188803 z M 85.025272,90.864316 v 2.918878 c 2.12279,-5.88e-4 3.535015,-2.194967 2.656179,-4.127294 z M 70.500925,58.908421 69.193269,56.298942 c -1.402617,0.703317 -1.998254,2.38967 -1.348523,3.817894 z M 12.05328,9.1356861 V 79.188796 h 5.837761 V 9.1356861 Z M 26.64768,93.783194 H 85.025272 V 87.945436 H 26.64768 Z M 87.681451,89.6559 73.157107,57.705843 l -5.312361,2.416833 14.524345,31.955893 5.31236,-2.416832 z M 14.972161,12.054564 H 58.755355 V 6.2168058 H 14.972161 Z m 67.134231,23.351039 c 0.0041,8.850648 -4.995915,16.942937 -12.913123,20.899178 l 2.615315,5.213118 C 81.699064,56.57285 87.945984,46.463408 87.94415,35.405603 Z M 58.755355,12.054564 c 12.89642,0 23.351037,10.454617 23.351037,23.351039 H 87.94415 C 87.94415,19.285074 74.875882,6.2168058 58.755355,6.2168058 Z M 12.05328,79.188796 c 0,8.060265 6.534136,14.594398 14.5944,14.594398 v -5.837758 c -4.83616,0 -8.756639,-3.920482 -8.756639,-8.75664 z"
       style="fill:#ff3333;fill-opacity:1;stroke-width:5.83775"
       id="path102741"
       sodipodi:nodetypes="cccccccccccccccccccccccccccccccccccccccccccccccc" />
  </g>
</svg>
