<?xml version="1.0" encoding="UTF-8" standalone="no"?>
<!-- Created with Inkscape (http://www.inkscape.org/) -->

<svg
   width="100.0px"
   height="100.0px"
   viewBox="0 0 100.0 100.0"
   version="1.1"
   id="SVGRoot"
   sodipodi:docname="rollup.svg"
   inkscape:version="1.2.1 (9c6d41e410, 2022-07-14)"
   xmlns:inkscape="http://www.inkscape.org/namespaces/inkscape"
   xmlns:sodipodi="http://sodipodi.sourceforge.net/DTD/sodipodi-0.dtd"
   xmlns="http://www.w3.org/2000/svg"
   xmlns:svg="http://www.w3.org/2000/svg">
  <sodipodi:namedview
     id="namedview102748"
     pagecolor="#ffffff"
     bordercolor="#000000"
     borderopacity="0.25"
     inkscape:showpageshadow="2"
     inkscape:pageopacity="0.0"
     inkscape:pagecheckerboard="0"
     inkscape:deskcolor="#d1d1d1"
     inkscape:document-units="px"
     showgrid="true"
     inkscape:zoom="4.2179991"
     inkscape:cx="85.822683"
     inkscape:cy="39.829312"
     inkscape:window-width="1920"
     inkscape:window-height="1017"
     inkscape:window-x="1912"
     inkscape:window-y="-8"
     inkscape:window-maximized="1"
     inkscape:current-layer="layer1">
    <inkscape:grid
       type="xygrid"
       id="grid102871" />
  </sodipodi:namedview>
  <defs
     id="defs102743" />
  <g
     inkscape:label="Calque 1"
     inkscape:groupmode="layer"
     id="layer1">
    <path
       d="M 14.972161,9.1356861 V 6.2168058 c -1.612053,0 -2.918881,1.3068271 -2.918881,2.9188803 z M 85.025272,90.864316 v 2.918878 c 2.12279,-5.88e-4 3.535015,-2.194967 2.656179,-4.127294 z M 70.500925,58.908421 69.193269,56.298942 c -1.402617,0.703317 -1.998254,2.38967 -1.348523,3.817894 z m -21.319496,-36.462643 2.609478,1.307656 z m -15.148986,65.83825 -2.498559,-1.506142 z m 23.391904,-62.703373 2.772934,-0.922367 z m 2.667855,8.003568 -2.767098,0.922364 z m 13.047392,-1.722141 -2.767099,0.922367 z M 58.621086,16.62553 61.055432,18.248428 58.621086,16.63137 Z m 7.951028,22.679695 0.572101,-2.860501 z M 12.05328,9.1356861 V 79.188796 h 5.837761 V 9.1356861 Z M 26.64768,93.783194 H 85.025272 V 87.945436 H 26.64768 Z M 87.681451,89.6559 73.157107,57.705843 l -5.312361,2.416833 14.524345,31.955893 5.31236,-2.416832 z M 14.972161,12.054564 H 58.755355 V 6.2168058 H 14.972161 Z m 67.134231,23.351039 c 0.0041,8.850648 -4.995915,16.942937 -12.913123,20.899178 l 2.615315,5.213118 C 81.699064,56.57285 87.945984,46.463408 87.94415,35.405603 Z M 58.755355,12.054564 c 12.89642,0 23.351037,10.454617 23.351037,23.351039 H 87.94415 C 87.94415,19.285074 74.875882,6.2168058 58.755355,6.2168058 Z M 12.05328,79.188796 c 0,8.060265 6.534136,14.594398 14.5944,14.594398 v -5.837758 c -4.83616,0 -8.756639,-3.920482 -8.756639,-8.75664 z m 8.44724,7.145418 31.290387,-62.58078 -5.218957,-2.609478 -31.290387,62.580779 z m 31.290387,-62.58078 c 2.886312,-5.775334 8.86479,-9.347837 15.318282,-9.153605 L 67.284321,8.762068 C 58.558771,8.5002171 50.475589,13.330086 46.57195,21.138119 Z M 34.989836,92.364621 36.536842,89.78433 31.533884,86.777886 29.981039,89.364011 Z M 36.536842,89.78433 C 47.06843,72.230265 59.146038,55.651391 72.625871,40.245105 L 68.235876,36.403858 C 54.52716,52.071598 42.244417,68.931795 31.533884,86.783723 Z m 18.120406,-63.281311 2.667856,8.003568 5.540032,-1.844731 -2.667855,-8.003568 -5.545872,1.844731 z m 21.249444,4.436699 -2.708722,-8.132001 -5.534196,1.844734 2.708721,8.131998 5.540033,-1.844731 z M 67.179242,9.1356862 c -4.40992,3.53e-4 -8.528069,2.2040018 -10.974989,5.8727858 l 4.857015,3.239956 c 1.363874,-2.04548 3.659493,-3.274337 6.117974,-3.274983 z m -1.17339,33.0300408 c 6.518308,1.304695 12.014121,-4.919363 9.912516,-11.226009 l -5.540036,1.844731 c 0.683018,2.054891 -1.109173,4.086431 -3.22828,3.660275 z m -8.680748,-7.65914 c 1.307174,3.92512 4.618078,6.848343 8.674908,7.65914 l 1.144203,-5.721003 c -2.002131,-0.401142 -3.635433,-1.845043 -4.279079,-3.782868 z m 2.872177,-9.848299 c -0.718931,-2.154516 -0.402195,-4.520328 0.858151,-6.40986 l -4.862855,-3.239956 c -2.258512,3.389158 -2.825154,7.631436 -1.535329,11.494547 z m 6.911908,-10.058459 c -0.529148,-0.01971 -1.039098,-0.203372 -1.459442,-0.525398 -0.741068,-0.564738 -1.14898,-1.463899 -1.085823,-2.393483 0.151791,-2.2475359 2.230026,-2.5452619 2.609479,-2.5452619 v 5.8377589 c 0.770584,0 3.05315,-0.478696 3.216606,-2.901367 C 70.459597,11.041437 70.0053,10.045085 69.181593,9.4217361 68.632984,9.0109781 67.969509,8.7823369 67.284321,8.7679075 l -0.175132,5.8377585 z"
       style="fill:#ff3333;stroke-width:5.83775;fill-opacity:1"
       id="path102741" />
  </g>
</svg>
