<?xml version="1.0" encoding="UTF-8" standalone="no"?>
<!-- Created with Inkscape (http://www.inkscape.org/) -->

<svg
   width="100.0px"
   height="100.0px"
   viewBox="0 0 100.0 100.0"
   version="1.1"
   id="SVGRoot"
   sodipodi:docname="sass.svg"
   inkscape:version="1.2.1 (9c6d41e410, 2022-07-14)"
   xmlns:inkscape="http://www.inkscape.org/namespaces/inkscape"
   xmlns:sodipodi="http://sodipodi.sourceforge.net/DTD/sodipodi-0.dtd"
   xmlns="http://www.w3.org/2000/svg"
   xmlns:svg="http://www.w3.org/2000/svg">
  <sodipodi:namedview
     id="namedview9012"
     pagecolor="#ffffff"
     bordercolor="#000000"
     borderopacity="0.25"
     inkscape:showpageshadow="2"
     inkscape:pageopacity="0.0"
     inkscape:pagecheckerboard="0"
     inkscape:deskcolor="#d1d1d1"
     inkscape:document-units="px"
     showgrid="true"
     inkscape:zoom="8.14"
     inkscape:cx="50"
     inkscape:cy="50"
     inkscape:window-width="1920"
     inkscape:window-height="1017"
     inkscape:window-x="1912"
     inkscape:window-y="-8"
     inkscape:window-maximized="1"
     inkscape:current-layer="layer1">
    <inkscape:grid
       type="xygrid"
       id="grid9135" />
  </sodipodi:namedview>
  <defs
     id="defs9007" />
  <g
     inkscape:label="Calque 1"
     inkscape:groupmode="layer"
     id="layer1">
    <path
       fill="currentColor"
       d="M 50,6.5576041 A 43.442396,43.442396 0 0 1 93.442396,50 43.442396,43.442396 0 0 1 50,93.442396 43.442396,43.442396 0 0 1 6.5576039,50 43.442396,43.442396 0 0 1 50,6.5576041 M 41.31152,64.466315 c 0.695077,2.345889 0.608194,4.51801 0,6.51636 0,0.217222 -0.173759,0.434426 -0.260655,0.738521 -0.08689,0 -0.173758,0.304086 -0.304086,0.521309 -0.477867,1.042618 -1.172944,2.041794 -1.998352,2.91064 -2.519658,2.780315 -6.125378,3.822933 -7.558977,2.954084 -1.650809,-0.955732 -0.738519,-4.865548 2.128679,-7.949959 3.127853,-3.301621 7.64586,-5.473742 7.64586,-5.473742 l 0.34754,-0.217223 M 77.23838,25.150948 C 75.283472,17.418202 62.467966,14.898544 50.390982,19.199342 c -7.21144,2.563099 -15.031072,6.5598 -20.635141,11.816329 -6.646687,6.255706 -7.732746,11.686006 -7.298323,13.94501 1.477044,7.9934 12.511411,13.249932 17.029421,17.116303 v 0.04343 c -1.303272,0.651636 -11.03437,5.560624 -13.380259,10.599944 -2.34589,5.29997 0.434426,9.122903 2.172121,9.644212 5.821282,1.563926 11.686005,-1.259831 14.813858,-5.995051 3.040967,-4.51801 2.823754,-10.382734 1.47704,-13.336815 1.824581,-0.434426 3.953258,-0.651636 6.646687,-0.34754 7.645863,0.91229 9.122904,5.64751 8.818808,7.64586 -0.260654,1.998352 -1.868025,3.084411 -2.389334,3.431951 -0.521309,0.304086 -0.695077,0.434423 -0.651636,0.695077 0.04343,0.347541 0.304086,0.347541 0.738522,0.260655 0.651636,-0.130327 4.040143,-1.607368 4.17047,-5.299974 0.173759,-4.691779 -4.300797,-9.904863 -12.207315,-9.774536 -3.25818,0.0869 -5.29997,0.390982 -6.777014,0.955732 L 42.57135,60.208949 C 37.662358,54.995862 28.626341,51.303259 29.017322,44.265591 29.14765,41.702488 30.016495,35.01236 46.39428,26.845188 59.77454,20.15506 70.504811,21.979641 72.372832,26.106666 c 2.649986,5.777841 -5.734396,16.594998 -19.635961,18.158925 -5.299973,0.608191 -8.12373,-1.477044 -8.818807,-2.215563 -0.738522,-0.738521 -0.825405,-0.868849 -1.086059,-0.738521 -0.477868,0.304085 -0.173759,0.999176 0,1.433599 0.390981,1.086058 2.128676,2.910639 4.995874,3.953257 2.563103,0.825407 8.818808,1.303272 16.33434,-1.607368 8.427827,-3.25818 15.031069,-12.337642 13.076161,-19.94006 z"
       id="path8873"
       style="display:none;stroke-width:4.34423" />
    <path
       style="display:inline;fill:none;stroke:#cf649a;stroke-width:5;stroke-linecap:round;stroke-linejoin:round;stroke-dasharray:none;stroke-opacity:1;paint-order:fill markers stroke"
       d="m 45.162146,43.531726 c 7.202352,4.27429 13.069678,2.984162 18.880932,-0.807741 5.811254,-3.791902 10.546004,-11.124316 5.065702,-16.600501 -2.740152,-2.738092 -12.71554,-3.194688 -21.95515,0.752311 -9.23961,3.947 -17.945379,12.095658 -18.550163,16.471319 -1.209568,8.751321 12.331026,11.538821 14.236425,16.945225 1.905397,5.406405 1.089082,7.906834 -0.807741,11.308367 -1.896822,3.401531 -7.648981,6.508799 -10.904496,2.726124 -3.255514,-3.782676 6.511216,-11.016899 11.611269,-13.024815 5.100053,-2.007916 12.17127,-1.573089 14.438361,1.009675 2.267091,2.582764 -0.249787,7.168696 -0.100969,7.168696"
       id="path9209"
       sodipodi:nodetypes="czssszzzzzc" />
    <circle
       style="fill:none;stroke:#cf649a;stroke-width:5;stroke-linecap:round;stroke-linejoin:round;stroke-opacity:1;paint-order:fill markers stroke;stroke-dasharray:none"
       id="path9263"
       cx="50"
       cy="50"
       r="42.031307" />
  </g>
</svg>
