<?xml version="1.0" encoding="UTF-8" standalone="no"?>
<!-- Created with Inkscape (http://www.inkscape.org/) -->

<svg
   width="100.0px"
   height="100.0px"
   viewBox="0 0 100.0 100.0"
   version="1.1"
   id="SVGRoot"
   sodipodi:docname="storybook_vue.svg"
   inkscape:version="1.2.1 (9c6d41e410, 2022-07-14)"
   xmlns:inkscape="http://www.inkscape.org/namespaces/inkscape"
   xmlns:sodipodi="http://sodipodi.sourceforge.net/DTD/sodipodi-0.dtd"
   xmlns="http://www.w3.org/2000/svg"
   xmlns:svg="http://www.w3.org/2000/svg">
  <sodipodi:namedview
     id="namedview10134"
     pagecolor="#ffffff"
     bordercolor="#000000"
     borderopacity="0.25"
     inkscape:showpageshadow="2"
     inkscape:pageopacity="0.0"
     inkscape:pagecheckerboard="0"
     inkscape:deskcolor="#d1d1d1"
     inkscape:document-units="px"
     showgrid="true"
     inkscape:zoom="4.2179991"
     inkscape:cx="42.200104"
     inkscape:cy="53.579907"
     inkscape:window-width="1920"
     inkscape:window-height="1017"
     inkscape:window-x="1912"
     inkscape:window-y="-8"
     inkscape:window-maximized="1"
     inkscape:current-layer="layer1">
    <inkscape:grid
       type="xygrid"
       id="grid10257" />
  </sodipodi:namedview>
  <defs
     id="defs10129" />
  <g
     inkscape:label="Calque 1"
     inkscape:groupmode="layer"
     id="layer1">
    <g
       fill="none"
       stroke="currentColor"
       stroke-linecap="round"
       stroke-linejoin="round"
       stroke-width="2"
       id="g9993"
       transform="matrix(4.6852066,0,0,4.6852066,-6.2224829,-6.2224839)"
       style="stroke-width:1.0671888;stroke-dasharray:none;stroke:#ff4785;stroke-opacity:1">
      <path
         d="M 5,4 5.5,20.5 19,21 V 3 Z"
         id="path9989"
         style="stroke-width:1.0671888;stroke-dasharray:none;stroke:#41b883;stroke-opacity:1" />
      <path
         d="m 9,15 c 0.6,1.5 1.639,2 3.283,2 H 12 c 1.8,0 3,-0.974 3,-2.435 0,-1.194 -0.831,-1.799 -2.147,-2.333 L 10.878,11.43 C 9.728,10.963 9,10.008 9,8.963 9,7.993 9.899,7.177 11.087,7.07 L 11.7,7.015 C 13.228,6.877 14.699,7.777 15,9 m 1,-5.5 v 1"
         id="path9991"
         style="stroke-width:1.0671888;stroke-dasharray:none;stroke:#41b883;stroke-opacity:1" />
    </g>
  </g>
</svg>
