<?xml version="1.0" encoding="UTF-8" standalone="no"?>
<!-- Created with Inkscape (http://www.inkscape.org/) -->

<svg
   width="100.0px"
   height="100.0px"
   viewBox="0 0 100.0 100.0"
   version="1.1"
   id="SVGRoot"
   sodipodi:docname="unocss.svg"
   inkscape:version="1.2.1 (9c6d41e410, 2022-07-14)"
   xmlns:inkscape="http://www.inkscape.org/namespaces/inkscape"
   xmlns:sodipodi="http://sodipodi.sourceforge.net/DTD/sodipodi-0.dtd"
   xmlns="http://www.w3.org/2000/svg"
   xmlns:svg="http://www.w3.org/2000/svg">
  <sodipodi:namedview
     id="namedview106228"
     pagecolor="#ffffff"
     bordercolor="#000000"
     borderopacity="0.25"
     inkscape:showpageshadow="2"
     inkscape:pageopacity="0.0"
     inkscape:pagecheckerboard="0"
     inkscape:deskcolor="#d1d1d1"
     inkscape:document-units="px"
     showgrid="true"
     inkscape:zoom="8.4359982"
     inkscape:cx="50.260798"
     inkscape:cy="49.193942"
     inkscape:window-width="1920"
     inkscape:window-height="1017"
     inkscape:window-x="1912"
     inkscape:window-y="-8"
     inkscape:window-maximized="1"
     inkscape:current-layer="SVGRoot">
    <inkscape:grid
       type="xygrid"
       id="grid106351" />
  </sodipodi:namedview>
  <defs
     id="defs106223" />
  <path
     d="m 54.931026,73.433446 c 0,-10.26723 8.323229,-18.590443 18.590452,-18.590443 10.267222,0 18.590452,8.323213 18.590452,18.590443 0,10.26723 -8.32323,18.590444 -18.590452,18.590444 -10.267223,0 -18.590452,-8.323214 -18.590452,-18.590444 z"
     style="display:inline;fill:none;stroke:#56585a;stroke-width:5;stroke-dasharray:none;stroke-opacity:1"
     id="path1804" />
  <path
     d="m 54.9354,26.577852 c 0.002,-10.26723 8.32663,-18.5889209 18.59385,-18.5870419 10.26722,0.0019 18.58893,8.3266169 18.58705,18.5938469 v 16.731407 c 0,1.026722 -0.83232,1.859045 -1.85904,1.859046 H 56.79444 c -1.02671,1e-6 -1.85904,-0.832313 -1.85904,-1.85903 z"
     style="display:inline;fill:none;stroke:#323539;stroke-width:5;stroke-dasharray:none;stroke-opacity:1"
     id="path1716" />
  <path
     d="m 45.065255,73.406341 c 0.003,10.269648 -8.32081,18.596636 -18.59045,18.596636 -10.26964,0 -18.5938675,-8.326988 -18.5904475,-18.596636 V 56.671597 c 0,-1.026723 0.832324,-1.859046 1.859048,-1.859045 H 43.206215 c 1.02672,0 1.85904,0.832323 1.85904,1.859045 z"
     style="display:inline;fill:none;stroke:#888888;stroke-width:5;stroke-dasharray:none;stroke-opacity:1"
     id="path1771" />
</svg>
