<?xml version="1.0" encoding="UTF-8" standalone="no"?>
<!-- Created with Inkscape (http://www.inkscape.org/) -->

<svg
   width="100.0px"
   height="100.0px"
   viewBox="0 0 100.0 100.0"
   version="1.1"
   id="SVGRoot"
   sodipodi:docname="vite.svg"
   inkscape:version="1.2.1 (9c6d41e410, 2022-07-14)"
   xmlns:inkscape="http://www.inkscape.org/namespaces/inkscape"
   xmlns:sodipodi="http://sodipodi.sourceforge.net/DTD/sodipodi-0.dtd"
   xmlns="http://www.w3.org/2000/svg"
   xmlns:svg="http://www.w3.org/2000/svg">
  <sodipodi:namedview
     id="namedview32486"
     pagecolor="#ffffff"
     bordercolor="#000000"
     borderopacity="0.25"
     inkscape:showpageshadow="2"
     inkscape:pageopacity="0.0"
     inkscape:pagecheckerboard="0"
     inkscape:deskcolor="#d1d1d1"
     inkscape:document-units="px"
     showgrid="true"
     inkscape:zoom="5.9651515"
     inkscape:cx="16.847854"
     inkscape:cy="53.309626"
     inkscape:window-width="1920"
     inkscape:window-height="1017"
     inkscape:window-x="1912"
     inkscape:window-y="-8"
     inkscape:window-maximized="1"
     inkscape:current-layer="layer1">
    <inkscape:grid
       type="xygrid"
       id="grid32609" />
  </sodipodi:namedview>
  <defs
     id="defs32481">
    <linearGradient
       id="svgIDa"
       x1="6"
       x2="235"
       y1="33"
       y2="344"
       gradientTransform="matrix(0.07142,0,0,0.07142,1.34,1.894)"
       gradientUnits="userSpaceOnUse">
      <stop
         stop-color="#41D1FF"
         id="stop31574" />
      <stop
         offset="1"
         stop-color="#BD34FE"
         id="stop31576" />
    </linearGradient>
    <linearGradient
       id="svgIDb"
       x1="194.651"
       x2="236.076"
       y1="8.8179998"
       y2="292.98901"
       gradientTransform="matrix(0.07142,0,0,0.07142,1.34,1.894)"
       gradientUnits="userSpaceOnUse">
      <stop
         stop-color="#FFEA83"
         id="stop31579" />
      <stop
         offset=".083"
         stop-color="#FFDD35"
         id="stop31581" />
      <stop
         offset="1"
         stop-color="#FFA800"
         id="stop31583" />
    </linearGradient>
  </defs>
  <g
     inkscape:label="Calque 1"
     inkscape:groupmode="layer"
     id="layer1">
    <g
       fill="none"
       id="g31588"
       transform="matrix(2.9753204,0,0,2.9753204,2.4291056,2.4172401)"
       style="stroke-width:1.68049128;stroke-dasharray:none;stroke:#ffca22;stroke-opacity:1">
      <path
         fill="url(#svgIDa)"
         d="M 21.874951,6.4050915 29.132,5.095 c 0.593691,-0.1084829 1.04584,0.5228421 0.752,1.05 v 0.001 l -13.142,23.5 c -0.271162,0.485655 -0.968943,0.488459 -1.244,0.005 L 2.096,6.148 C 1.7953758,5.6218543 2.2455454,4.9840134 2.842,5.091 l 9.080013,1.6186638"
         id="path31570"
         style="fill:none;stroke:#646cff;stroke-width:1.68049128;stroke-dasharray:none;stroke-opacity:1"
         sodipodi:nodetypes="ccccccccc" />
      <path
         fill="url(#svgIDb)"
         d="M 22.264,2.007 12.54,3.912 a 0.357,0.357 0 0 0 -0.288,0.33 l -0.598,10.104 a 0.357,0.357 0 0 0 0.437,0.369 l 2.707,-0.625 a 0.357,0.357 0 0 1 0.43,0.42 l -0.804,3.939 a 0.357,0.357 0 0 0 0.454,0.413 l 1.672,-0.508 a 0.357,0.357 0 0 1 0.454,0.414 l -1.279,6.187 c -0.08,0.387 0.435,0.598 0.65,0.267 L 16.518,25 24.443,9.185 a 0.357,0.357 0 0 0 -0.387,-0.51 l -2.787,0.537 a 0.357,0.357 0 0 1 -0.41,-0.45 l 1.818,-6.306 a 0.357,0.357 0 0 0 -0.412,-0.45 z"
         id="path31572"
         style="fill:none;stroke:#ffca22;stroke-width:1.68049128;stroke-dasharray:none;stroke-opacity:1" />
      <defs
         id="defs31586">
        <linearGradient
           id="linearGradient32659"
           x1="6"
           x2="235"
           y1="33"
           y2="344"
           gradientTransform="matrix(0.07142,0,0,0.07142,1.34,1.894)"
           gradientUnits="userSpaceOnUse">
          <stop
             stop-color="#41D1FF"
             id="stop32655" />
          <stop
             offset="1"
             stop-color="#BD34FE"
             id="stop32657" />
        </linearGradient>
        <linearGradient
           id="linearGradient32667"
           x1="194.651"
           x2="236.076"
           y1="8.8179998"
           y2="292.98901"
           gradientTransform="matrix(0.07142,0,0,0.07142,1.34,1.894)"
           gradientUnits="userSpaceOnUse">
          <stop
             stop-color="#FFEA83"
             id="stop32661" />
          <stop
             offset=".083"
             stop-color="#FFDD35"
             id="stop32663" />
          <stop
             offset="1"
             stop-color="#FFA800"
             id="stop32665" />
        </linearGradient>
      </defs>
    </g>
  </g>
</svg>
