<svg xmlns="http://www.w3.org/2000/svg" width="100" height="100">
    <path fill="#6f42c1" d="M11.336 71.338c.753-45.742 61.895-10.944 61.63-39.567.433-8.66-3.166-20.004-17.59-21.317-23.725-2.159-33.373 8.992-34.142 24.502H16.22C17.383 13.61 32.24 2.839 55.514 5.45c8.253.926 21.89 5.82 22.496 25.216v52.765c-.075 5.659 4.798 5.332 10.701 4.617v5.093c-16.29.11-15.653-2.228-15.648-16.338-15.019 27.482-63.497 22.167-61.727-5.465Zm61.562-26.626c-12.347 12.094-57.11-6.063-56.92 26.626 0 20.154 23.41 19.983 33.415 17.41 12.485-3.211 23.196-12.88 23.494-30.45z"/>
</svg>
