<svg xmlns="http://www.w3.org/2000/svg" width="100" height="100">
    <g stroke="#6f42c1">
        <path fill="#6f42c1" stroke-width="3" d="M33.905 49.083c.314-19.041 25.765-4.556 25.654-16.47.18-3.605-1.318-8.327-7.321-8.874-9.877-.899-13.893 3.743-14.213 10.2h-2.087c.484-8.886 6.669-13.37 16.357-12.283 3.435.385 9.112 2.422 9.364 10.497v21.963c-.031 2.356 1.997 2.22 4.454 1.922v2.12c-6.78.046-6.515-.927-6.514-6.8-6.251 11.44-26.43 9.227-25.694-2.275Zm25.626-11.084c-5.14 5.035-23.773-2.524-23.694 11.084 0 8.389 9.745 8.318 13.91 7.247 5.197-1.337 9.656-5.362 9.78-12.675z"/>
        <rect width="84.657" height="85.01" x="7.672" y="7.495" fill="none" stroke-linecap="round" stroke-linejoin="round" stroke-width="5" paint-order="fill markers stroke" rx="14.571" ry="14.485"/>
        <path fill="none" stroke-linecap="round" stroke-linejoin="round" stroke-width="5" d="M34.825 67.352h29.168M35.09 77.428h29.168" paint-order="fill markers stroke"/>
    </g>
</svg>
