<svg xmlns="http://www.w3.org/2000/svg" width="100" height="100">
    <g fill="none" stroke="#f5da55" stroke-linecap="round" stroke-linejoin="round" stroke-width="5" paint-order="fill markers stroke">
        <path d="M54.088 14.742 18.09 91.878s39.173-13.732 52.505-28.53c2.772-3.078 6.076-7.548 4.764-11.477-1.133-3.396-5.722-4.854-9.251-5.455-9.98-1.7-29.79 5.897-29.79 5.897"/>
        <path d="M24.126 24.336c7.037-4.33 14.838-9.826 23.195-12.555 7.382-2.412 15.475-4.69 23.086-3.143 3.806.774 8.052 2.603 10.014 5.954 1.824 3.115 1.907 7.609.27 10.826-6.162 12.12-33.55 23.2-33.55 23.2"/>
    </g>
</svg>
