<svg xmlns="http://www.w3.org/2000/svg" width="100" height="100">
    <g stroke-linecap="round" stroke-linejoin="round" paint-order="fill markers stroke">
        <path fill="none" stroke="#d200d2" stroke-width="5" d="M16.602 91.486c-3.976 0-8.443-4.449-8.443-8.424V32.516c0-3.972 4.453-8.425 8.424-8.425H67.13c3.97 0 8.424 4.453 8.424 8.425v50.546c0 3.971-4.453 8.424-8.424 8.424z"/>
        <path fill="none" stroke="#d200d2" stroke-width="5" d="m10.976 26.903 13.589-13.722c2.18-2.2 5.54-4.667 8.638-4.667h50.214c3.936 0 8.424 4.34 8.424 8.276v45.833c0 3.724-1.71 7.64-4.258 10.356l-14.71 15.683"/>
        <text xml:space="preserve" x="15.046" y="77.537" fill="#d200d2" stroke-width="5.616" font-family="Neutraface Text" font-size="40" style="-inkscape-font-specification:&quot;Neutraface Text&quot;"><tspan x="15.046" y="77.537" font-family="MonoLisa" font-weight="bold" style="-inkscape-font-specification:&quot;MonoLisa Bold&quot;">&gt;</tspan></text>
    </g>
</svg>
