<svg xmlns="http://www.w3.org/2000/svg" width="100" height="100">
    <path fill="none" stroke="#ffd539" stroke-width="5" d="M91.729 46.396c-1.773-3.515-6.508-4.005-9.013-1.18-6.725-5.152-13.417-15.975-9.513-28.855-6.894-.814-14.384 1.29-20.903 5.122-1.688-3.518-2.587-7.278-2.587-12.468-6.163 3.315-11.121 9.461-14.26 16.405-3.502-1.925-6.449-4.508-9.483-8.84-3.112 6.173-3.672 13.947-2.32 21.357-3.942.418-7.817-.016-12.754-1.814 1.011 6.927 5.096 13.7 10.555 19.032-2.996 2.628-6.432 4.508-11.54 5.877 4.75 5.04 11.875 8.23 19.313 9.488-.95 3.82-2.688 7.295-6.047 11.297 6.817 1.408 14.513-.082 21.346-3.342 1.419 3.683 1.99 7.531 1.54 12.743 9.694-4.176 19.168-16.516 20.785-31.047 8.058-1.346 14.223-3.915 18.28-6.064 4.424 1.445 8.79-3.256 6.6-7.71zM66.958 58.585c-.02-3.82-1.344-8.04-1.93-11.923 3.846 1.14 6.616-1.867 5.919-5.898-.658-3.803-3.533-5.834-6.73-4.043.013-4.134 3.22-12.929 6.68-18.579M82.108 45.96c-1.526 3.547.884 6.763.984 7.096"/>
</svg>
