<svg xmlns="http://www.w3.org/2000/svg" width="100" height="100">
    <g fill="none" stroke-linecap="round" stroke-linejoin="round" stroke-width="5" paint-order="fill markers stroke">
        <path stroke="#63b32e" d="M61.897 70.164a23.412 23.412 0 0 1-23.679.067 23.412 23.412 0 0 1-11.626-20.628 23.412 23.412 0 0 1 12.32-20.222"/>
        <path stroke="#5782d9" d="M38.784 29.45a23.412 23.412 0 0 1 31.433 8.744 23.412 23.412 0 0 1-7.83 31.672"/>
        <path stroke="#63b32e" d="M89.926 63.107a42.022 42.022 0 0 1-52.888 26.866A42.022 42.022 0 0 1 9.98 37.184"/>
        <path stroke="#5782d9" d="M10.35 36.079a42.022 42.022 0 0 1 52.742-26.01 42.022 42.022 0 0 1 27.103 52.188"/>
        <path stroke="#fff" d="M49.075 48.483s-9.838 15.232-8.772 22.819"/>
        <path stroke="#fff" d="M10.254 36.45c3.003-6.94 12.03-9.535 19.619-9.682 21.357-.414 16.954 36.693 33.589 43.742 7.841 3.322 22.348-.4 26.52-7.55"/>
    </g>
</svg>
