<svg xmlns="http://www.w3.org/2000/svg" width="100" height="100">
    <g fill="none" stroke="#b0204a" stroke-linecap="round" stroke-linejoin="round" stroke-width="1.141">
        <path stroke-width="5.17210736" d="m84.035 52.609-33.997 33.67L16.04 52.61a22.665 22.665 0 1 1 33.998-29.764 22.665 22.665 0 1 1 33.997 29.791"/>
        <path stroke-width="5.17210736" d="M50.038 22.818 35.11 37.745a4.533 4.533 0 0 0 0 6.41l2.46 2.461a8.016 8.016 0 0 0 11.333 0l4.533-4.533a14.424 14.424 0 0 1 20.399 0l10.199 10.2M52.305 65.88l9.065 9.066m2.266-20.398 9.066 9.066"/>
    </g>
</svg>
