<svg xmlns="http://www.w3.org/2000/svg" width="100" height="100">
    <g fill="none" stroke="#6f4e37" stroke-linecap="round" stroke-linejoin="round" stroke-width="5" paint-order="fill markers stroke">
        <path d="M14.546 36.534c21.467 10.762 58.64 10.033 76.396 0-3.089 10.194-10.56 32.898-18.158 40.302-7.599 7.404-10.861 7.229-17.937 7.529-7.075.3-13.508.44-21.922-7.086-8.414-7.528-16.957-25.391-18.38-40.745Z"/>
        <path d="M14.44 27c21.487 10.773 58.698 10.043 76.47 0M40.285 17.158c-3.912-1.66-10.387-1.482-10.668 2.134-.284 3.651 6.655 3.979 10.313 3.793 3.688-.188 6.708-3.104 9.957-4.86 3.975-2.149 7.944-3.112 11.972-2.49 3.27.506 9.055 1.14 8.654 4.86-.517 4.79-13.395 4.584-14.343 1.779M15.784 47.091c-10.888 10.135-9.44 25.134 11.119 24.67"/>
    </g>
</svg>
