<svg xmlns="http://www.w3.org/2000/svg" width="100" height="100">
    <g fill="none" stroke="#189f20" stroke-width="5">
        <path stroke-linecap="round" stroke-linejoin="round" d="M65.663 67.324a23 23 0 0 1-31.514-1.835 23 23 0 0 1 0-31.567 23 23 0 0 1 31.514-1.836M58.922 44.449h15.094M56.816 54.488H71.7M59.063 59.261l4.282-18.744M71.559 40.447l-4.283 18.744" paint-order="fill markers stroke"/>
        <path d="M53.338 10.199 82.8 27.209a6.67 6.67 0 0 1 3.338 5.781v34.02a6.67 6.67 0 0 1-3.338 5.782l-29.462 17.01a6.673 6.673 0 0 1-6.676 0L17.2 72.792a6.671 6.671 0 0 1-3.338-5.782V32.99a6.677 6.677 0 0 1 3.338-5.782l29.462-17.01a6.672 6.672 0 0 1 6.676 0z"/>
    </g>
</svg>
