<svg xmlns="http://www.w3.org/2000/svg" width="100" height="100">
    <path fill="none" stroke="#23d96c" stroke-linecap="round" stroke-linejoin="round" stroke-width="5" d="M87.474 45.352c-.047 25.82-20.955 46.776-46.776 46.823V81.603l-.046-.046C20.632 76.364 8.563 55.97 13.709 35.95a37.425 37.425 0 0 1 45.56-26.943C75.78 13.264 87.473 28.326 87.473 45.4ZM43.037 31.366l-2.339-4.678M57.07 59.432l2.339 4.677M36.02 52.415l-4.678 2.339m14.033 4.678-2.339 4.677m11.694-32.743 2.339-4.678m11.694 25.727-4.678-2.339m-28.065-9.355-4.678-2.339"/>
</svg>
