<svg xmlns="http://www.w3.org/2000/svg" width="100" height="100">
    <g fill="#04c38e">
        <path d="m74.076 35.817-8.459 21.224-8.51-21.224h-6.965l11.938 28.97-8.484 20.428 6.1 1.203 20.98-50.6z"/>
        <path d="M36.918 41.184a8.381 8.381 0 0 1 7.89 5.136l.115.254 5.935-2-.128-.302a14.612 14.612 0 0 0-13.803-8.988 14.843 14.843 0 0 0-10.872 4.247 14.255 14.255 0 0 0-4.41 10.6 14.185 14.185 0 0 0 4.4 10.557 14.843 14.843 0 0 0 10.873 4.25A14.618 14.618 0 0 0 50.72 55.95l.129-.302-5.945-2.003-.113.266a8.227 8.227 0 0 1-7.883 5.12 8.346 8.346 0 0 1-6.166-2.545 8.757 8.757 0 0 1-2.507-6.35 8.904 8.904 0 0 1 2.507-6.42 8.307 8.307 0 0 1 6.188-2.541zM70.066 81.523a37.29 37.29 0 0 0 13.18-48.835l5.4-2.79A43.28 43.28 0 0 1 73.34 86.62ZM7.967 61.5a43.032 43.032 0 0 1-1.553-11.473A43.597 43.597 0 0 1 34.4 9.621l2.196 5.633a37.52 37.52 0 0 0-24.075 34.77 37.04 37.04 0 0 0 1.336 9.87z"/>
        <path d="M34.109 9.762a43.876 43.876 0 0 1 54.777 20.65l-5.418 2.754a37.765 37.765 0 0 0-47.141-17.767l-2.218-5.627ZM54.778 82.358l-1.483 3.563a1.97 1.97 0 0 1-1.727 1.213c-.501.023-1.008.035-1.519.035a37.832 37.832 0 0 1-36.734-29.046L7.37 59.455a43.404 43.404 0 0 0 15.183 24.12 44.14 44.14 0 0 0 27.432 9.629h.09c.584 0 1.168 0 1.746-.035a8.086 8.086 0 0 0 7.117-4.953l1.926-4.655-6.1-1.203z"/>
    </g>
</svg>
