<svg xmlns="http://www.w3.org/2000/svg" width="100" height="100">
    <path fill="none" stroke="#4d8dc0" stroke-linecap="round" stroke-linejoin="round" stroke-width="5" d="M92.118 19.937c0 6.637-18.857 12.022-42.118 12.022-23.261 0-42.118-5.385-42.118-12.016m84.236 0C92.118 13.294 73.26 7.909 50 7.909c-23.261 0-42.118 5.385-42.118 12.028m84.236 0v60.126C92.118 86.7 73.26 92.091 50 92.091c-23.261 0-42.118-5.385-42.118-12.028v-60.12m84.236 30.06c0 6.643-18.857 12.034-42.118 12.034-23.261 0-42.118-5.391-42.118-12.034"/>
</svg>
