<svg xmlns="http://www.w3.org/2000/svg" width="100" height="100">
    <g fill="none" stroke="#1a875e" stroke-linecap="round" stroke-linejoin="round" stroke-width="5">
        <rect width="84.157" height="84.157" x="7.945" y="7.945" rx="9.205"/>
        <path d="M73.358 38.982v23.017c0 7.931-.58 11.735-2.32 15.023-1.613 3.16-3.74 5.159-8.125 7.35l-9.22-4.384c4.384-2.063 6.512-3.868 7.866-6.641 1.419-2.837 1.87-6.125 1.87-14.765v-19.6ZM53.333 21.533v45.96c-5.093.967-8.833 1.354-12.895 1.354-12.121 0-18.44-5.48-18.44-15.99 0-10.123 6.706-16.699 17.086-16.699 1.612 0 2.837.129 4.32.516v-15.14h9.93zm-13.282 22.62c-5.029 0-7.93 3.095-7.93 8.51 0 5.288 2.772 8.19 7.866 8.19 1.096 0 1.999-.065 3.417-.258V44.668c-1.16-.386-2.127-.515-3.353-.515Zm33.307-22.567v10.188H63.43V21.586h9.93z"/>
    </g>
</svg>
