<svg xmlns="http://www.w3.org/2000/svg" width="100" height="100">
    <g fill="none" stroke="#e0efef" stroke-linecap="round" stroke-linejoin="round" stroke-width="5" paint-order="fill markers stroke">
        <path d="M28.676 50.684c1.373.226 3.047-.067 7.169-.022l-.313 4.227s-15.809 9.39-4.07 24.574c-8.843 2.504-9.704 7.356-9.704 7.356l33.496.313s36.156-16.122.313-54.313c9.747-5.174 6.81-12.302 4.382-15.026-4.462-6.324-12.521-1.879-12.521-1.879-3.496-3.965-9.027-3.704-11.896-1.095-3.866 4.037-3.623 10.215.626 12.678-4.76 1.624-14.922 4.01-20.889 13.894-4.098-1.606-5.947-.02-6.325 2.974.258 1.371-.04 4.7 7.197 2.596 1.642 1.222 2.406 1.395 3.73 1.97 0 0-.202 5.227.185 5.614.387.387 4.482 1.66 8.08.221.442-1.937.54-4.082.54-4.082z"/>
        <path d="M61.394 83.432c7.674-.849 17.83-4.385 21.693-11.621 6.74-12.623-8.847-29.186-4.206-42.722 1.914-5.579 3.616-10.109 12.175-12.839"/>
    </g>
</svg>
