<svg xmlns="http://www.w3.org/2000/svg" width="100" height="100">
    <path fill="none" stroke="#a2003e" stroke-linecap="round" stroke-linejoin="round" stroke-width="5" d="M40.228 35.361c.479-6.633 5.05-11.091 10.404-11.106 5.394.014 9.29 4.473 9.423 11.106zm37.677 41.687c2.495-3.062 4.729-6.666 6.757-10.79l-11.25-6.434c-3.951 7.35-9.729 14.119-17.715 14.162-11.63-.043-16.197-11.424-16.173-26.073h43.452c.059-1.652.059-2.421 0-3.219.283-8.713-1.736-16.038-5.404-21.742l-.022.018h15.06v54.074H77.88Zm-53.532-.004c-5.793-7.032-9.185-16.739-9.178-28.326-.007-10.244 2.806-19.05 7.64-25.752H7.39v54.078h16.978Z"/>
</svg>
