<svg xmlns="http://www.w3.org/2000/svg" width="100" height="100">
    <path fill="#4b32c3" d="m8.641 50-2.64-1.323a2.954 2.954 0 0 0 0 2.646zm17.726-35.45v-2.954a2.954 2.954 0 0 0-2.641 1.63zm47.266 0 2.641-1.324a2.954 2.954 0 0 0-2.64-1.63zM91.36 50l2.64 1.323a2.954 2.954 0 0 0 0-2.646zM73.633 85.45v2.954a2.954 2.954 0 0 0 2.641-1.63zm-47.266 0-2.641 1.324a2.954 2.954 0 0 0 2.64 1.63zM50 29.32l1.637-2.457L50 25.77l-1.637 1.093ZM32.275 41.138l-1.637-2.457-1.317.874v1.583zm0 17.726H29.32v1.583l1.317.874zM50 70.679l-1.637 2.458L50 74.23l1.637-1.093zm17.725-11.816 1.637 2.457 1.317-.874v-1.583zm0-17.726h2.954v-1.583l-1.317-.874ZM11.282 51.323l17.726-35.45-5.282-2.647L6 48.676Zm15.085-33.819h47.266v-5.908H26.367Zm44.625-1.63 17.726 35.45L94 48.676l-17.726-35.45Zm17.726 32.803-17.726 35.45 5.282 2.647L94 51.324ZM73.633 82.496H26.367v5.908h47.266Zm-44.625 1.63-17.726-35.45L6 51.324l17.726 35.45Zm19.355-57.263L30.638 38.68l3.274 4.915L51.637 31.78ZM29.321 41.137v17.726h5.908V41.137Zm1.317 20.183 17.725 11.817 3.274-4.916-17.725-11.816Zm20.999 11.817L69.362 61.32l-3.274-4.915L48.363 68.22Zm19.042-14.274V41.137h-5.908v17.726ZM69.362 38.68 51.637 26.863l-3.274 4.916 17.725 11.816Z"/>
</svg>
