<svg xmlns="http://www.w3.org/2000/svg" width="100" height="100">
    <g fill="none" stroke-linecap="round" stroke-linejoin="round" stroke-width="5">
        <path stroke="#d9d9d9" d="M44.714 27.878v-2.975c0-7.56-7.295-7.56-7.295-7.56h-26.19c-8.729 0-8.729 9.048-8.729 9.048V74.6c0 7.436 7.773 8.056 7.773 8.056H40M94.627 45l1.939-7.331c1.833-8.828-7.31-9.543-7.31-9.543h-65.23s-4.886 1.206-6.747 5.588c-1.86 4.381-5.75 15.511-5.75 15.511" paint-order="fill markers stroke"/>
        <path stroke="#0098ff" d="m51.982 63.392 28.533 27.815s1.008.757 1.93.083l8.092-3.912c1.102-.76.947-1.7.947-1.7V60.081c0-1.124-1.139-1.513-1.139-1.513l-7.459-3.635c-1.63-1.018-2.696.184-2.696.184l-2.377 2.145-25.76 24.355"/>
    </g>
</svg>
