<svg xmlns="http://www.w3.org/2000/svg" width="100" height="100">
    <g fill="none" stroke-width="5">
        <path stroke="#d9d9d9" stroke-linecap="round" stroke-linejoin="round" d="M44.714 27.878v-2.975c0-7.56-7.295-7.56-7.295-7.56h-26.19c-8.729 0-8.729 9.048-8.729 9.048V74.6c0 7.436 7.773 8.056 7.773 8.056H40M94.627 45l1.939-7.331c1.833-8.828-7.31-9.543-7.31-9.543h-65.23s-4.886 1.206-6.747 5.588c-1.86 4.381-5.75 15.511-5.75 15.511" paint-order="fill markers stroke"/>
        <path stroke="#ff7043" d="M85.03 52.828a1.91 1.91 0 0 0-1.41-.621H50.266a1.91 1.91 0 0 0-1.903 2.08l2.904 32.476a1.91 1.91 0 0 0 1.39 1.67l13.755 3.82a1.903 1.903 0 0 0 .512.07 1.933 1.933 0 0 0 .51-.068l13.792-3.82a1.91 1.91 0 0 0 1.393-1.672l2.903-32.476a1.91 1.91 0 0 0-.492-1.46Z"/>
    </g>
</svg>
