<svg xmlns="http://www.w3.org/2000/svg" width="100" height="100">
    <g fill="none" stroke-linecap="round" stroke-linejoin="round" paint-order="fill markers stroke">
        <path stroke="#d9d9d9" stroke-width="5" d="M44.714 27.878v-2.975c0-7.56-7.295-7.56-7.295-7.56h-26.19c-8.729 0-8.729 9.048-8.729 9.048V74.6c0 7.436 7.773 8.056 7.773 8.056H40M94.627 45l1.939-7.331c1.833-8.828-7.31-9.543-7.31-9.543h-65.23s-4.886 1.206-6.747 5.588c-1.86 4.381-5.75 15.511-5.75 15.511"/>
        <path stroke="#e5aa6e" stroke-width="2.66" d="M90.763 56.228v24.836l-21.46 12.4-21.496-12.4V56.299l21.531-12.471 10.713 6.2z"/>
        <path stroke="#e5aa6e" stroke-width="2.66" d="M48.516 56.698 58.9 62.672l10.385 5.974M89.92 56.648 69.306 68.549v24.227"/>
        <path stroke="#e5aa6e" stroke-width="2.66" d="M79.924 50.027 58.912 62.672v8.448"/>
    </g>
</svg>
