<svg xmlns="http://www.w3.org/2000/svg" width="100" height="100">
    <g fill="none" stroke-linecap="round" stroke-linejoin="round" stroke-width="5">
        <path stroke="#d9d9d9" d="M44.714 27.878v-2.975c0-7.56-7.295-7.56-7.295-7.56h-26.19c-8.729 0-8.729 9.048-8.729 9.048V74.6c0 7.436 7.773 8.056 7.773 8.056H40M94.627 45l1.939-7.331c1.833-8.828-7.31-9.543-7.31-9.543h-65.23s-4.886 1.206-6.747 5.588c-1.86 4.381-5.75 15.511-5.75 15.511" paint-order="fill markers stroke"/>
        <path stroke="#52be3e" d="M50.748 53.522V87.8a4.897 4.897 0 0 0 6.733 4.506L87.475 74.92a4.897 4.897 0 0 0 0-8.57L57.481 48.969a4.897 4.897 0 0 0-6.733 4.284"/>
    </g>
</svg>
