<svg xmlns="http://www.w3.org/2000/svg" width="100" height="100">
    <g fill="none" stroke-linecap="round" stroke-linejoin="round" stroke-width="5">
        <path stroke="#d9d9d9" d="M44.714 27.878v-2.975c0-7.56-7.295-7.56-7.295-7.56h-26.19c-8.729 0-8.729 9.048-8.729 9.048V74.6c0 7.436 7.773 8.056 7.773 8.056H40M94.627 45l1.939-7.331c1.833-8.828-7.31-9.543-7.31-9.543h-65.23s-4.886 1.206-6.747 5.588c-1.86 4.381-5.75 15.511-5.75 15.511" paint-order="fill markers stroke"/>
        <g stroke="#f57f17">
            <rect width="11.422" height="11.826" x="79.03" y="80.365" rx="3.179" ry="3.291"/>
            <circle cx="56.742" cy="86.245" r="5.626"/>
            <circle cx="84.775" cy="58.212" r="5.626"/>
            <circle cx="56.742" cy="58.212" r="5.626"/>
            <path d="m80.493 62.516-19.06 19.06M78.558 86.22H62.885M62.885 58.162h15.77"/>
        </g>
    </g>
</svg>
