<svg xmlns="http://www.w3.org/2000/svg" width="100" height="100">
    <path fill="none" stroke="#d9d9d9" stroke-linecap="round" stroke-linejoin="round" stroke-width="5" d="M24.023 28.126H78.31s9.207.248 9.207 9.543V45M40 82.656H10.272S2.5 82.036 2.5 74.601V26.39s0-9.047 8.729-9.047h26.186s7.294 0 7.294 7.56v2.974" paint-order="fill markers stroke"/>
    <path fill="#0277bd" stroke="#0277bd" stroke-width="1.031" d="M49.468 84.036V56.717a6.07 6.07 0 0 1 6.07-6.07H83.87a2.024 2.024 0 0 1 2.024 2.023v36.425a2.024 2.024 0 0 1-2.024 2.024H56.55a7.083 7.083 0 0 1-7.082-7.083zm32.377 3.036V81H56.55a3.035 3.035 0 0 0 0 6.07zm-28.33-9.436a7.054 7.054 0 0 1 3.035-.682h25.295v-22.26H55.538a2.024 2.024 0 0 0-2.023 2.023z"/>
</svg>
