<svg xmlns="http://www.w3.org/2000/svg" width="100" height="100">
    <path fill="none" stroke="#d9d9d9" stroke-linecap="round" stroke-linejoin="round" stroke-width="5" d="M44.714 27.878v-2.975c0-7.56-7.295-7.56-7.295-7.56h-26.19c-8.729 0-8.729 9.048-8.729 9.048V74.6c0 7.436 7.773 8.056 7.773 8.056H40M94.627 45l1.939-7.331c1.833-8.828-7.31-9.543-7.31-9.543h-65.23s-4.886 1.206-6.747 5.588c-1.86 4.381-5.75 15.511-5.75 15.511" paint-order="fill markers stroke"/>
    <path fill="#aeac43" stroke="#aeac43" stroke-width="1.945" d="M65.45 47.233c-9.006 0-16.06 7.326-16.06 16.333 0 6.785 3.333 10.017 5.967 12.376 1.695 1.52 2.836 2.435 2.836 3.563v2.468c0 .063.009.125.017.187h-.033v4.213c0 4.444 2.874 7.43 7.326 7.43 4.296 0 7.228-2.986 7.228-7.43V82.16h-.042c.008-.063.019-.125.019-.188v-2.468c0-1.717 1.275-2.755 3.207-4.443 2.616-2.283 5.595-5.125 5.595-11.496.001-9.007-7.054-16.334-16.06-16.334Zm-.055 43.66c-2.725 0-4.307-1.69-4.307-4.52l-.02-1.94c1.046.357 2.473.638 4.383.638 1.884 0 3.313-.301 4.37-.671v1.973c0 2.872-1.604 4.52-4.426 4.52zm8.607-18.023c-1.977 1.726-4.204 3.511-4.204 6.635v1.84c-.69.385-1.964.843-4.372.843-2.527 0-3.726-.448-4.321-.794v-1.89c0-2.483-1.942-4.06-3.806-5.73-2.47-2.214-4.997-4.723-4.997-10.21 0-7.4 5.748-13.42 13.148-13.42 7.402 0 13.15 6.02 13.15 13.422 0 5.049-2.204 7.212-4.598 9.304z"/>
</svg>
