<svg xmlns="http://www.w3.org/2000/svg" width="100" height="100">
    <path fill="none" stroke="#d9d9d9" stroke-linecap="round" stroke-linejoin="round" stroke-width="5" d="M44.714 27.878v-2.975c0-7.56-7.295-7.56-7.295-7.56h-26.19c-8.729 0-8.729 9.048-8.729 9.048V74.6c0 7.436 7.773 8.056 7.773 8.056H40M94.627 45l1.939-7.331c1.833-8.828-7.31-9.543-7.31-9.543h-65.23s-4.886 1.206-6.747 5.588c-1.86 4.381-5.75 15.511-5.75 15.511" paint-order="fill markers stroke"/>
    <path fill="#7e57c2" stroke="#7e57c2" d="M68.12 53.141c1.439-2.563 5.128-2.563 6.567 0l4.358 7.78-2.678-.474a2.09 2.09 0 1 0-.729 4.118l7.108 1.254a2.09 2.09 0 0 0 2.348-1.397l2.091-6.271a2.09 2.09 0 0 0-3.967-1.323l-.624 1.873-4.26-7.603c-3.034-5.414-10.827-5.414-13.861 0l-3.688 6.58a2.09 2.09 0 1 0 3.646 2.045zm20.15 15.692a2.09 2.09 0 0 0-3.646 2.043l5.525 9.861c1.404 2.51-.408 5.603-3.283 5.603H76.284l1.324-1.589a2.09 2.09 0 0 0-3.21-2.677l-4.182 5.017a2.09 2.09 0 0 0 0 2.676l4.181 5.018a2.09 2.09 0 0 0 3.211-2.676l-1.32-1.588h10.578c6.07 0 9.897-6.53 6.93-11.827zM64.292 86.34h-8.354c-2.877 0-4.688-3.094-3.283-5.603l5.934-10.586 1.353 2.538a2.09 2.09 0 0 0 3.69-1.966l-3.345-6.272a2.09 2.09 0 0 0-2.188-1.079l-7.526 1.254a2.09 2.09 0 1 0 .685 4.125l3.663-.61-5.914 10.553c-2.967 5.295.86 11.827 6.931 11.827h8.354a2.09 2.09 0 1 0 0-4.18z"/>
</svg>
