<svg xmlns="http://www.w3.org/2000/svg" width="100" height="100">
    <path fill="none" stroke="#d9d9d9" stroke-linecap="round" stroke-linejoin="round" stroke-width="5" d="M24.023 28.126H78.31s9.207.248 9.207 9.543V45M40 82.656H10.272S2.5 82.036 2.5 74.601V26.39s0-9.047 8.729-9.047h26.186s7.294 0 7.294 7.56v2.974" paint-order="fill markers stroke"/>
    <path fill="#39b5c6" d="M67.652 49.227c-12.282 0-22.213 9.93-22.213 22.212s9.93 22.213 22.213 22.213c12.282 0 22.212-9.93 22.212-22.213 0-12.282-9.93-22.212-22.212-22.212zm16.985 20.906h-7.84c0-5.227-.783-10.453-2.351-14.373 5.488 2.613 9.669 7.84 10.191 14.373zM67.652 88.425c-1.046-.523-3.398-4.704-3.92-13.066h7.578c-.523 8.362-2.613 12.543-3.658 13.066Zm-3.92-18.292c.261-9.93 2.874-15.157 3.658-15.68 1.045.523 3.659 5.75 3.92 15.68zM60.857 55.76c-1.568 3.92-2.09 9.146-2.352 14.373h-7.84c.523-6.533 4.705-11.76 10.192-14.373zm-9.669 19.6h7.317c.262 4.18 1.046 8.361 2.352 11.759-4.704-2.091-8.362-6.533-9.669-11.76zm23.258 11.759c1.306-3.398 2.09-7.317 2.352-11.76h7.578c-1.568 5.227-5.226 9.669-9.93 11.76z"/>
</svg>
