<svg xmlns="http://www.w3.org/2000/svg" width="100" height="100">
    <g fill="none" stroke-linecap="round" stroke-linejoin="round" stroke-width="5" paint-order="fill markers stroke">
        <path stroke="#d9d9d9" d="M24.023 28.126H78.31s9.207.248 9.207 9.543V45M40 82.656H10.272S2.5 82.036 2.5 74.601V26.39s0-9.047 8.729-9.047h26.186s7.294 0 7.294 7.56v2.974"/>
        <path stroke="#cf649a" d="M61.817 67.044c5.94 3.525 10.777 2.461 15.57-.666 4.792-3.127 8.696-9.173 4.177-13.69-2.26-2.257-10.486-2.634-18.105.621-7.62 3.255-14.798 9.975-15.297 13.583-.997 7.217 10.169 9.515 11.74 13.974 1.571 4.458.898 6.52-.666 9.325-1.564 2.805-6.308 5.367-8.992 2.248-2.685-3.12 5.369-9.085 9.575-10.74 4.205-1.657 10.036-1.298 11.906.832 1.87 2.13-.206 5.911-.083 5.911"/>
    </g>
</svg>
