<svg xmlns="http://www.w3.org/2000/svg" width="100" height="100">
    <g fill="none" stroke-linecap="round" stroke-linejoin="round" stroke-width="5" paint-order="fill markers stroke">
        <path stroke="#d9d9d9" d="M44.714 27.878v-2.975c0-7.56-7.295-7.56-7.295-7.56h-26.19c-8.729 0-8.729 9.048-8.729 9.048V74.6c0 7.436 7.773 8.056 7.773 8.056H40M94.627 45l1.939-7.331c1.833-8.828-7.31-9.543-7.31-9.543h-65.23s-4.886 1.206-6.747 5.588c-1.86 4.381-5.75 15.511-5.75 15.511"/>
        <path stroke="#00acc1" d="M70.281 47.996c-2.986 0-4.046 4.562-6.995 5.597-2.95 1.034-7.486-2.309-9.794 0-2.308 2.308 1.034 6.844 0 9.793-1.035 2.95-5.596 4.01-5.596 6.996 0 2.986 4.561 4.046 5.596 6.995 1.034 2.95-2.308 7.485 0 9.794 2.307 2.31 6.845-1.026 9.794.008 2.948 1.034 4.01 5.59 6.995 5.588 2.985 0 4.046-4.561 6.996-5.596 2.949-1.034 7.484 2.307 9.793 0 2.31-2.307-1.026-6.845.008-9.794 1.035-2.948 5.59-4.01 5.589-6.995-.001-2.985-4.562-4.046-5.597-6.996-1.034-2.949 2.309-7.485 0-9.793-2.308-2.309-6.844 1.034-9.794 0-2.949-1.035-4.009-5.597-6.995-5.597z"/>
        <circle cx="70.281" cy="70.382" r="8.395" stroke="#00acc1"/>
    </g>
</svg>
