<svg xmlns="http://www.w3.org/2000/svg" width="100" height="100">
    <g fill="none" stroke-linecap="round" stroke-linejoin="round" stroke-width="5">
        <path stroke="#d9d9d9" d="M44.714 27.878v-2.975c0-7.56-7.295-7.56-7.295-7.56h-26.19c-8.729 0-8.729 9.048-8.729 9.048V74.6c0 7.436 7.773 8.056 7.773 8.056H40M94.627 45l1.939-7.331c1.833-8.828-7.31-9.543-7.31-9.543h-65.23s-4.886 1.206-6.747 5.588c-1.86 4.381-5.75 15.511-5.75 15.511" paint-order="fill markers stroke"/>
        <path stroke="#138700" d="m69.283 50.065-16.948 7.533v11.298c0 10.451 7.231 20.225 16.948 22.597C79 89.121 86.23 79.347 86.23 68.896V57.598Z"/>
        <path stroke="#138700" d="m60.51 72.518 5.049 5.049 12.349-12.35" paint-order="fill markers stroke"/>
    </g>
</svg>
