<svg xmlns="http://www.w3.org/2000/svg" width="100" height="100">
    <path fill="none" stroke="#d9d9d9" stroke-linecap="round" stroke-linejoin="round" stroke-width="5" d="M44.714 27.878v-2.975c0-7.56-7.295-7.56-7.295-7.56h-26.19c-8.729 0-8.729 9.048-8.729 9.048V74.6c0 7.436 7.773 8.056 7.773 8.056H40M94.627 45l1.939-7.331c1.833-8.828-7.31-9.543-7.31-9.543h-65.23s-4.886 1.206-6.747 5.588c-1.86 4.381-5.75 15.511-5.75 15.511" paint-order="fill markers stroke"/>
    <path fill="#0288d1" stroke="#0288d1" stroke-width="1.933" d="M65.655 94.075c-.877 0-1.702-.34-2.322-.959L44.475 74.259a3.302 3.302 0 0 1-.003-4.647l6.908-6.907a1.382 1.382 0 0 1 2.339 1.22c-.07.395-.103.712-.103.998 0 3.025 2.462 5.536 5.487 5.536 3.028 0 5.24-2.511 5.24-5.536 0-3.028-2.212-5.49-5.24-5.49-.283 0-.599.033-.994.102-.6.111-1.189-.186-1.468-.72a1.384 1.384 0 0 1 .248-1.618l6.441-6.442c1.248-1.242 3.405-1.24 4.647-.003l4.715 4.718c.985-3.059 3.857-5.28 7.238-5.28 4.192 0 7.602 3.412 7.602 7.605 0 3.38-2.22 6.253-5.28 7.236l4.58 4.578a3.297 3.297 0 0 1 .002 4.649L67.98 93.113a3.27 3.27 0 0 1-2.324.962zM51.09 66.904l-4.661 4.66a.53.53 0 0 0 .003.742l18.851 18.852c.265.262.473.265.742-.002l18.851-18.852a.526.526 0 0 0-.001-.741l-6.649-6.645a1.382 1.382 0 0 1 1.138-2.35l.21.027c.117.016.233.035.354.035a4.84 4.84 0 0 0 4.838-4.834c0-2.67-2.17-4.84-4.838-4.84a4.844 4.844 0 0 0-4.835 4.84c0 .11.017.218.032.327l.03.246a1.383 1.383 0 0 1-.779 1.395 1.386 1.386 0 0 1-1.572-.27l-6.78-6.784c-.265-.262-.473-.264-.743.003l-4.196 4.196c3.598.89 6.021 4.146 6.021 8.015 0 4.55-3.452 8.3-8.004 8.3-3.868 0-7.122-2.725-8.012-6.32z"/>
</svg>
