<svg xmlns="http://www.w3.org/2000/svg" width="100" height="100">
    <path fill="none" stroke="#d9d9d9" stroke-linecap="round" stroke-linejoin="round" stroke-width="5" d="M44.714 27.878v-2.975c0-7.56-7.295-7.56-7.295-7.56h-26.19c-8.729 0-8.729 9.048-8.729 9.048V74.6c0 7.436 7.773 8.056 7.773 8.056H40M94.627 45l1.939-7.331c1.833-8.828-7.31-9.543-7.31-9.543h-65.23s-4.886 1.206-6.747 5.588c-1.86 4.381-5.75 15.511-5.75 15.511" paint-order="fill markers stroke"/>
    <path fill="#0277bd" stroke="#0277bd" stroke-width="1.031" d="M49.468 84.036V56.717a6.07 6.07 0 0 1 6.07-6.07H83.87a2.024 2.024 0 0 1 2.024 2.023v36.425a2.024 2.024 0 0 1-2.024 2.024H56.55a7.083 7.083 0 0 1-7.082-7.083zm32.377 3.035v-6.07H56.55a3.035 3.035 0 0 0 0 6.07zm-28.33-9.436a7.054 7.054 0 0 1 3.035-.682h25.295v-22.26H55.538a2.024 2.024 0 0 0-2.023 2.024z"/>
</svg>
