<svg xmlns="http://www.w3.org/2000/svg" width="100" height="100">
    <path fill="none" stroke="#d9d9d9" stroke-linecap="round" stroke-linejoin="round" stroke-width="5" d="M24.023 28.126H78.31s9.207.248 9.207 9.543V45M40 82.656H10.272S2.5 82.036 2.5 74.601V26.39s0-9.047 8.729-9.047h26.186s7.294 0 7.294 7.56v2.974" paint-order="fill markers stroke"/>
    <path fill="#fbc02d" stroke="#fbc02d" stroke-width="1.35" d="M85.271 81.333a5.869 5.869 0 0 0-3.04.866l-4.699-4.713a9.122 9.122 0 0 0 0-10.551l4.698-4.714a5.869 5.869 0 0 0 3.041.867 6.082 6.082 0 1 0-6.081-6.081 5.869 5.869 0 0 0 .866 3.04l-4.713 4.698a9.122 9.122 0 0 0-10.551 0l-4.714-4.698a5.869 5.869 0 0 0 .867-3.04 6.082 6.082 0 1 0-6.081 6.081 5.869 5.869 0 0 0 3.04-.867l4.698 4.714a9.122 9.122 0 0 0 0 10.551L57.904 82.2a5.869 5.869 0 0 0-3.04-.866 6.082 6.082 0 1 0 6.081 6.081 5.869 5.869 0 0 0-.867-3.04l4.714-4.699a9.122 9.122 0 0 0 10.551 0l4.713 4.698a5.869 5.869 0 0 0-.866 3.041 6.082 6.082 0 1 0 6.081-6.081zm0-27.367a3.04 3.04 0 1 1-3.04 3.04 3.04 3.04 0 0 1 3.04-3.04zm-33.448 3.04a3.04 3.04 0 1 1 3.04 3.041 3.04 3.04 0 0 1-3.04-3.04zm3.04 33.449a3.04 3.04 0 1 1 3.041-3.04 3.04 3.04 0 0 1-3.04 3.04zm15.204-12.163a6.082 6.082 0 1 1 6.082-6.082 6.082 6.082 0 0 1-6.082 6.082Zm15.204 12.163a3.04 3.04 0 1 1 3.041-3.04 3.04 3.04 0 0 1-3.04 3.04z"/>
</svg>
