<svg xmlns="http://www.w3.org/2000/svg" width="100" height="100">
    <path fill="none" stroke="#d9d9d9" stroke-linecap="round" stroke-linejoin="round" stroke-width="5" d="M44.714 27.878v-2.975c0-7.56-7.295-7.56-7.295-7.56h-26.19c-8.729 0-8.729 9.048-8.729 9.048V74.6c0 7.436 7.773 8.056 7.773 8.056H40M94.627 45l1.939-7.331c1.833-8.828-7.31-9.543-7.31-9.543h-65.23s-4.886 1.206-6.747 5.588c-1.86 4.381-5.75 15.511-5.75 15.511" paint-order="fill markers stroke"/>
    <path fill="#3ab4c5" d="M67.651 49.227c-12.282 0-22.212 9.93-22.212 22.212s9.93 22.212 22.212 22.212 22.212-9.93 22.212-22.212-9.93-22.212-22.212-22.212zm16.986 20.906h-7.84c0-5.227-.784-10.453-2.352-14.373 5.488 2.613 9.67 7.84 10.192 14.373zM67.65 88.425c-1.045-.523-3.397-4.704-3.92-13.066h7.579c-.523 8.362-2.614 12.543-3.659 13.066zm-3.92-18.292c.262-9.93 2.875-15.157 3.659-15.68 1.045.523 3.658 5.75 3.92 15.68zM60.857 55.76c-1.568 3.92-2.09 9.146-2.352 14.373h-7.84c.523-6.533 4.704-11.76 10.192-14.373Zm-9.669 19.599h7.317c.261 4.181 1.045 8.362 2.352 11.76-4.704-2.091-8.362-6.534-9.669-11.76Zm23.257 11.76c1.307-3.398 2.091-7.318 2.352-11.76h7.579c-1.568 5.226-5.227 9.669-9.93 11.76z"/>
</svg>
