<svg xmlns="http://www.w3.org/2000/svg" width="100" height="100">
    <g fill="none" stroke-linecap="round" stroke-linejoin="round" stroke-width="5">
        <path stroke="#d9d9d9" d="M24.023 28.126H78.31s9.207.248 9.207 9.543V45M40 82.656H10.272S2.5 82.036 2.5 74.601V26.39s0-9.047 8.729-9.047h26.186s7.294 0 7.294 7.56v2.974" paint-order="fill markers stroke"/>
        <path stroke="#0098ff" d="m51.982 63.392 28.532 27.815s1.009.757 1.931.083l8.092-3.912c1.101-.76.946-1.7.946-1.7V60.081c0-1.124-1.138-1.513-1.138-1.513l-7.46-3.635c-1.629-1.018-2.696.184-2.696.184l-2.376 2.145-25.76 24.355"/>
    </g>
</svg>
