<svg xmlns="http://www.w3.org/2000/svg" width="100" height="100">
    <path fill="none" stroke="#d9d9d9" stroke-linecap="round" stroke-linejoin="round" stroke-width="5" d="M44.714 27.878v-2.975c0-7.56-7.295-7.56-7.295-7.56h-26.19c-8.729 0-8.729 9.048-8.729 9.048V74.6c0 7.436 7.773 8.056 7.773 8.056H40M94.627 45l1.939-7.331c1.833-8.828-7.31-9.543-7.31-9.543h-65.23s-4.886 1.206-6.747 5.588c-1.86 4.381-5.75 15.511-5.75 15.511" paint-order="fill markers stroke"/>
    <path fill="#7cb342" d="m95.03 79.972-11.125-11.1a16.86 16.86 0 0 0 .345-3.447 18.88 18.88 0 0 0-26.854-17.107 2.461 2.461 0 0 0-1.403 1.822 2.461 2.461 0 0 0 .689 2.166l10.707 10.682-4.43 4.43-10.683-10.706a2.461 2.461 0 0 0-2.166-.665 2.461 2.461 0 0 0-1.822 1.378 18.88 18.88 0 0 0 17.23 26.855 16.86 16.86 0 0 0 3.446-.345l11.101 11.126a2.461 2.461 0 0 0 3.496 0 2.461 2.461 0 0 0 0-3.496L71.5 79.505a2.461 2.461 0 0 0-2.339-.64 14.473 14.473 0 0 1-3.643.492 13.956 13.956 0 0 1-14.08-13.932 14.769 14.769 0 0 1 .198-2.461l9.649 9.673a2.461 2.461 0 0 0 3.495 0l7.827-7.901a2.461 2.461 0 0 0 0-3.422l-9.575-9.648a15.064 15.064 0 0 1 2.462-.197 13.956 13.956 0 0 1 13.931 13.956 14.473 14.473 0 0 1-.492 3.643 2.461 2.461 0 0 0 .64 2.338l12.061 12.061a2.471 2.471 0 0 0 3.495-3.495z"/>
</svg>
