<svg xmlns="http://www.w3.org/2000/svg" width="100" height="100">
    <g stroke-linecap="round" stroke-linejoin="round">
        <path fill="none" stroke="#d9d9d9" stroke-width="5" d="M44.714 27.878v-2.975c0-7.56-7.295-7.56-7.295-7.56h-26.19c-8.729 0-8.729 9.048-8.729 9.048V74.6c0 7.436 7.773 8.056 7.773 8.056H40M94.627 45l1.939-7.331c1.833-8.828-7.31-9.543-7.31-9.543h-65.23s-4.886 1.206-6.747 5.588c-1.86 4.381-5.75 15.511-5.75 15.511" paint-order="fill markers stroke"/>
        <path fill="#999" stroke="#999" stroke-width="2.038" d="M62.887 85.899a1.608 1.608 0 1 0-.965-3.068zm-11.73-9.518-1.557-.412-.817 3.113 1.556.408.817-3.113zm22.502 16.023v1.608h3.215v-1.608Zm.202-15.477-.173-1.598a1.608 1.608 0 0 0-.962 2.74l1.132-1.139zm11.052-12.135h1.608v-.01l-1.608.006zm-2.678-6.454-1.499-.579a1.608 1.608 0 0 0 .36 1.714zm-.161-6.486 1.466-.656a1.608 1.608 0 0 0-1.026-.887ZM75.086 54.4l-.405 1.556a1.608 1.608 0 0 0 1.28-.206zm-12.502 0-.874 1.35a1.608 1.608 0 0 0 1.28.206zm-6.987-2.544-.44-1.543a1.608 1.608 0 0 0-1.03.887zm-.16 6.486 1.137 1.135a1.608 1.608 0 0 0 .36-1.717zm-2.68 6.505h1.608v-.006zM63.813 76.93l1.132 1.142a1.608 1.608 0 0 0-.943-2.737l-.193 1.595zm-1.409 4.22h1.608l-.003-.12zm-1.608 11.254v1.608h3.216v-1.608zm1.126-9.573c-1.94.61-3.17.543-3.987.273-.808-.267-1.428-.804-2.023-1.575a15.435 15.435 0 0 1-.868-1.293c-.274-.447-.585-.971-.9-1.437-.615-.904-1.522-2.036-2.988-2.422l-.817 3.113c.258.064.592.305 1.142 1.113.264.392.514.81.83 1.324.302.49.65 1.03 1.051 1.557.814 1.06 1.923 2.132 3.57 2.675 1.64.54 3.588.482 5.955-.26zm14.952-1.881c0-1.023-.045-1.955-.334-2.823-.309-.926-.843-1.64-1.547-2.338l-2.267 2.283c.499.492.67.788.762 1.07.113.338.17.817.17 1.808zm-2.842-2.421c2.903-.312 6.07-1.046 8.511-3.158 2.509-2.17 3.978-5.56 3.978-10.58h-3.216c0 4.37-1.254 6.753-2.868 8.149-1.685 1.46-4.045 2.1-6.75 2.389zM86.52 64.782A10.785 10.785 0 0 0 83.37 57.2l-2.274 2.27a7.575 7.575 0 0 1 2.21 5.322zm-2.788-5.865a9.992 9.992 0 0 0 .675-3.881l-3.215.08a6.817 6.817 0 0 1-.457 2.637zm.675-3.881a10.03 10.03 0 0 0-.868-3.843l-2.936 1.312c.37.823.57 1.71.592 2.61l3.216-.08zm-2.334-3.184c.44-1.547.44-1.55.437-1.55h-.01l-.012-.006a1.486 1.486 0 0 0-.097-.023 4.055 4.055 0 0 0-.681-.077 6.984 6.984 0 0 0-1.64.174c-1.367.292-3.293 1.019-5.853 2.675l1.743 2.701c2.312-1.492 3.878-2.039 4.785-2.231a3.859 3.859 0 0 1 .984-.097l-.026-.003a.894.894 0 0 1-.032-.007l-.02-.006h-.009l-.007-.003c-.003 0-.006 0 .438-1.55zm-6.582.987a26.397 26.397 0 0 0-13.313 0l.81 3.113a23.181 23.181 0 0 1 11.692 0zm-12.036.206c-2.563-1.653-4.492-2.38-5.86-2.669a6.978 6.978 0 0 0-1.639-.17 4.048 4.048 0 0 0-.775.096l-.013.007h-.01l.438 1.546.44 1.547h-.003l-.006.003-.01.003a1.051 1.051 0 0 1-.051.013l-.026.003h.026a3.827 3.827 0 0 1 .958.097c.907.193 2.473.74 4.785 2.232l1.746-2.702zm-9.325-1.852a10.033 10.033 0 0 0-.869 3.843l3.216.08a6.72 6.72 0 0 1 .588-2.611zm-.869 3.843a9.992 9.992 0 0 0 .676 3.88l2.997-1.163a6.817 6.817 0 0 1-.46-2.637l-3.216-.08zm1.036 2.164a10.785 10.785 0 0 0-2.335 3.508l2.971 1.222a7.67 7.67 0 0 1 1.64-2.46zm-2.335 3.508a10.785 10.785 0 0 0-.813 4.138l3.215-.01c0-.996.193-1.98.57-2.9l-2.972-1.222Zm-.813 4.138c0 4.994 1.472 8.351 3.984 10.509 2.434 2.09 5.595 2.83 8.489 3.174l.38-3.194c-2.724-.328-5.084-.97-6.776-2.424-1.614-1.386-2.862-3.737-2.862-8.071H51.15Zm11.528 10.946c-1.608 1.601-2.023 3.505-1.878 5.48l3.212-.242c-.096-1.312.167-2.196.936-2.961l-2.267-2.28zm-1.882 5.357v11.255h3.216V81.149Zm16.078 11.255V87.58H73.66v4.824zm0-4.824v-6.633H73.66v6.633z"/>
    </g>
</svg>
