<svg xmlns="http://www.w3.org/2000/svg" width="100" height="100">
    <path fill="none" stroke="#d9d9d9" stroke-linecap="round" stroke-linejoin="round" stroke-width="5" d="M44.714 27.878v-2.975c0-7.56-7.295-7.56-7.295-7.56h-26.19c-8.729 0-8.729 9.048-8.729 9.048V74.6c0 7.436 7.773 8.056 7.773 8.056H40M94.627 45l1.939-7.331c1.833-8.828-7.31-9.543-7.31-9.543h-65.23s-4.886 1.206-6.747 5.588c-1.86 4.381-5.75 15.511-5.75 15.511" paint-order="fill markers stroke"/>
    <path fill="#42a5f5" stroke="#42a5f5" stroke-width="1.5" d="M87.618 52.807c-4.208 0-8.95 2.331-14.046 6.895-3.576 3.2-6.638 6.855-8.751 9.62a11.873 11.873 0 0 0-15.33 11.34c0 6.163-3.2 8.91-3.359 9.047a1.521 1.521 0 0 0-.494 1.739 1.54 1.54 0 0 0 1.482 1.067h14.224a11.873 11.873 0 0 0 11.34-15.33c2.765-2.114 6.42-5.176 9.62-8.752 4.563-5.097 6.894-9.838 6.894-14.046a1.58 1.58 0 0 0-1.58-1.58ZM61.344 89.354H50.399c1.126-1.877 2.252-4.741 2.252-8.692a8.692 8.692 0 1 1 8.693 8.692zm6.4-18.649a82.98 82.98 0 0 1 2.015-2.47 14.895 14.895 0 0 1 4.01 4.011 82.982 82.982 0 0 1-2.469 2.015 11.735 11.735 0 0 0-3.556-3.556zm8.416-.573a18.392 18.392 0 0 0-4.287-4.287c3.872-4.188 9.087-8.77 13.987-9.7-.929 4.9-5.512 10.115-9.7 13.987z"/>
</svg>
