<svg xmlns="http://www.w3.org/2000/svg" width="100" height="100">
    <path fill="none" stroke="#d9d9d9" stroke-linecap="round" stroke-linejoin="round" stroke-width="5" d="M24.023 28.126H78.31s9.207.248 9.207 9.543V45M40 82.656H10.272S2.5 82.036 2.5 74.601V26.39s0-9.047 8.729-9.047h26.186s7.294 0 7.294 7.56v2.974" paint-order="fill markers stroke"/>
    <path fill="#039be5" stroke="#039be5" stroke-width="1.5" d="M49.106 55.69a4.331 4.331 0 0 1 4.332-4.331h31.761a4.331 4.331 0 0 1 4.331 4.33v20.213a4.331 4.331 0 0 1-4.33 4.331H69.317v-2.887H85.2a1.444 1.444 0 0 0 1.444-1.444V55.69a1.444 1.444 0 0 0-1.444-1.444H53.438a1.444 1.444 0 0 0-1.444 1.444v4.331h-2.888zm20.212 30.318h21.656a1.444 1.444 0 0 0 0-2.888H69.318Zm-14.437 0a1.444 1.444 0 0 0 0 2.887h2.888a1.444 1.444 0 0 0 0-2.887zM46.22 67.24a4.331 4.331 0 0 1 4.331-4.332H62.1a4.331 4.331 0 0 1 4.331 4.332v23.099A4.331 4.331 0 0 1 62.1 94.67H50.55a4.331 4.331 0 0 1-4.33-4.331Zm4.331-1.444a1.444 1.444 0 0 0-1.444 1.444v23.099a1.444 1.444 0 0 0 1.444 1.444H62.1a1.444 1.444 0 0 0 1.444-1.444v-23.1a1.444 1.444 0 0 0-1.444-1.443z"/>
</svg>
