<svg xmlns="http://www.w3.org/2000/svg" width="100" height="100">
    <g fill="none" stroke-linecap="round" stroke-linejoin="round">
        <path stroke="#d9d9d9" stroke-width="5" d="M44.714 27.878v-2.975c0-7.56-7.295-7.56-7.295-7.56h-26.19c-8.729 0-8.729 9.048-8.729 9.048V74.6c0 7.436 7.773 8.056 7.773 8.056H40M94.627 45l1.939-7.331c1.833-8.828-7.31-9.543-7.31-9.543h-65.23s-4.886 1.206-6.747 5.588c-1.86 4.381-5.75 15.511-5.75 15.511" paint-order="fill markers stroke"/>
        <g stroke="#0288d1" stroke-width="2.058">
            <path stroke-width="5.000693039999999" d="M73.213 64.72h2.43c2.43 0 2.43 2.43 4.898 8.57 2.391 6.01 2.391 8.44 4.821 8.44h2.43"/>
            <path stroke-width="5.000693039999999" d="M70.783 81.73c3.645 0 7.29-4.86 9.72-8.505 2.43-3.645 6.074-8.505 9.719-8.505M46.484 86.59c0 3.644 1.215 4.859 4.86 4.859 3.645 0 4.86-9.72 7.29-21.87 2.43-12.148 3.644-21.868 7.289-21.868 3.645 0 4.86 1.215 4.86 4.86M51.343 69.58h14.58"/>
        </g>
    </g>
</svg>
