<svg xmlns="http://www.w3.org/2000/svg" width="100" height="100">
    <g fill="none" stroke-linecap="round" stroke-linejoin="round" stroke-width="5" paint-order="fill markers stroke">
        <path stroke="#d9d9d9" d="M44.714 27.878v-2.975c0-7.56-7.295-7.56-7.295-7.56h-26.19c-8.729 0-8.729 9.048-8.729 9.048V74.6c0 7.436 7.773 8.056 7.773 8.056H40M94.627 45l1.939-7.331c1.833-8.828-7.31-9.543-7.31-9.543h-65.23s-4.886 1.206-6.747 5.588c-1.86 4.381-5.75 15.511-5.75 15.511"/>
        <path stroke="#cf649a" d="M62.817 67.044c5.939 3.525 10.777 2.461 15.57-.666 4.792-3.127 8.696-9.173 4.177-13.689-2.26-2.258-10.486-2.634-18.105.62-7.62 3.255-14.799 9.975-15.297 13.583-.998 7.217 10.168 9.515 11.74 13.974 1.57 4.458.898 6.52-.667 9.325-1.564 2.805-6.307 5.367-8.992 2.248-2.684-3.12 5.37-9.085 9.575-10.74 4.206-1.656 10.037-1.298 11.907.832 1.87 2.13-.206 5.912-.084 5.912"/>
    </g>
</svg>
