<svg xmlns="http://www.w3.org/2000/svg" width="200" height="200" fill="none">
    <path fill="#D6E0E3" d="m40.25 73.5 3.768 1.344.038-.113L40.25 73.5Zm136.75 68 3.814 1.205c.03-.096.057-.192.08-.289L177 141.5ZM92.5 54a4 4 0 0 0 8 0h-8ZM28.232 95.29a4 4 0 0 0 7.536 2.688l-7.536-2.688ZM192.92 73.84l3.894.916-3.894-.916Zm.076-.688 3.999-.086-3.999.086Zm-3.969-.228-15.921 67.661 7.788 1.832 15.92-67.66-7.787-1.833ZM161 153.5H32v8h129v-8Zm-64.5-92H177v-8H96.5v8ZM44.056 74.731c1.314-4.06 2.902-7.46 4.931-9.795 1.909-2.197 4.17-3.436 7.263-3.436v-8c-5.743 0-10.107 2.511-13.302 6.19-3.074 3.538-5.068 8.14-6.504 12.579l7.612 2.462ZM32 153.5c-6.627 0-12-5.373-12-12h-8c0 11.046 8.954 20 20 20v-8Zm141.186-13.205c-1.45 4.59-3.033 7.93-4.976 10.098-1.776 1.982-3.95 3.107-7.21 3.107v8c5.577 0 9.903-2.125 13.168-5.768 3.097-3.457 5.096-8.117 6.646-13.027l-7.628-2.41ZM80.5 42c6.627 0 12 5.373 12 12h8c0-11.046-8.954-20-20-20v8Zm116.495 31.065C196.763 62.219 187.9 53.5 177 53.5v8c6.539 0 11.858 5.232 11.997 11.736l7.998-.171ZM56.25 42H80.5v-8H56.25v8ZM96.5 53.5H56.25v8H96.5v-8ZM20 54c0-6.627 5.373-12 12-12v-8c-11.046 0-20 8.954-20 20h8Zm12-12h24.25v-8H32v8ZM12 54v87.5h8V54h-8Zm23.768 43.978 8.25-23.134-7.536-2.688-8.25 23.134 7.536 2.688Zm161.046-23.223c.12-.512.194-1.081.181-1.69l-7.998.171a1.23 1.23 0 0 1 .03-.313l7.787 1.832Z"/>
</svg>
