<svg xmlns="http://www.w3.org/2000/svg" width="100" height="100">
    <path fill="none" stroke="#d9d9d9" stroke-linecap="round" stroke-linejoin="round" stroke-width="5" d="M44.714 27.878v-2.975c0-7.56-7.295-7.56-7.295-7.56h-26.19c-8.729 0-8.729 9.048-8.729 9.048V74.6c0 7.436 7.773 8.056 7.773 8.056H40M94.627 45l1.939-7.331c1.833-8.828-7.31-9.543-7.31-9.543h-65.23s-4.886 1.206-6.747 5.588c-1.86 4.381-5.75 15.511-5.75 15.511" paint-order="fill markers stroke"/>
    <path fill="#039be5" stroke="#039be5" stroke-width="1.5" d="M49.106 55.69a4.331 4.331 0 0 1 4.332-4.331h31.761a4.331 4.331 0 0 1 4.331 4.331v20.212a4.331 4.331 0 0 1-4.33 4.331H69.317v-2.887H85.2a1.444 1.444 0 0 0 1.444-1.444V55.69a1.444 1.444 0 0 0-1.444-1.444H53.438a1.444 1.444 0 0 0-1.444 1.444v4.331h-2.888zm20.212 30.318h21.656a1.444 1.444 0 0 0 0-2.887H69.318Zm-14.437 0a1.444 1.444 0 0 0 0 2.888h2.888a1.444 1.444 0 0 0 0-2.888zM46.22 67.24a4.331 4.331 0 0 1 4.331-4.331H62.1a4.331 4.331 0 0 1 4.331 4.33v23.1A4.331 4.331 0 0 1 62.1 94.67H50.55a4.331 4.331 0 0 1-4.331-4.33Zm4.331-1.444a1.444 1.444 0 0 0-1.444 1.444v23.1a1.444 1.444 0 0 0 1.444 1.443H62.1a1.444 1.444 0 0 0 1.444-1.444v-23.1a1.444 1.444 0 0 0-1.444-1.443z"/>
</svg>
