<svg xmlns="http://www.w3.org/2000/svg" width="100" height="100">
    <g fill="none" stroke-linecap="round" stroke-linejoin="round" stroke-width="5" paint-order="fill markers stroke">
        <path stroke="#d9d9d9" d="M24.023 28.126H78.31s9.207.248 9.207 9.543V45M40 82.656H10.272S2.5 82.036 2.5 74.601V26.39s0-9.047 8.729-9.047h26.186s7.294 0 7.294 7.56v2.974"/>
        <path stroke="#00acc1" d="M70.255 47.996c-2.987 0-4.047 4.562-6.996 5.596-2.95 1.035-7.485-2.308-9.794 0-2.308 2.309 1.035 6.845 0 9.794-1.034 2.95-5.596 4.01-5.596 6.996 0 2.986 4.562 4.046 5.596 6.995 1.035 2.95-2.307 7.484 0 9.794 2.308 2.309 6.846-1.027 9.794.008 2.948 1.034 4.01 5.59 6.996 5.588 2.985-.001 4.046-4.562 6.995-5.596 2.95-1.035 7.484 2.307 9.794 0 2.309-2.308-1.027-6.846.008-9.794 1.034-2.948 5.59-4.01 5.588-6.995 0-2.986-4.562-4.047-5.596-6.996-1.035-2.95 2.308-7.485 0-9.794-2.309-2.308-6.845 1.035-9.794 0-2.95-1.034-4.01-5.596-6.995-5.596Z"/>
        <circle cx="70.255" cy="70.382" r="8.395" stroke="#00acc1"/>
    </g>
</svg>
