<svg xmlns="http://www.w3.org/2000/svg" width="100" height="100">
    <path fill="none" stroke="#d9d9d9" stroke-linecap="round" stroke-linejoin="round" stroke-width="5" d="M24.023 28.126H78.31s9.207.248 9.207 9.543V45M40 82.656H10.272S2.5 82.036 2.5 74.601V26.39s0-9.047 8.729-9.047h26.186s7.294 0 7.294 7.56v2.974" paint-order="fill markers stroke"/>
    <path fill="#009688" d="m52.301 92.978-.046.046-.049-.046H48.04a2.305 2.305 0 0 1-2.303-2.305V53.5a2.321 2.321 0 0 1 2.303-2.305h41.818a2.304 2.304 0 0 1 2.303 2.305v37.172a2.321 2.321 0 0 1-2.303 2.305zM87.518 79.05V55.839H50.38v32.496l23.212-23.212Zm0 6.564L73.591 71.688 56.944 88.335h30.574Zm-27.854-15.85a4.642 4.642 0 1 1 0-9.284 4.642 4.642 0 0 1 0 9.285z"/>
</svg>
