<svg xmlns="http://www.w3.org/2000/svg" width="100" height="100">
    <path fill="none" stroke="#d9d9d9" stroke-linecap="round" stroke-linejoin="round" stroke-width="5" d="M24.023 28.126H78.31s9.207.248 9.207 9.543V45M40 82.656H10.272S2.5 82.036 2.5 74.601V26.39s0-9.047 8.729-9.047h26.186s7.294 0 7.294 7.56v2.974" paint-order="fill markers stroke"/>
    <path fill="#c0ca33" fill-rule="evenodd" stroke="#c0ca33" stroke-width="1.369" d="M57.597 51.035a1.94 1.94 0 0 0 0 2.743l9.602 9.602a1.94 1.94 0 0 0 2.743 0l9.602-9.602a1.94 1.94 0 0 0 0-2.743l-9.602-9.602a1.94 1.94 0 0 0-2.743 0zm10.975 8.233-6.859-6.86 6.86-6.859 6.855 6.86zm4.54 7.286a1.94 1.94 0 0 0 0 2.743l9.602 9.602a1.94 1.94 0 0 0 2.743 0l9.602-9.602a1.94 1.94 0 0 0 0-2.743l-9.602-9.602a1.94 1.94 0 0 0-2.743 0l-9.599 9.602zm10.98 8.233-6.86-6.86 6.86-6.859 6.858 6.86zm-26.5 10.029a1.94 1.94 0 0 1 0-2.743l9.603-9.602a1.94 1.94 0 0 1 2.743 0l9.602 9.602a1.94 1.94 0 0 1 0 2.743l-9.602 9.602a1.94 1.94 0 0 1-2.743 0l-9.602-9.598zm4.117-1.37 6.863 6.86 6.856-6.86-6.856-6.86-6.859 6.86zM42.082 66.554a1.94 1.94 0 0 0 0 2.747l9.598 9.598a1.94 1.94 0 0 0 2.743 0l9.602-9.598a1.94 1.94 0 0 0 0-2.747l-9.602-9.598a1.94 1.94 0 0 0-2.743 0l-9.602 9.598zm10.972 8.233-6.86-6.86 6.86-6.859 6.855 6.86z" clip-rule="evenodd"/>
</svg>
