<svg xmlns="http://www.w3.org/2000/svg" width="100" height="100">
    <g fill="none" stroke-linecap="round" stroke-linejoin="round">
        <path stroke="#d9d9d9" stroke-width="5" d="M44.714 27.878v-2.975c0-7.56-7.295-7.56-7.295-7.56h-26.19c-8.729 0-8.729 9.048-8.729 9.048V74.6c0 7.436 7.773 8.056 7.773 8.056H40M94.627 45l1.939-7.331c1.833-8.828-7.31-9.543-7.31-9.543h-65.23s-4.886 1.206-6.747 5.588c-1.86 4.381-5.75 15.511-5.75 15.511" paint-order="fill markers stroke"/>
        <g stroke="#039be5" stroke-width="2.294" transform="matrix(2.17956 0 0 2.17956 42.845 47.62)">
            <rect width="18" height="18" x="3" y="3" rx="2" ry="2"/>
            <path d="M3 9h18M9 21V9"/>
        </g>
    </g>
</svg>
