<svg xmlns="http://www.w3.org/2000/svg" width="100" height="100">
    <path fill="none" stroke="#d9d9d9" stroke-linecap="round" stroke-linejoin="round" stroke-width="5" d="M44.714 27.878v-2.975c0-7.56-7.295-7.56-7.295-7.56h-26.19c-8.729 0-8.729 9.048-8.729 9.048V74.6c0 7.436 7.773 8.056 7.773 8.056H40M94.627 45l1.939-7.331c1.833-8.828-7.31-9.543-7.31-9.543h-65.23s-4.886 1.206-6.747 5.588c-1.86 4.381-5.75 15.511-5.75 15.511" paint-order="fill markers stroke"/>
    <path fill="#c0ca33" fill-rule="evenodd" stroke="#c0ca33" stroke-width="1.369" d="M57.596 51.035a1.94 1.94 0 0 0 0 2.743L67.2 63.38a1.94 1.94 0 0 0 2.743 0l9.602-9.602a1.94 1.94 0 0 0 0-2.743l-9.602-9.602a1.94 1.94 0 0 0-2.743 0zm10.976 8.233-6.86-6.86 6.86-6.859 6.855 6.86zm4.54 7.286a1.94 1.94 0 0 0 0 2.743l9.602 9.602a1.94 1.94 0 0 0 2.742 0l9.603-9.602a1.94 1.94 0 0 0 0-2.743l-9.603-9.603a1.94 1.94 0 0 0-2.742 0l-9.599 9.603zm10.979 8.232-6.86-6.859 6.86-6.86 6.86 6.86zm-26.498 10.03a1.94 1.94 0 0 1 0-2.744l9.602-9.602a1.94 1.94 0 0 1 2.743 0l9.602 9.602a1.94 1.94 0 0 1 0 2.743l-9.602 9.603a1.94 1.94 0 0 1-2.743 0l-9.602-9.599zm4.116-1.37 6.863 6.86 6.855-6.86-6.855-6.86-6.86 6.86zM42.082 66.554a1.94 1.94 0 0 0 0 2.747l9.598 9.598a1.94 1.94 0 0 0 2.743 0l9.602-9.598a1.94 1.94 0 0 0 0-2.747l-9.602-9.599a1.94 1.94 0 0 0-2.743 0l-9.602 9.599zm10.971 8.232-6.859-6.859 6.86-6.86 6.855 6.86z" clip-rule="evenodd"/>
</svg>
