<svg xmlns="http://www.w3.org/2000/svg" width="100" height="100">
    <g fill="none" stroke-linecap="round" stroke-linejoin="round" stroke-width="5">
        <path stroke="#d9d9d9" d="M24.023 28.126H78.31s9.207.248 9.207 9.543V45M40 82.656H10.272S2.5 82.036 2.5 74.601V26.39s0-9.047 8.729-9.047h26.186s7.294 0 7.294 7.56v2.974" paint-order="fill markers stroke"/>
        <path stroke="#fbc02d" d="M67.335 77.122H51.022a6.274 6.317 0 1 1 0-12.633h1.255m22.587 5.053v16.424a6.274 6.317 0 1 1-12.548 0v-1.263m5.02-22.741h16.312a6.274 6.317 0 1 1 0 12.634h-1.255m-22.587-5.054V53.118a6.274 6.317 0 0 1 12.549 0v1.264"/>
    </g>
</svg>
