<svg xmlns="http://www.w3.org/2000/svg" width="100" height="100">
    <path fill="none" stroke="#d9d9d9" stroke-linecap="round" stroke-linejoin="round" stroke-width="5" d="M44.714 27.878v-2.975c0-7.56-7.295-7.56-7.295-7.56h-26.19c-8.729 0-8.729 9.048-8.729 9.048V74.6c0 7.436 7.773 8.056 7.773 8.056H40M94.627 45l1.939-7.331c1.833-8.828-7.31-9.543-7.31-9.543h-65.23s-4.886 1.206-6.747 5.588c-1.86 4.381-5.75 15.511-5.75 15.511" paint-order="fill markers stroke"/>
    <path fill="#fbc02d" stroke="#fbc02d" stroke-width="1.35" d="M85.272 81.333a5.869 5.869 0 0 0-3.041.867l-4.698-4.714a9.122 9.122 0 0 0 0-10.551l4.698-4.713a5.869 5.869 0 0 0 3.04.866 6.082 6.082 0 1 0-6.08-6.081 5.869 5.869 0 0 0 .866 3.04l-4.713 4.699a9.122 9.122 0 0 0-10.552 0l-4.713-4.698a5.869 5.869 0 0 0 .867-3.041 6.082 6.082 0 1 0-6.082 6.081 5.869 5.869 0 0 0 3.04-.866l4.699 4.713a9.122 9.122 0 0 0 0 10.551L57.905 82.2a5.869 5.869 0 0 0-3.041-.867 6.082 6.082 0 1 0 6.082 6.081 5.869 5.869 0 0 0-.867-3.04l4.713-4.698a9.122 9.122 0 0 0 10.552 0l4.713 4.698a5.869 5.869 0 0 0-.867 3.04 6.082 6.082 0 1 0 6.082-6.081zm0-27.367a3.04 3.04 0 1 1-3.041 3.04 3.04 3.04 0 0 1 3.04-3.04zm-33.449 3.04a3.04 3.04 0 1 1 3.041 3.042 3.04 3.04 0 0 1-3.04-3.041zm3.041 33.45a3.04 3.04 0 1 1 3.04-3.042 3.04 3.04 0 0 1-3.04 3.041zm15.204-12.164a6.082 6.082 0 1 1 6.081-6.081 6.082 6.082 0 0 1-6.081 6.081Zm15.204 12.163a3.04 3.04 0 1 1 3.04-3.04 3.04 3.04 0 0 1-3.04 3.04z"/>
</svg>
