<svg xmlns="http://www.w3.org/2000/svg" width="100" height="100">
    <path fill="none" stroke="#d9d9d9" stroke-linecap="round" stroke-linejoin="round" stroke-width="5" d="M24.023 28.126H78.31s9.207.248 9.207 9.543V45M40 82.656H10.272S2.5 82.036 2.5 74.601V26.39s0-9.047 8.729-9.047h26.186s7.294 0 7.294 7.56v2.974" paint-order="fill markers stroke"/>
    <g fill="#fbc02d" stroke="#fbc02d" stroke-width="1.4">
        <path stroke-width="1.3445319999999998" d="M66.93 61.905a1.642 1.642 0 0 0 0 3.285h14.235a1.642 1.642 0 0 0 0-3.285zm-10.402 1.643a1.642 1.642 0 0 1 1.643-1.643h1.095a1.642 1.642 0 0 1 0 3.285H58.17a1.642 1.642 0 0 1-1.643-1.642zm8.76 19.71a1.642 1.642 0 0 1 1.643-1.643h14.234a1.642 1.642 0 0 1 0 3.285H66.931a1.642 1.642 0 0 1-1.643-1.642zm-7.117-1.643a1.642 1.642 0 0 0 0 3.285h1.095a1.642 1.642 0 0 0 0-3.285z"/>
        <path fill-rule="evenodd" stroke-width="1.3445319999999998" d="M50.506 52.05a3.832 3.832 0 0 0-3.833 3.833v15.33c0 .815.254 1.568.688 2.19a3.815 3.815 0 0 0-.688 2.19v15.33a3.834 3.834 0 0 0 3.833 3.832H88.83a3.832 3.832 0 0 0 3.833-3.832v-15.33c0-.815-.254-1.568-.688-2.19a3.813 3.813 0 0 0 .688-2.19v-15.33a3.832 3.832 0 0 0-3.833-3.832zm0 19.71H88.83a.547.547 0 0 0 .548-.547v-15.33a.547.547 0 0 0-.548-.547H50.506a.547.547 0 0 0-.548.547v15.33c0 .302.246.547.548.547zm0 3.285a.547.547 0 0 0-.548.548v15.33c0 .302.246.547.548.547H88.83a.547.547 0 0 0 .548-.547v-15.33a.547.547 0 0 0-.548-.548z"/>
    </g>
</svg>
