<svg xmlns="http://www.w3.org/2000/svg" width="100" height="100">
    <path fill="none" stroke="#d9d9d9" stroke-linecap="round" stroke-linejoin="round" stroke-width="5" d="M44.714 27.878v-2.975c0-7.56-7.295-7.56-7.295-7.56h-26.19c-8.729 0-8.729 9.048-8.729 9.048V74.6c0 7.436 7.773 8.056 7.773 8.056H40M94.627 45l1.939-7.331c1.833-8.828-7.31-9.543-7.31-9.543h-65.23s-4.886 1.206-6.747 5.588c-1.86 4.381-5.75 15.511-5.75 15.511" paint-order="fill markers stroke"/>
    <path fill="#009688" d="m52.301 92.977-.046.047-.049-.047H48.04a2.305 2.305 0 0 1-2.303-2.305V53.501a2.321 2.321 0 0 1 2.303-2.305h41.818a2.304 2.304 0 0 1 2.303 2.305v37.171a2.321 2.321 0 0 1-2.303 2.305zM87.518 79.05V55.838H50.38v32.497l23.212-23.212Zm0 6.564L73.591 71.687 56.944 88.335h30.574ZM59.664 69.765a4.642 4.642 0 1 1 0-9.284 4.642 4.642 0 0 1 0 9.284z"/>
</svg>
