<svg xmlns="http://www.w3.org/2000/svg" width="100" height="100">
    <path fill="none" stroke="#d9d9d9" stroke-linecap="round" stroke-linejoin="round" stroke-width="5" d="M44.714 27.878v-2.975c0-7.56-7.295-7.56-7.295-7.56h-26.19c-8.729 0-8.729 9.048-8.729 9.048V74.6c0 7.436 7.773 8.056 7.773 8.056H40M94.627 45l1.939-7.331c1.833-8.828-7.31-9.543-7.31-9.543h-65.23s-4.886 1.206-6.747 5.588c-1.86 4.381-5.75 15.511-5.75 15.511" paint-order="fill markers stroke"/>
    <path fill="#ae61ad" stroke="#ae61ad" stroke-width="1.586" d="M92.011 88.065 80.742 62.773a1.59 1.784 0 0 0-1.429-.994 1.61 1.807 0 0 0-1.449.994l-4.366 9.8a17.588 19.737 0 0 1-9.478-3.816 20.948 23.508 0 0 0 5.574-14.204h4.89a1.61 1.807 0 0 0 0-3.613h-11.27v-3.614a1.61 1.807 0 0 0-3.22 0v3.614H48.727a1.61 1.807 0 0 0 0 3.613h17.628a17.608 19.76 0 0 1-4.75 11.81 17.527 19.67 0 0 1-3.823-7 1.61 1.807 0 0 0-2.052-1.084 1.59 1.784 0 0 0-.986 2.303 20.888 23.44 0 0 0 4.447 8.175 17.527 19.67 0 0 1-10.464 3.862 1.61 1.807 0 0 0 0 3.613 20.888 23.44 0 0 0 12.879-4.991 20.848 23.395 0 0 0 10.343 4.81l-5.353 12.014a1.61 1.808 0 1 0 2.878 1.626l2.777-6.233h14.107l2.777 6.233a1.61 1.807 0 0 0 1.448.993 1.892 2.123 0 0 0 .725-.18 1.63 1.83 0 0 0 .704-2.44zm-18.151-8.22 5.453-12.217 5.434 12.217z"/>
</svg>
