<svg xmlns="http://www.w3.org/2000/svg" width="100" height="100">
    <path fill="none" stroke="#d9d9d9" stroke-linecap="round" stroke-linejoin="round" stroke-width="5" d="M44.714 27.878v-2.975c0-7.56-7.295-7.56-7.295-7.56h-26.19c-8.729 0-8.729 9.048-8.729 9.048V74.6c0 7.436 7.773 8.056 7.773 8.056H40M94.627 45l1.939-7.331c1.833-8.828-7.31-9.543-7.31-9.543h-65.23s-4.886 1.206-6.747 5.588c-1.86 4.381-5.75 15.511-5.75 15.511" paint-order="fill markers stroke"/>
    <path fill="#04c38e" stroke="#04c38e" stroke-width=".109" d="m85.737 52.265-7.152 17.52-7.195-17.52H65.5l10.094 23.913L68.42 93.04l5.157.993 17.74-41.768z"/>
    <path fill="#04c38e" stroke="#04c38e" stroke-width=".109" d="M54.317 56.695a7.087 6.918 0 0 1 6.672 4.24l.097.21 5.019-1.652-.109-.249a12.355 12.06 0 0 0-11.67-7.419 12.55 12.252 0 0 0-9.194 3.506 12.054 11.767 0 0 0-3.73 8.749 11.994 11.709 0 0 0 3.722 8.714 12.55 12.252 0 0 0 9.193 3.508 12.36 12.066 0 0 0 11.671-7.418l.109-.25-5.027-1.653-.095.22a6.957 6.79 0 0 1-6.666 4.226 7.057 6.889 0 0 1-5.214-2.101 7.404 7.228 0 0 1-2.12-5.24 7.53 7.35 0 0 1 2.12-5.3 7.024 6.857 0 0 1 5.233-2.099z"/>
</svg>
