<svg xmlns="http://www.w3.org/2000/svg" width="100" height="100">
    <path fill="none" stroke="#d9d9d9" stroke-linecap="round" stroke-linejoin="round" stroke-width="5" d="M24.023 28.126H78.31s9.207.248 9.207 9.543V45M40 82.656H10.272S2.5 82.036 2.5 74.601V26.39s0-9.047 8.729-9.047h26.186s7.294 0 7.294 7.56v2.974" paint-order="fill markers stroke"/>
    <g fill="#ffc107" stroke-width=".092">
        <path d="m74.589 56.1 3.2-3.198-9.595-9.595-9.595 9.597 3.2 3.198 6.395-6.398ZM52.204 78.486l3.197-3.2-6.395-6.395 6.395-6.395-3.195-3.2-9.597 9.595Zm6.395 6.395 9.595 9.595 9.595-9.595-3.2-3.198-6.395 6.395-6.395-6.395Zm22.387-22.385 6.395 6.395-6.395 6.395 3.198 3.2 9.594-9.595-9.597-9.595-3.197 3.2Z"/>
        <path fill-rule="evenodd" d="M68.194 59.846a9.045 9.045 0 1 1 0 18.091 9.045 9.045 0 0 1 0-18.09zm0 4.523a4.523 4.523 0 1 1 0 9.045 4.523 4.523 0 0 1 0-9.045z" clip-rule="evenodd"/>
    </g>
</svg>
