<svg xmlns="http://www.w3.org/2000/svg" width="100" height="100">
    <g stroke-linecap="round" stroke-linejoin="round">
        <path fill="none" stroke="#d9d9d9" stroke-width="5" d="M24.023 28.126H78.31s9.207.248 9.207 9.543V45M40 82.656H10.272S2.5 82.036 2.5 74.601V26.39s0-9.047 8.729-9.047h26.186s7.294 0 7.294 7.56v2.974" paint-order="fill markers stroke"/>
        <path fill="#999" stroke="#999" stroke-width="2.038" d="M62.887 85.898a1.608 1.608 0 1 0-.965-3.067zm-11.73-9.518L49.6 75.97l-.817 3.112 1.556.409.817-3.113zm22.502 16.023v1.608h3.215v-1.608Zm.202-15.476-.173-1.598a1.608 1.608 0 0 0-.962 2.74l1.132-1.139zM84.913 64.79h1.608v-.01l-1.608.007zm-2.678-6.453-1.499-.58a1.608 1.608 0 0 0 .36 1.715zm-.161-6.486 1.466-.656a1.608 1.608 0 0 0-1.026-.888Zm-6.988 2.546-.405 1.557a1.608 1.608 0 0 0 1.28-.206zm-12.502 0-.874 1.351a1.608 1.608 0 0 0 1.28.206zm-6.987-2.543-.44-1.544a1.608 1.608 0 0 0-1.03.888zm-.16 6.486 1.137 1.135a1.608 1.608 0 0 0 .36-1.717zm-2.68 6.505h1.608v-.007zM63.813 76.93l1.132 1.142a1.608 1.608 0 0 0-.943-2.737l-.193 1.595zm-1.409 4.219h1.608l-.003-.12zm-1.608 11.254v1.608h3.216v-1.608zm1.126-9.572c-1.94.61-3.17.543-3.987.273-.808-.267-1.428-.804-2.023-1.576a15.435 15.435 0 0 1-.868-1.292c-.274-.447-.585-.972-.9-1.438-.615-.903-1.522-2.035-2.988-2.421l-.817 3.113c.258.064.592.305 1.142 1.112.264.392.514.81.83 1.325.302.489.65 1.029 1.051 1.556.814 1.061 1.923 2.132 3.57 2.676 1.64.54 3.588.482 5.955-.26zm14.952-1.882c0-1.022-.045-1.955-.334-2.823-.309-.926-.843-1.64-1.547-2.338l-2.267 2.284c.499.491.67.787.762 1.07.113.338.17.817.17 1.807zm-2.842-2.42c2.903-.313 6.07-1.046 8.511-3.159 2.509-2.17 3.978-5.56 3.978-10.579h-3.216c0 4.37-1.254 6.753-2.868 8.148-1.685 1.46-4.045 2.1-6.75 2.39zM86.52 64.781a10.785 10.785 0 0 0-3.151-7.583l-2.274 2.27a7.575 7.575 0 0 1 2.21 5.322zm-2.788-5.866a9.992 9.992 0 0 0 .675-3.88l-3.215.08a6.817 6.817 0 0 1-.457 2.636zm.675-3.88a10.03 10.03 0 0 0-.868-3.843l-2.936 1.311c.37.824.57 1.711.592 2.612l3.216-.08zm-2.334-3.184c.44-1.547.44-1.55.437-1.55h-.01l-.012-.007a1.486 1.486 0 0 0-.097-.022 4.055 4.055 0 0 0-.681-.077 6.984 6.984 0 0 0-1.64.173c-1.367.293-3.293 1.02-5.853 2.676l1.743 2.7c2.312-1.491 3.878-2.038 4.785-2.23a3.859 3.859 0 0 1 .984-.097l-.026-.004a.894.894 0 0 1-.032-.006l-.02-.007h-.009l-.007-.003c-.003 0-.006 0 .438-1.55zm-6.582.987a26.397 26.397 0 0 0-13.313 0l.81 3.113a23.181 23.181 0 0 1 11.692 0zm-12.036.206c-2.563-1.653-4.492-2.38-5.86-2.67a6.978 6.978 0 0 0-1.639-.17 4.048 4.048 0 0 0-.775.097l-.013.006h-.01l.438 1.547.44 1.547h-.003l-.006.003-.01.003a1.051 1.051 0 0 1-.051.013l-.026.003h.026a3.827 3.827 0 0 1 .958.097c.907.192 2.473.74 4.785 2.231l1.746-2.7zm-9.325-1.852a10.033 10.033 0 0 0-.869 3.842l3.216.08a6.72 6.72 0 0 1 .588-2.61zm-.869 3.842a9.992 9.992 0 0 0 .676 3.881l2.997-1.164a6.817 6.817 0 0 1-.46-2.636l-3.216-.08zm1.036 2.164a10.785 10.785 0 0 0-2.335 3.508l2.971 1.222a7.67 7.67 0 0 1 1.64-2.46Zm-2.335 3.508a10.785 10.785 0 0 0-.813 4.139l3.215-.01c0-.997.193-1.98.57-2.9l-2.972-1.222zm-.813 4.139c0 4.994 1.472 8.35 3.984 10.508 2.434 2.09 5.595 2.83 8.489 3.174l.38-3.193c-2.724-.328-5.084-.971-6.776-2.424-1.614-1.386-2.862-3.737-2.862-8.072H51.15zm11.528 10.946c-1.608 1.601-2.023 3.505-1.878 5.479l3.212-.241c-.096-1.312.167-2.196.936-2.962l-2.267-2.28zm-1.882 5.357v11.254h3.216V81.15Zm16.078 11.254V87.58H73.66v4.823zm0-4.823v-6.634H73.66v6.634z"/>
    </g>
</svg>
