<svg xmlns="http://www.w3.org/2000/svg" width="100" height="100">
    <path fill="none" stroke="#d9d9d9" stroke-linecap="round" stroke-linejoin="round" stroke-width="5" d="M24.023 28.126H78.31s9.207.248 9.207 9.543V45M40 82.656H10.272S2.5 82.036 2.5 74.601V26.39s0-9.047 8.729-9.047h26.186s7.294 0 7.294 7.56v2.974" paint-order="fill markers stroke"/>
    <path fill="#7cb342" d="m95.031 79.972-11.125-11.1a16.86 16.86 0 0 0 .344-3.447 18.88 18.88 0 0 0-26.854-17.107 2.461 2.461 0 0 0-1.403 1.822 2.461 2.461 0 0 0 .69 2.166l10.706 10.682-4.43 4.431-10.683-10.707a2.461 2.461 0 0 0-2.166-.665 2.461 2.461 0 0 0-1.821 1.379 18.88 18.88 0 0 0 17.23 26.854 16.86 16.86 0 0 0 3.446-.345l11.1 11.126a2.461 2.461 0 0 0 3.496 0 2.461 2.461 0 0 0 0-3.495L71.5 79.505a2.461 2.461 0 0 0-2.338-.64 14.473 14.473 0 0 1-3.643.492 13.956 13.956 0 0 1-14.08-13.932 14.769 14.769 0 0 1 .197-2.461l9.65 9.673a2.461 2.461 0 0 0 3.494 0l7.828-7.901a2.461 2.461 0 0 0 0-3.421l-9.575-9.65a15.064 15.064 0 0 1 2.461-.196 13.956 13.956 0 0 1 13.932 13.956 14.473 14.473 0 0 1-.492 3.643 2.461 2.461 0 0 0 .64 2.338l12.06 12.061a2.471 2.471 0 0 0 3.496-3.495z"/>
</svg>
