<svg xmlns="http://www.w3.org/2000/svg" width="100" height="100">
    <path fill="none" stroke="#d9d9d9" stroke-linecap="round" stroke-linejoin="round" stroke-width="5" d="M24.023 28.126H78.31s9.207.248 9.207 9.543V45M40 82.656H10.272S2.5 82.036 2.5 74.601V26.39s0-9.047 8.729-9.047h26.186s7.294 0 7.294 7.56v2.974" paint-order="fill markers stroke"/>
    <path fill="#aeac43" stroke="#aeac43" stroke-width="1.945" d="M65.45 47.233c-9.006 0-16.06 7.326-16.06 16.333 0 6.785 3.333 10.017 5.966 12.376 1.696 1.52 2.837 2.435 2.837 3.563v2.468c0 .063.009.125.017.188h-.033v4.212c0 4.444 2.874 7.43 7.325 7.43 4.296 0 7.229-2.986 7.229-7.43v-4.212h-.042c.008-.063.019-.125.019-.188v-2.468c0-1.717 1.275-2.755 3.207-4.443 2.615-2.283 5.595-5.125 5.595-11.496 0-9.007-7.054-16.333-16.06-16.333zm-.055 43.66c-2.725 0-4.307-1.69-4.307-4.52l-.02-1.94c1.046.357 2.472.638 4.383.638 1.884 0 3.313-.3 4.37-.671v1.973c0 2.872-1.604 4.52-4.426 4.52zM74 72.87c-1.977 1.727-4.203 3.512-4.203 6.635v1.84c-.69.385-1.964.843-4.372.843-2.527 0-3.726-.448-4.322-.794v-1.89c0-2.483-1.941-4.06-3.805-5.73-2.47-2.214-4.997-4.723-4.997-10.209-.001-7.4 5.748-13.422 13.148-13.422 7.402 0 13.15 6.022 13.15 13.423 0 5.05-2.204 7.212-4.599 9.304z"/>
</svg>
