<svg xmlns="http://www.w3.org/2000/svg" width="100" height="100">
    <g fill="none" stroke-linecap="round" stroke-linejoin="round">
        <path stroke="#d9d9d9" stroke-width="5" d="M24.023 28.126H78.31s9.207.248 9.207 9.543V45M40 82.656H10.272S2.5 82.036 2.5 74.601V26.39s0-9.047 8.729-9.047h26.186s7.294 0 7.294 7.56v2.974" paint-order="fill markers stroke"/>
        <g stroke="#0288d1" stroke-width="2.058">
            <path stroke-width="5.000693039999999" d="M73.213 64.72h2.43c2.43 0 2.43 2.43 4.898 8.57 2.391 6.01 2.391 8.44 4.82 8.44h2.43"/>
            <path stroke-width="5.000693039999999" d="M70.783 81.73c3.644 0 7.29-4.86 9.72-8.505 2.429-3.645 6.074-8.505 9.719-8.505M46.484 86.59c0 3.644 1.215 4.86 4.86 4.86 3.644 0 4.86-9.72 7.29-21.87 2.43-12.15 3.644-21.869 7.289-21.869 3.645 0 4.86 1.215 4.86 4.86m-19.44 17.01h14.58"/>
        </g>
    </g>
</svg>
