<svg xmlns="http://www.w3.org/2000/svg" width="200" height="200" fill="none">
    <path fill="#D6E0E3" d="M56.25 53.5a4 4 0 0 0 0 8v-8ZM173 73.5v68h8v-68h-8Zm-12 80H32v8h129v-8Zm-141-12v-84h-8v84h8Zm0-84V54h-8v3.5h8Zm76.5 4H161v-8H96.5v8ZM20 54c0-6.627 5.373-12 12-12v-8c-11.046 0-20 8.954-20 20h8Zm12 99.5c-6.627 0-12-5.373-12-12h-8c0 11.046 8.954 20 20 20v-8Zm141-12c0 6.627-5.373 12-12 12v8c11.046 0 20-8.954 20-20h-8ZM80.5 42c6.627 0 12 5.373 12 12h8c0-11.046-8.954-20-20-20v8ZM181 73.5c0-11.046-8.954-20-20-20v8c6.627 0 12 5.373 12 12h8ZM32 42h24.25v-8H32v8Zm24.25 0H80.5v-8H56.25v8ZM96.5 53.5H56.25v8H96.5v-8Zm-4 .5v3.5h8V54h-8Z"/>
</svg>
