<svg xmlns="http://www.w3.org/2000/svg" width="100" height="100">
    <path fill="none" stroke="#d9d9d9" stroke-linecap="round" stroke-linejoin="round" stroke-width="5" d="M24.023 28.126H78.31s9.207.248 9.207 9.543V45M40 82.656H10.272S2.5 82.036 2.5 74.601V26.39s0-9.047 8.729-9.047h26.186s7.294 0 7.294 7.56v2.974" paint-order="fill markers stroke"/>
    <path fill="#7e57c2" stroke="#7e57c2" d="M68.12 53.141c1.44-2.563 5.129-2.563 6.567 0l4.358 7.78-2.677-.474a2.09 2.09 0 1 0-.73 4.117l7.109 1.255a2.09 2.09 0 0 0 2.348-1.397l2.09-6.271a2.09 2.09 0 0 0-3.967-1.323l-.624 1.873-4.26-7.603c-3.033-5.414-10.827-5.414-13.86 0l-3.689 6.58a2.09 2.09 0 1 0 3.646 2.045zm20.15 15.692a2.09 2.09 0 0 0-3.645 2.043l5.524 9.861c1.405 2.509-.408 5.603-3.283 5.603H76.284l1.325-1.589a2.09 2.09 0 0 0-3.211-2.677l-4.182 5.017a2.09 2.09 0 0 0 0 2.676l4.182 5.017a2.09 2.09 0 0 0 3.21-2.675l-1.32-1.588h10.578c6.071 0 9.898-6.53 6.93-11.827zM64.293 86.34h-8.354c-2.876 0-4.687-3.094-3.283-5.603l5.934-10.586 1.353 2.538a2.09 2.09 0 0 0 3.69-1.966l-3.345-6.272a2.09 2.09 0 0 0-2.188-1.079l-7.526 1.254a2.09 2.09 0 1 0 .686 4.125l3.663-.61-5.914 10.553c-2.967 5.295.86 11.827 6.93 11.827h8.354a2.09 2.09 0 1 0 0-4.18z"/>
</svg>
