<svg xmlns="http://www.w3.org/2000/svg" width="100" height="100">
    <g fill="none" stroke-linecap="round" stroke-linejoin="round" stroke-width="5" paint-order="fill markers stroke">
        <path stroke="#d9d9d9" d="M44.714 27.878v-2.975c0-7.56-7.295-7.56-7.295-7.56h-26.19c-8.729 0-8.729 9.048-8.729 9.048V74.6c0 7.436 7.773 8.056 7.773 8.056H40M94.627 45l1.939-7.331c1.833-8.828-7.31-9.543-7.31-9.543h-65.23s-4.886 1.206-6.747 5.588c-1.86 4.381-5.75 15.511-5.75 15.511"/>
        <path stroke="#41b883" d="M61.798 88.954 76.384 63.69c.423-.732 2.113-.732 2.535 0l14.662 25.395c.324.56-.727 1.374-1.375 1.374H48.174c-.658 0-1.726-.826-1.397-1.397l18.451-31.957c.364-.631 1.82-.631 2.185 0l18.662 32.323"/>
    </g>
</svg>
