<svg xmlns="http://www.w3.org/2000/svg" width="100" height="100">
    <g fill="none" stroke-linecap="round" stroke-linejoin="round" stroke-width="5">
        <path stroke="#d9d9d9" d="M44.714 27.878v-2.975c0-7.56-7.295-7.56-7.295-7.56h-26.19c-8.729 0-8.729 9.048-8.729 9.048V74.6c0 7.436 7.773 8.056 7.773 8.056H40M94.627 45l1.939-7.331c1.833-8.828-7.31-9.543-7.31-9.543h-65.23s-4.886 1.206-6.747 5.588c-1.86 4.381-5.75 15.511-5.75 15.511" paint-order="fill markers stroke"/>
        <path stroke="#fbc02d" d="M68.335 77.123H52.022a6.274 6.317 0 1 1 0-12.634h1.255m22.587 5.053v16.424a6.274 6.317 0 1 1-12.548 0v-1.263m5.019-22.741h16.313a6.274 6.317 0 1 1 0 12.634h-1.255m-22.587-5.054V53.118a6.274 6.317 0 0 1 12.548 0v1.264"/>
    </g>
</svg>
