<svg xmlns="http://www.w3.org/2000/svg" width="100" height="100">
    <g fill="none" stroke-linecap="round" stroke-linejoin="round" stroke-width="5" paint-order="fill markers stroke">
        <path stroke="#d9d9d9" d="M24.023 28.126H78.31s9.207.248 9.207 9.543V45M40 82.656H10.272S2.5 82.036 2.5 74.601V26.39s0-9.047 8.729-9.047h26.186s7.294 0 7.294 7.56v2.974"/>
        <path stroke="#41b883" d="M61.797 88.955 76.384 63.69c.422-.732 2.112-.732 2.535 0L93.58 89.085c.324.561-.726 1.374-1.374 1.374H48.174c-.659 0-1.726-.826-1.397-1.396l18.45-31.958c.365-.63 1.821-.63 2.185 0l18.662 32.324"/>
    </g>
</svg>
