<svg xmlns="http://www.w3.org/2000/svg" width="100" height="100">
    <g fill="none" stroke-linecap="round" stroke-linejoin="round">
        <path stroke="#d9d9d9" stroke-width="5" d="M24.023 28.126H78.31s9.207.248 9.207 9.543V45M40 82.656H10.272S2.5 82.036 2.5 74.601V26.39s0-9.047 8.729-9.047h26.186s7.294 0 7.294 7.56v2.974" paint-order="fill markers stroke"/>
        <path stroke="#9ca2e4" stroke-width="5" d="M78.466 89.21H56.387a6.022 6.022 0 0 1 0-12.043h22.08a6.022 6.022 0 0 0 0 12.043h2.007a6.022 6.022 0 0 0 6.021-6.021v-22.08a4.014 4.014 0 0 0-4.014-4.014H62.409a4.014 4.014 0 0 0-4.015 4.014v16.058"/>
    </g>
</svg>
