<svg xmlns="http://www.w3.org/2000/svg" width="100" height="100">
    <path fill="none" stroke="#d9d9d9" stroke-linecap="round" stroke-linejoin="round" stroke-width="5" d="M44.714 27.878v-2.975c0-7.56-7.295-7.56-7.295-7.56h-26.19c-8.729 0-8.729 9.048-8.729 9.048V74.6c0 7.436 7.773 8.056 7.773 8.056H40M94.627 45l1.939-7.331c1.833-8.828-7.31-9.543-7.31-9.543h-65.23s-4.886 1.206-6.747 5.588c-1.86 4.381-5.75 15.511-5.75 15.511" paint-order="fill markers stroke"/>
    <g fill="#fbc02d" stroke="#fbc02d" stroke-width="1.4">
        <path stroke-width="1.3445319999999998" d="M66.93 61.905a1.642 1.642 0 0 0 0 3.285h14.235a1.642 1.642 0 0 0 0-3.285zm-10.402 1.643a1.642 1.642 0 0 1 1.643-1.643h1.095a1.642 1.642 0 0 1 0 3.285H58.17a1.642 1.642 0 0 1-1.643-1.642zm8.76 19.71a1.642 1.642 0 0 1 1.643-1.643h14.234a1.642 1.642 0 0 1 0 3.285H66.931a1.642 1.642 0 0 1-1.643-1.643zm-7.117-1.643a1.642 1.642 0 0 0 0 3.285h1.095a1.642 1.642 0 0 0 0-3.285z"/>
        <path fill-rule="evenodd" stroke-width="1.3445319999999998" d="M50.506 52.05a3.832 3.832 0 0 0-3.833 3.833v15.33c0 .814.254 1.568.688 2.19a3.815 3.815 0 0 0-.688 2.19v15.33a3.834 3.834 0 0 0 3.833 3.832H88.83a3.832 3.832 0 0 0 3.833-3.833v-15.33c0-.814-.254-1.568-.688-2.19a3.813 3.813 0 0 0 .688-2.19v-15.33a3.832 3.832 0 0 0-3.833-3.832zm0 19.71H88.83a.547.547 0 0 0 .548-.547v-15.33a.547.547 0 0 0-.548-.548H50.506a.547.547 0 0 0-.548.548v15.33c0 .302.246.547.548.547zm0 3.285a.547.547 0 0 0-.548.547v15.33c0 .303.246.548.548.548H88.83a.547.547 0 0 0 .548-.548v-15.33a.547.547 0 0 0-.548-.547z"/>
    </g>
</svg>
