<svg xmlns="http://www.w3.org/2000/svg" width="100" height="100">
    <path fill="none" stroke="#d9d9d9" stroke-linecap="round" stroke-linejoin="round" stroke-width="5" d="M24.023 28.126H78.31s9.207.248 9.207 9.543V45M40 82.656H10.272S2.5 82.036 2.5 74.601V26.39s0-9.047 8.729-9.047h26.186s7.294 0 7.294 7.56v2.974" paint-order="fill markers stroke"/>
    <path fill="#ae61ad" stroke="#ae61ad" stroke-width="1.586" d="M92.011 88.064 80.742 62.772a1.59 1.784 0 0 0-1.428-.993 1.61 1.807 0 0 0-1.45.993l-4.366 9.801a17.588 19.737 0 0 1-9.478-3.816 20.948 23.508 0 0 0 5.574-14.205h4.89a1.61 1.807 0 0 0 0-3.613h-11.27v-3.613a1.61 1.807 0 0 0-3.219 0v3.613H48.726a1.61 1.807 0 0 0 0 3.613h17.628a17.608 19.76 0 0 1-4.749 11.81 17.527 19.67 0 0 1-3.823-7 1.61 1.807 0 0 0-2.053-1.084 1.59 1.784 0 0 0-.986 2.304 20.888 23.44 0 0 0 4.447 8.175 17.527 19.67 0 0 1-10.464 3.861 1.61 1.807 0 0 0 0 3.613 20.888 23.44 0 0 0 12.879-4.99 20.848 23.395 0 0 0 10.343 4.81l-5.352 12.013a1.61 1.808 0 1 0 2.877 1.626l2.777-6.232h14.107l2.777 6.232a1.61 1.807 0 0 0 1.449.994 1.892 2.123 0 0 0 .724-.18 1.63 1.83 0 0 0 .704-2.44zm-18.15-8.22 5.453-12.217 5.433 12.217z"/>
</svg>
