<svg xmlns="http://www.w3.org/2000/svg" width="100" height="100">
    <path fill="none" stroke="#d9d9d9" stroke-linecap="round" stroke-linejoin="round" stroke-width="5" d="M24.023 28.126H78.31s9.207.248 9.207 9.543V45M40 82.656H10.272S2.5 82.036 2.5 74.601V26.39s0-9.047 8.729-9.047h26.186s7.294 0 7.294 7.56v2.974" paint-order="fill markers stroke"/>
    <path fill="#04c38e" stroke="#04c38e" stroke-width=".109" d="m85.737 52.265-7.152 17.519-7.195-17.519H65.5l10.094 23.912L68.42 93.04l5.157.994 17.74-41.768z"/>
    <path fill="#04c38e" stroke="#04c38e" stroke-width=".109" d="M54.317 56.695a7.087 6.918 0 0 1 6.672 4.24l.098.209 5.018-1.651-.108-.249a12.355 12.06 0 0 0-11.672-7.419 12.55 12.252 0 0 0-9.193 3.506 12.054 11.767 0 0 0-3.73 8.748 11.994 11.709 0 0 0 3.722 8.715 12.55 12.252 0 0 0 9.193 3.508 12.36 12.066 0 0 0 11.671-7.419l.109-.249-5.027-1.653-.095.22a6.957 6.79 0 0 1-6.666 4.226 7.057 6.889 0 0 1-5.214-2.101 7.404 7.228 0 0 1-2.12-5.241 7.53 7.35 0 0 1 2.12-5.3 7.024 6.857 0 0 1 5.233-2.098z"/>
</svg>
