<svg xmlns="http://www.w3.org/2000/svg" width="100" height="100">
    <g fill="none" stroke-width="5">
        <path stroke="#d9d9d9" stroke-linecap="round" stroke-linejoin="round" d="M24.023 28.126H78.31s9.207.248 9.207 9.543V45M40 82.656H10.272S2.5 82.036 2.5 74.601V26.39s0-9.047 8.729-9.047h26.186s7.294 0 7.294 7.56v2.974" paint-order="fill markers stroke"/>
        <path stroke="#ff7043" d="M85.03 52.828a1.91 1.91 0 0 0-1.41-.621H50.266a1.91 1.91 0 0 0-1.903 2.08l2.904 32.476a1.91 1.91 0 0 0 1.39 1.67l13.755 3.82a1.903 1.903 0 0 0 .512.07 1.933 1.933 0 0 0 .51-.068l13.792-3.82a1.91 1.91 0 0 0 1.393-1.672l2.903-32.476a1.91 1.91 0 0 0-.492-1.46z"/>
    </g>
</svg>
