<svg xmlns="http://www.w3.org/2000/svg" width="100" height="100">
    <path fill="none" stroke="#d9d9d9" stroke-linecap="round" stroke-linejoin="round" stroke-width="5" d="M24.023 28.126H78.31s9.207.248 9.207 9.543V45M40 82.656H10.272S2.5 82.036 2.5 74.601V26.39s0-9.047 8.729-9.047h26.186s7.294 0 7.294 7.56v2.974" paint-order="fill markers stroke"/>
    <path fill="#0288d1" stroke="#0288d1" stroke-width="1.933" d="M65.654 94.075c-.876 0-1.7-.34-2.322-.959L44.475 74.26a3.302 3.302 0 0 1-.003-4.647l6.908-6.906a1.382 1.382 0 0 1 2.338 1.219c-.07.395-.102.713-.102.999 0 3.024 2.462 5.536 5.487 5.536 3.028 0 5.24-2.512 5.24-5.536 0-3.029-2.212-5.49-5.24-5.49-.283 0-.6.032-.995.102a1.384 1.384 0 0 1-1.22-2.338l6.442-6.443c1.247-1.242 3.405-1.24 4.647-.003l4.715 4.719c.985-3.06 3.857-5.28 7.238-5.28 4.191 0 7.602 3.411 7.602 7.604 0 3.38-2.22 6.253-5.28 7.236l4.58 4.578a3.297 3.297 0 0 1 .002 4.649L67.979 93.113a3.27 3.27 0 0 1-2.325.962zM51.091 66.904l-4.661 4.66a.53.53 0 0 0 .002.743l18.852 18.852c.265.262.473.264.742-.003l18.851-18.852a.526.526 0 0 0-.001-.741l-6.65-6.645a1.382 1.382 0 0 1 1.138-2.35l.211.027c.116.016.233.035.354.035a4.84 4.84 0 0 0 4.837-4.834c0-2.669-2.17-4.84-4.837-4.84a4.844 4.844 0 0 0-4.835 4.84c0 .11.017.218.032.327l.03.247a1.383 1.383 0 0 1-.78 1.394 1.386 1.386 0 0 1-1.572-.27l-6.78-6.783c-.265-.262-.473-.265-.742.002l-4.196 4.196c3.598.891 6.021 4.146 6.021 8.015 0 4.55-3.452 8.3-8.005 8.3-3.868 0-7.121-2.725-8.01-6.32z"/>
</svg>
