<svg xmlns="http://www.w3.org/2000/svg" width="100" height="100">
    <g fill="none" stroke-linecap="round" stroke-linejoin="round">
        <path stroke="#d9d9d9" stroke-width="5" d="M24.023 28.126H78.31s9.207.248 9.207 9.543V45M40 82.656H10.272S2.5 82.036 2.5 74.601V26.39s0-9.047 8.729-9.047h26.186s7.294 0 7.294 7.56v2.974" paint-order="fill markers stroke"/>
        <g stroke="#8d6e63" stroke-width="2" transform="matrix(2.63089 0 0 2.63089 39.461 38.818)">
            <rect width="12" height="12" x="8" y="8" rx="2"/>
            <path d="M16 8V6a2 2 0 0 0-2-2H6a2 2 0 0 0-2 2v8a2 2 0 0 0 2 2h2"/>
        </g>
    </g>
</svg>
