<svg xmlns="http://www.w3.org/2000/svg" width="100" height="100">
    <path fill="none" stroke="#d9d9d9" stroke-linecap="round" stroke-linejoin="round" stroke-width="5" d="M44.714 27.878v-2.975c0-7.56-7.295-7.56-7.295-7.56h-26.19c-8.729 0-8.729 9.048-8.729 9.048V74.6c0 7.436 7.773 8.056 7.773 8.056H40M94.627 45l1.939-7.331c1.833-8.828-7.31-9.543-7.31-9.543h-65.23s-4.886 1.206-6.747 5.588c-1.86 4.381-5.75 15.511-5.75 15.511" paint-order="fill markers stroke"/>
    <g fill="#ffc107" stroke-width=".092">
        <path d="m74.589 56.1 3.2-3.198-9.595-9.595-9.595 9.597 3.2 3.198 6.395-6.398ZM52.204 78.486l3.197-3.2-6.395-6.395 6.395-6.395-3.195-3.2-9.597 9.595Zm6.395 6.395 9.595 9.595 9.595-9.595-3.2-3.198-6.395 6.395-6.395-6.395Zm22.387-22.385 6.395 6.395-6.395 6.395 3.198 3.2 9.595-9.595-9.597-9.595-3.198 3.2Z"/>
        <path fill-rule="evenodd" d="M68.194 59.846a9.045 9.045 0 1 1 0 18.091 9.045 9.045 0 0 1 0-18.09zm0 4.523a4.523 4.523 0 1 1 0 9.046 4.523 4.523 0 0 1 0-9.046z" clip-rule="evenodd"/>
    </g>
</svg>
