<svg xmlns="http://www.w3.org/2000/svg" width="100" height="100">
    <path fill="none" stroke="#ffae33" stroke-linecap="round" stroke-linejoin="round" stroke-width="5" d="M57.095 12.549a8.246 8.246 0 0 1-3.042 11.213L29.696 37.76a2.08 2.08 0 0 0-1.04 1.806v21.98a2.08 2.08 0 0 0 1.04 1.807L48.98 74.436a2.047 2.047 0 0 0 2.046 0l19.28-11.077a2.08 2.08 0 0 0 1.04-1.806V47.89l-17.332 9.826a8.142 8.142 0 0 1-11.13-3.12 8.246 8.246 0 0 1 3.102-11.194l24.799-14.074a11.335 11.335 0 0 1 16.901 9.927v23.962a15.66 15.66 0 0 1-7.835 13.58L57.715 89.52a15.476 15.476 0 0 1-15.43 0L20.148 76.794a15.66 15.66 0 0 1-7.835-13.58V37.9a15.657 15.657 0 0 1 7.835-13.58L45.947 9.491a8.148 8.148 0 0 1 11.148 3.057z"/>
</svg>
