<svg xmlns="http://www.w3.org/2000/svg" xml:space="preserve" width="100" height="100"><g paint-order="stroke fill markers"><circle cx="29.578638" cy="42.846848" r="12" fill="none" stroke="#29beb0" stroke-linecap="round" stroke-linejoin="round" stroke-width="5"/><circle cx="70.578636" cy="42.846848" r="12" fill="none" stroke="#29beb0" stroke-linecap="round" stroke-linejoin="round" stroke-width="5"/><path fill="none" stroke="#29beb0" stroke-linecap="round" stroke-linejoin="round" stroke-width="4.97186" d="M7.5718536 49.990482A42.514072 36.538345 0 0 1 50.085926 13.452137a42.514072 36.538345 0 0 1 42.514072 36.538345"/><path fill="none" stroke="#29beb0" stroke-linecap="round" stroke-linejoin="round" stroke-width="5" d="M7.5587632 50.41515v36.812338M92.598512 50.37631v36.812338M11.151145 30.579088a10 10 0 0 1-3.3846854-10.48664 10 10 0 0 1 8.3136984-7.232436 10 10 0 0 1 9.917115 4.803804M88.841683 30.579424a10 10 0 0 0 3.384686-10.48664 10 10 0 0 0-8.313698-7.232436 10 10 0 0 0-9.917115 4.803804"/><ellipse cx="50.07864" cy="68.032967" fill="none" stroke="#29beb0" stroke-linecap="round" stroke-linejoin="round" stroke-width="5" rx="10.550026" ry="5.0972037"/><path fill="none" stroke="#29beb0" stroke-linecap="round" stroke-linejoin="round" stroke-width="5" d="M47.5 73.5V78M52.5 73.5V78"/><circle cx="24" cy="43" r="5" fill="#29beb0"/><circle cx="65" cy="43" r="5" fill="#29beb0"/></g></svg>