<svg xmlns="http://www.w3.org/2000/svg" width="100" height="100">
    <path fill="none" stroke="#4298b8" stroke-linecap="round" stroke-linejoin="round" stroke-width="5" d="M72.698 32.847c2.41 1.205 3.287 4.476 9.425 21.35 6.137 16.872-5.7 26.686-5.7 26.686S34.999 97.067 34.999 91.557c-1.096-6.026-11.836-13.601-11.836-13.601s-3.218-4.13.356-4.95c36.263-8.33 42.714-12.095 44.796-21.22M46.176 67.28c-29.298 1.664-30.185-16.696-30.028-17.217C22.869 27.739 57.647 3.52 67.218 7.882c20.248 9.594-10.121 52.382-23.891 50.102-32.805-5.432 12.932-40.116 12.932-40.116 13.224-8.092-1.17 25.137-6.795 25.998" paint-order="fill markers stroke"/>
</svg>
