<svg xmlns="http://www.w3.org/2000/svg" width="100" height="100">
    <g fill="none" stroke="#c19770" stroke-linecap="round" stroke-linejoin="round" stroke-width="5" paint-order="fill markers stroke">
        <path d="M86.964 22.93c.69-.507 1.86-.293 2.562.198 1.723 1.205 2.997 3.575 2.611 5.742-.503 2.823-3.624 5.84-7.735 4.482-11.462-3.79-14.322-20.353-34.126-10.148"/>
        <path d="M90.657 24.32c1.815 1.577 2.162 2.35 1.724 5.41-.361 2.517-2.878 3.638-5.168 4.643-18.595 8.16-23.868-6.112-36.937-2.556M13.036 22.93c-.69-.507-1.86-.293-2.562.198-1.723 1.205-2.997 3.575-2.611 5.742.503 2.823 3.624 5.84 7.735 4.482 11.462-3.79 14.322-20.353 34.126-10.148"/>
        <path d="M9.343 24.32c-1.815 1.577-2.162 2.35-1.724 5.41.361 2.517 2.878 3.638 5.168 4.643 18.595 8.16 23.868-6.112 36.937-2.556M49.925 32.655V80.07"/>
    </g>
</svg>
