<svg xmlns="http://www.w3.org/2000/svg" width="100" height="100">
    <g fill="none" stroke="#984c93" stroke-width="5">
        <path d="M53.338 10.199 82.8 27.209a6.67 6.67 0 0 1 3.338 5.781v34.02a6.67 6.67 0 0 1-3.338 5.782l-29.462 17.01a6.672 6.672 0 0 1-6.676 0L17.2 72.792a6.671 6.671 0 0 1-3.338-5.782V32.99a6.677 6.677 0 0 1 3.338-5.782l29.462-17.01a6.672 6.672 0 0 1 6.676 0z"/>
        <path stroke-linecap="round" stroke-linejoin="round" d="M35 30v40M65 30v40M35 50h30" paint-order="fill markers stroke"/>
    </g>
</svg>
