<svg xmlns="http://www.w3.org/2000/svg" width="100" height="100">
    <path fill="none" stroke="#90a4ae" stroke-width="5" d="m59.19 25.417 2.672-4.627c5.343-9.255-8.54-17.27-13.882-8.015l-2.672 4.628c-5.343 9.254 8.539 17.27 13.882 8.014zm23.137 13.359 2.671-4.628c5.344-9.255-8.538-17.27-13.882-8.015l-2.671 4.628c-5.343 9.254 8.539 17.27 13.882 8.015zm1.86 28.837 1.335-2.313c5.344-9.255-8.538-17.27-13.882-8.015l-1.335 2.314c-5.344 9.254 8.538 17.27 13.882 8.014zM33.286 38.226l1.335-2.314c5.344-9.255-8.538-17.27-13.882-8.015l-1.335 2.314c-5.344 9.255 8.538 17.27 13.882 8.015zM19.24 55.66l22.968-8.6c7.044-2.638 14.746 1.809 15.983 9.229l4.037 24.19c1.3 7.784-7.049 13.576-13.888 9.628a6.672 6.672 0 0 1-2.234-2.105l-1.185-1.794A28.4 28.4 0 0 0 22.928 73.51l-2.147-.13a6.669 6.669 0 0 1-2.934-.88c-6.84-3.948-5.997-14.074 1.394-16.84z"/>
</svg>
