<svg xmlns="http://www.w3.org/2000/svg" width="100" height="100">
    <g fill="none" stroke="#ffaa2d" stroke-linecap="round" stroke-linejoin="round" stroke-width="5" paint-order="fill markers stroke">
        <path d="M36.933 53.918c-4.51.62-7.752 1.494-10.994 3.89 11.518 3.524 26.806 2.798 40.595.254M34.988 65.505c-1.776.282-2.875.817-3.467 1.776 9.134 2.762 21.989 2.48 31.8.338M36.172 75.146c-1.24.226-1.72 1.128-1.691 1.945 8.344 2.678 19.142 2.227 27.402 0M72.454 54.172c5.413-.451 7.858 2.254 8.373 5.243.188 4.019-5.78 7.5-10.572 10.234M28.307 80.22c-5.836.451-8.88 2.51-10.741 4.906 3.524 4.228 40.708 4.313 60.3-2.03.367-.846.48-1.692-.93-2.03M28.391 93.837C46.575 96.374 72.116 95.275 82.434 88M58.307 4.926c.598 2.312 2.265 6.058 1.435 8.97-2.82 9.893-19.188 13.086-20.213 23.323-.63 6.288 5.98 10.884 9.33 16.505"/>
        <path d="M67.158 22.986c-6.06 4.944-14.054 7.857-15.07 14.83-.513 3.515 4.84 5.792 5.142 9.33.187 2.186-.398 3.668-2.152 6.22"/>
    </g>
</svg>
