<svg xmlns="http://www.w3.org/2000/svg" width="100" height="100">
    <path fill="#c63d14" stroke="#c63d14" d="M86.988 49.323a10.272 10.272 0 0 0-8.361-10.08L89.997 5.71H36.254l11.39 33.6a10.253 10.253 0 0 0-3.164 18.722 34.372 34.372 0 0 1-4.96 5.84 31.088 31.088 0 0 1-9.998 6.422 8.402 8.402 0 0 1-3.587-10.376l.126-.294.234-.554a10.266 10.266 0 1 0-10.566-2.385c-.341.73-.702 1.47-1.072 2.233a44.29 44.29 0 0 0-4.43 12.022c-1.47 8.857.902 15.953 6.68 19.955a18.194 18.194 0 0 0 10.632 3.395c6.744 0 13.568-3.388 20.247-6.704a74.888 74.888 0 0 1 14.685-6.068c1.825-.449 3.704-.72 5.694-1.009a31.563 31.563 0 0 0 11.642-3.252 16.102 16.102 0 0 0 7.868-11.167 16.624 16.624 0 0 0-2.186-11.43 10.196 10.196 0 0 0 1.502-5.34zm-4.027 0a6.232 6.232 0 1 1-6.232-6.232 6.239 6.239 0 0 1 6.232 6.232zm1.414-39.586-10.04 29.611a10.123 10.123 0 0 0-1.266.396L63.15 19.497 53.2 39.624a10.123 10.123 0 0 0-1.325-.361L41.87 9.737ZM49.87 43.091a6.232 6.232 0 1 1-6.232 6.232 6.239 6.239 0 0 1 6.232-6.232zm-26.96.06a6.232 6.232 0 1 1-6.235 6.216 6.239 6.239 0 0 1 6.232-6.232zm60.795 22.252a12.085 12.085 0 0 1-5.92 8.371 28.156 28.156 0 0 1-10.196 2.75c-1.999.287-4.065.584-6.086 1.084A77.782 77.782 0 0 0 46 83.977c-10.01 4.97-18.665 9.262-26.801 3.615-5.97-4.137-5.695-11.793-4.999-15.988a40.557 40.557 0 0 1 4.056-10.924l.854-1.768a10.17 10.17 0 0 0 2.651.664 12.543 12.543 0 0 0 6.644 14.726l.775.399.819-.291a34.89 34.89 0 0 0 12.259-7.593 38.21 38.21 0 0 0 6.067-7.336 10.253 10.253 0 0 0 8.352-17.801l6.448-13.037 6.513 13.287a10.25 10.25 0 0 0 12.933 15.818 12.518 12.518 0 0 1 1.123 7.662z"/>
</svg>
