<svg xmlns="http://www.w3.org/2000/svg" width="100" height="100">
    <g paint-order="fill markers stroke">
        <path fill="none" stroke="#f7df1e" stroke-linecap="round" stroke-linejoin="round" stroke-width="5" d="M27.598 16.29H20.83c-2.127 0-4.512 2.385-4.512 4.512v21.432c0 3.723-7.896 4.174-7.896 7.897 0 3.722 7.896 4.173 7.896 7.896v21.432c0 2.127 2.385 4.512 4.512 4.512h6.768M72.72 16.29h6.767c2.127 0 4.512 2.385 4.512 4.512v21.432c0 3.723 7.897 4.174 7.897 7.897 0 3.722-7.897 4.173-7.897 7.896v21.432c0 2.127-2.385 4.512-4.512 4.512H72.72"/>
        <circle cx="50.159" cy="72.691" r="2.5" fill="#f7df1e"/>
        <circle cx="67.079" cy="72.691" r="2.5" fill="#f7df1e"/>
        <circle cx="33.238" cy="72.691" r="2.5" fill="#f7df1e"/>
    </g>
</svg>
