<svg xmlns="http://www.w3.org/2000/svg" width="100" height="100">
    <g fill="none" stroke-width="5">
        <path stroke="#28a745" d="M68.702 29.422c.01 10.336-8.366 18.72-18.702 18.72-10.336 0-18.702-8.384-18.702-18.72 0-10.335 8.366-18.719 18.702-18.719 10.336 0 18.712 8.384 18.702 18.72z"/>
        <path stroke="#cb3c33" d="M45.206 70.58c0 10.33-8.373 18.704-18.702 18.704-10.33 0-18.703-8.374-18.702-18.704-.001-10.33 8.372-18.704 18.702-18.704 10.33 0 18.703 8.375 18.702 18.704z"/>
    </g>
    <path fill="none" stroke="#9558b2" stroke-width="5" d="M92.182 70.664c0 10.329-8.373 18.702-18.702 18.702-10.329 0-18.702-8.373-18.702-18.702 0-10.329 8.373-18.702 18.702-18.702 10.329 0 18.702 8.373 18.702 18.702z"/>
</svg>
