<svg xmlns="http://www.w3.org/2000/svg" width="100" height="100">
    <path fill="none" stroke="#28a745" stroke-width="5" d="M45.222 70.593c.001 10.33-8.372 18.704-18.702 18.704-10.33 0-18.703-8.374-18.702-18.704-.001-10.33 8.372-18.704 18.702-18.704 10.33 0 18.703 8.374 18.702 18.704zm23.48-41.17c.01 10.335-8.366 18.719-18.702 18.719-10.336 0-18.702-8.384-18.702-18.72 0-10.335 8.366-18.719 18.702-18.719 10.336 0 18.712 8.384 18.702 18.72zm23.48 41.17c0 10.329-8.373 18.702-18.702 18.702-10.329 0-18.702-8.373-18.702-18.702 0-10.329 8.373-18.702 18.702-18.702 10.329 0 18.702 8.373 18.702 18.702z"/>
</svg>
