<svg xmlns="http://www.w3.org/2000/svg" width="100" height="100">
    <path fill="none" stroke="#f37726" stroke-linecap="round" stroke-linejoin="round" stroke-width="5" d="M51.06 69.626c-13.47 0-25.515-4.973-31.897-12.06 2.478 6.383 6.744 12.06 12.406 15.949 5.677 3.905 12.405 6.02 19.491 6.02 7.087 0 13.833-2.115 19.492-6.02 5.678-3.889 9.928-9.566 12.406-15.949-6.382 7.09-18.426 12.06-31.898 12.06zm0-42.795c13.472 0 25.516 4.973 31.898 12.06-2.478-6.383-6.728-12.06-12.406-15.95-6.02-4.25-12.748-6.381-19.492-6.381a34.366 34.366 0 0 0-19.491 6.02c-5.66 4.25-9.928 9.567-12.406 16.31 6.382-7.45 18.083-12.06 31.897-12.06zM75.871 7.832c-6.616 0-6.616 9.91 0 9.91s6.616-9.91 0-9.91zM25.91 79.42a6.374 6.374 0 1 0 0 12.748 6.366 6.366 0 0 0 6.366-6.366 6.369 6.369 0 0 0-6.366-6.382zm-5.317-63.794c-4.734 0-4.734 7.089 0 7.089 4.721 0 4.721-7.09 0-7.09z"/>
</svg>
