<svg xmlns="http://www.w3.org/2000/svg" width="100" height="100">
    <g fill="#bc7922">
        <path d="M67.594 37.044a4.627 4.627 0 1 0 0-9.254 4.627 4.627 0 0 0 0 9.254z"/>
        <path fill-rule="evenodd" d="M63.893 5.581a30.538 30.538 0 0 0-29.061 39.94L7.492 72.868a6.478 6.478 0 0 0-1.9 4.576V87.94a6.478 6.478 0 0 0 6.479 6.478h5.552a6.478 6.478 0 0 0 6.478-6.478V84.24a.925.925 0 0 1 .925-.926H35.15a2.776 2.776 0 0 0 2.017-.814l.792-.789a3.239 3.239 0 0 0 .948-2.29v-5.36a.925.925 0 0 1 .925-.926h4.02a6.456 6.456 0 0 0 4.58-1.899l6.055-6.056a30.538 30.538 0 1 0 9.406-59.599ZM38.907 36.119A24.986 24.986 0 1 1 54.78 59.391a2.776 2.776 0 0 0-2.976.622l-7.295 7.3a.925.925 0 0 1-.656.27h-4.02a6.478 6.478 0 0 0-6.477 6.477v3.702h-8.329a6.478 6.478 0 0 0-6.478 6.478v3.701a.925.925 0 0 1-.925.926H12.07a.925.925 0 0 1-.926-.926V77.444a.925.925 0 0 1 .27-.656L40 48.208a2.776 2.776 0 0 0 .622-2.976 24.912 24.912 0 0 1-1.714-9.113z"/>
    </g>
</svg>
