<svg xmlns="http://www.w3.org/2000/svg" width="100" height="100">
    <path fill="#ff5722" fill-rule="evenodd" d="M52.855 14.747c0-3.812-5.717-3.812-5.717 0v6.67h-7.523a6.67 6.67 0 0 0-3.754 1.154l-6.46 4.398a.953.953 0 0 1-.537.164H13.23c-3.81 0-3.81 5.717 0 5.717h6.01L6.409 62.12a2.904 2.904 0 0 0 .8 3.353c.306.244.614.477 1.178.843.71.46 1.723 1.06 3.019 1.65a26.347 26.347 0 0 0 10.96 2.363c3.782.007 7.52-.799 10.962-2.363 1.296-.59 2.31-1.19 3.018-1.65.572-.37.877-.603 1.182-.85a2.858 2.858 0 0 0 .796-3.346L25.487 32.85h3.377a6.678 6.678 0 0 0 3.75-1.155l6.464-4.398a.952.952 0 0 1 .533-.164h7.527v55.262h-17.1c-3.811 0-3.811 5.717 0 5.717h39.918c3.811 0 3.811-5.717 0-5.717h-17.1V27.133h7.522c.191 0 .382.057.534.164l6.468 4.398a6.678 6.678 0 0 0 3.75 1.155h3.377L61.67 62.12a2.858 2.858 0 0 0 .877 3.414c.046.035 0 0 .008 0 .378.285.772.547 1.181.785a23.65 23.65 0 0 0 3.011 1.525 27.985 27.985 0 0 0 10.881 2.165 27.984 27.984 0 0 0 10.885-2.169 23.996 23.996 0 0 0 3.01-1.52c.408-.241.802-.503 1.182-.786a2.858 2.858 0 0 0 .877-3.414L80.753 32.85h6.014c3.811 0 3.811-5.717 0-5.717H71.134a.953.953 0 0 1-.534-.164l-6.468-4.398a6.67 6.67 0 0 0-3.75-1.155h-7.527ZM12.621 62.188c3 1.596 6.347 2.428 9.745 2.42a20.645 20.645 0 0 0 9.745-2.42L22.366 39.97Zm55.3-.091c.312.152.663.316 1.048.48 2.02.85 4.973 1.715 8.659 1.715 3.36.01 6.678-.741 9.707-2.195l-9.707-22.132z"/>
</svg>
