<svg xmlns="http://www.w3.org/2000/svg" width="100" height="100">
    <g fill="none" stroke="#ff5722" stroke-linecap="round" stroke-linejoin="round" paint-order="fill markers stroke">
        <path stroke-width="5" d="M15 8.5h70c3.536 0 7.5 3.965 7.5 7.5v44.5c0 3.308-3.192 7.5-6.5 7.5H75v23.5L62.5 78.914 50 91.5V68H15c-3.536 0-7.5-3.964-7.5-7.5V16c0-3.535 3.964-7.5 7.5-7.5z"/>
        <path stroke-width="4.294" d="m52 21.331 11 7.558 11-7.486v12.885l11.43 5.686L74 45.733v12.956l-11-7.342-11 7.342V45.661l-11.197-5.615L52 34.432Z"/>
        <path stroke-width="5" d="M17.518 22.21h17.016M17.518 56.827h17.016M17.518 39.728h9.975"/>
    </g>
</svg>
