<svg xmlns="http://www.w3.org/2000/svg" width="100" height="100">
    <path fill="none" stroke="#42a5f5" stroke-width="5" d="M42.908 22.407c-19.156 0-34.686 15.53-34.686 34.685 0 19.156 15.53 34.686 34.686 34.686s34.685-15.53 34.685-34.686-15.53-34.685-34.685-34.685m10.299 34.588c-5.634 0-10.202-4.568-10.202-10.202s4.568-10.201 10.202-10.201 10.201 4.567 10.201 10.201-4.567 10.202-10.201 10.202M81.576 8.222c-5.634 0-10.202 4.568-10.202 10.202s4.568 10.202 10.202 10.202 10.202-4.568 10.202-10.202S87.21 8.222 81.576 8.222"/>
</svg>
