<svg xmlns="http://www.w3.org/2000/svg" width="100" height="100">
    <g fill="none" stroke="#aaa" stroke-linecap="round" stroke-linejoin="round" stroke-width="1.105">
        <path stroke="#cb8a0f" d="m15 12-8.5 8.5c-.83.83-2.17.83-3 0v0a2.12 2.12 0 0 1 0-3L12 9" transform="matrix(4.4371 0 0 4.61842 -5.201 -5.602)"/>
        <path fill="#aaa" stroke-width="5" d="m73.072 63.684 19.35-20.185" paint-order="fill markers stroke"/>
        <path d="m20.91 11.7-1.25-1.25c-.6-.6-.93-1.4-.93-2.25v-.86L16.01 4.6a5.56 5.56 0 0 0-3.94-1.64H9l.92.82A6.18 6.18 0 0 1 12 8.4v1.56l2 2h2.47l2.26 1.91" transform="matrix(4.4371 0 0 4.61842 -5.201 -5.602)"/>
    </g>
</svg>
