<svg xmlns="http://www.w3.org/2000/svg" width="100" height="100">
    <g fill="none" stroke="#aaa" stroke-linecap="round" stroke-linejoin="round" stroke-width="1.141">
        <path stroke-width="5.0019158" d="M61.219 49.829 23.956 87.09a9.287 9.287 0 0 1-13.15 0s0 0 0 0a9.294 9.294 0 0 1 0-13.152l37.261-37.262M72.792 62.98l19.113-19.113"/>
        <path stroke-width="5.0019158" d="m87.127 48.513-5.48-5.48a13.86 13.86 0 0 1-4.077-9.863V29.4L65.646 17.388A24.374 24.374 0 0 0 48.374 10.2H34.916l4.033 3.595a27.092 27.092 0 0 1 9.118 20.253v6.839l8.768 8.767h10.828l9.907 8.373"/>
    </g>
</svg>
