<svg xmlns="http://www.w3.org/2000/svg" width="100" height="100">
    <path fill="none" stroke="#ea2845" stroke-linecap="round" stroke-linejoin="round" stroke-width="5" d="M67.209 7.776c20.744 16.003-4.335 30.468-4.335 30.468s18.297 3.226 21.147-12.868c4.526 4.526 13.858 28.369-.024 46.06-14.215 18.117-35.372 20.788-35.372 20.788s14.081-13.747 12.07-30.008c0 0-8.047 22.967-27.493 16.094-8.382-6.203-4.359-14.082-4.359-14.082 2.068-3.241 4.638-2.962 7.209-2.18 0 0-1.51 17.938 15.423 1.174 0 0-7.88-23.805-29.17-17.267l-2.749 3.31c-2.37-3.398-6.875-7.745-10.313-11.617 0 0-2.252-4.03 2.37-6.757 4.624-2.726 7.35-.118 13.04-6.757 5.69-6.638 16.477-7.705 33.903-2.607 0 0-.119-4.268 2.015-5.572 2.133-1.304 5.216-5.216 6.638-8.179z" paint-order="fill markers stroke"/>
</svg>
