<svg xmlns="http://www.w3.org/2000/svg" width="100" height="100">
    <g fill="none" stroke-width="2.459" transform="matrix(2.03321 0 0 2.03321 1.17 -.98)">
        <path stroke="#e0234e" stroke-linecap="round" d="M42 26c0 8.837-8.059 16-18 16S6 34.837 6 26m9-13.86c2.648-1.36 5.721-2.14 9-2.14s6.352.78 9 2.14"/>
        <path stroke="#e0234e" stroke-linecap="round" stroke-linejoin="round" d="M6 26V8.488c0-1.731 2.05-2.645 3.337-1.487L15 12.093M42 26V8.488c0-1.731-2.05-2.645-3.337-1.487L33 12.093"/>
        <circle cx="30" cy="22" r="1.721" fill="#e0234e"/>
        <circle cx="18" cy="22" r="1.721" fill="#e0234e"/>
        <circle cx="24" cy="28" r="1.721" fill="#e0234e"/>
        <path stroke="#e0234e" stroke-linecap="round" stroke-linejoin="round" d="M16 30 4 31m15 4L7 41m25-11 12 1m-15 4 12 6"/>
    </g>
</svg>
