<svg xmlns="http://www.w3.org/2000/svg" width="100" height="100">
    <path fill="none" stroke="#009639" stroke-linecap="round" stroke-linejoin="round" stroke-width="5" d="m50 8.601-35.862 20.7v41.398L50 91.4l35.862-20.7V29.301Zm20.7 57.234c0 2.432-2.23 4.45-5.276 4.45-2.176 0-4.66-.88-6.213-2.794l-20.7-24.636v22.977c0 2.487-1.966 4.45-4.394 4.45h-.262c-2.488 0-4.45-2.07-4.45-4.45V34.165c0-2.432 2.173-4.45 5.174-4.45 2.229 0 4.76.88 6.313 2.794l20.596 24.636v-22.98c0-2.487 2.07-4.45 4.45-4.45h.26c2.483 0 4.45 2.07 4.45 4.45v31.67Z"/>
</svg>
