<svg xmlns="http://www.w3.org/2000/svg" width="100" height="100">
    <g fill="none" stroke="#0ea5e9" stroke-linecap="round" stroke-linejoin="round" stroke-width="5" paint-order="fill markers stroke">
        <path d="M5 22v56.063h13.855v-33.11l19.89 33.11H52.08l5.978-8.852 5.748 8.852H77.03l-12.417-19.2s0-7.012 5.404-10.001c5.403-2.99 9.427 0 9.427 0s2.414 1.839 2.99 3.449c.574 1.61 2.873 1.954 4.253 2.644 1.38.69 2.53 1.265 2.874 3.334.345 2.07 2.99 3.564 5.059 1.265 2.07-2.3-3.22-19.315-15.75-21.385-12.532-2.069-20.81 8.278-20.81 8.278l-6.208-8.622V22H38.629v32.84L18.855 22ZM39.09 37.02h12.3"/>
        <path d="m38.744 76.454 12.072-18.28-11.382-17.475"/>
    </g>
</svg>
