<svg xmlns="http://www.w3.org/2000/svg" width="100" height="100">
    <path fill="none" stroke="#f40f02" stroke-linecap="round" stroke-linejoin="round" stroke-width="5" d="M16.972 89.113c11.34-7.726 18.889-19.488 24.536-33.884 5.647-14.396 11.672-26.735 9.03-40.947-.414-2.228-3.588-4.482-5.209-4.369-6.445.453-5.994 7.544-5.378 11.832 1.51 10.503 9.84 22.73 17.824 34.253 7.982 11.524 14.612 13.335 23.78 13.94 3.09.204 7.8-.869 8.564-3.603 4.83-17.31-56.642-3.3-77.08 12.85-2.556 2.02-5.431 6.192-3.793 9.008 1.304 2.242 5.47 2.456 7.726.92z" paint-order="fill markers stroke"/>
</svg>
