<svg xmlns="http://www.w3.org/2000/svg" width="100" height="100">
    <path fill="none" stroke="#9575cd" stroke-linecap="round" stroke-linejoin="round" stroke-width="5" d="M17.102 28.917c-2.648 5.147.324 12.413 2.141 15.403 0 9.826 11.16 10.463 16.741 9.553.779 9.554 3.44 9.944 3.504 15.403.195 16.767-4.866 17.937-4.866 21.056 0 3.12 8.565 1.365 7.98 0-.583-1.364 1.947-14.232 3.31-18.912 1.09-3.743 1.882-11.828 2.141-15.402 1.752-1.56 5.14-3.86 4.672-.585-.584 4.094-1.362 14.428-1.362 15.987 0 1.56 3.893 4.582 6.229 6.045 3.115 1.949 3.115 4.484-.779 8.383-3.893 3.9.584 2.73 3.31 3.315 2.18.468 3.633-2.535 4.088-4.095 2.011 2.795 6.073 7.253 6.229 2.73.195-5.654-3.115-6.824-3.893-8.969-.78-2.145 4.866-8.188 6.618-12.088-5.06-7.604 2.92-25.54 2.53-18.327-.525 9.749 5.257 11.893 6.23 18.912.779 5.615-.13 16.313-.973 23.006 1.298.325 4.555.78 7.202 0-2.024-2.807-1.622-16.507-1.167-23.006-1.169-3.964-3.066-13.648-1.313-20.667 1.753-7.019.73-12.153 0-13.842.473-3.881-1.613-7.576-3.165-9.359-2.011-1.495-6.073-1.56-6.23-5.46-.194-4.873-2.725-8.578-10.316-9.943-6.074-1.091-12.524 4.745-14.99 7.8-.843 2.859-3.893 4.483-5.645 4.483-3.698 0-5.645 13.843-5.84 15.988-.195 2.145-7.397.195-4.866-4.29 2.024-3.587 2.14-11.113 1.946-14.427-.778-.13-2.258-1.014-1.946-3.51.389-3.119-6.62-4.289-8.176-5.069-1.558-.78-2.92.975-4.283 3.705-9.344-.585-10.317 2.924-10.317 6.239 0 2.651 4.931 3.314 7.397 3.314.39.065.506 1.482-2.141 6.63z"/>
</svg>
