<svg xmlns="http://www.w3.org/2000/svg" width="100" height="100">
    <g paint-order="fill markers stroke">
        <path fill="none" stroke="#787cb4" stroke-linecap="round" stroke-linejoin="round" stroke-width="5" d="M50.236 20.28c13.886-4.558 35.407.36 41.52 27.352.54 2.385-6.549-5.25-6.31-3.54.944 6.77-4.638 9.825-5.453 15.225-.94 6.23 1.142 17.645.779 18.943-.364 1.299.097 3.708-1.09 3.895-3.74.59-10.972 2.918-11.218 1.77.493-2.685-.805-5.104-2.103-7.17.441-3.57 2.674-9.265-1.636-12.127-4.622 2.125-9.088 3.541-13.866 1.063-5.505 4.1-3.532 11.035-2.493 16.287-2.83 2.538-6.284 2.508-9.66 1.77-.13-2.183-.726-5.252-2.96-6.55.857-4.869 1.714-9.737-1.012-14.517-2.778-2.184-5.596-5.057-9.114-5.223-1.225-.057-3.276 1.105-2.805 2.39 1.169 3.187 3.116 4.603 4.674 6.905 3.765 6.196.675 10.71-2.492 13.809-2.597.62-5.427-1.416-5.687-4.072 1.636-.885 3.116-3.01 3.272-5.488-1.543-2.783-3.409-4.606-5.183-6.015-12.242-9.718-11.61-29.378-1.984-43.556 5.79-5.076 12.048-5.194 18.384-5.666 8.932-.295 14.36 4.898 13.944 15.049-.441 9.943-3.454 15.55-12.308 17.35-2.986-.532-4.804-4.869-7.322-9.03 0 0 1.013 9.065 4.362 10.534 3.12 1.37 7.804-.1 11.295-2.213 3.15-1.906 4.961-5.362 6.31-9.117 1.906-5.307 2.271-9.19.156-18.058z"/>
        <circle cx="17.362" cy="40.507" r="2.5" fill="#787cb4"/>
        <path fill="#787cb4" d="M9.803 54.5c3.525 1.524 5.233-2.65 6.775-4.256 1.532-1.596 4.543 3.048 3.8 5.008-1.083 2.858-3.818 3.526-6.389 4.256"/>
    </g>
</svg>
