<svg xmlns="http://www.w3.org/2000/svg" width="100" height="100">
    <path fill="none" stroke="#45ba4b" stroke-linecap="round" stroke-linejoin="round" stroke-width="5" d="M92.798 33.808c-.2 2.987-.917 7.617-2.554 13.736-3.55 13.254-15.235 38.796-37.176 32.92-21.942-5.887-19.29-33.847-15.741-47.098 1.641-6.122 3.332-10.49 4.656-13.18 1.498-3.043 3.018-1.03 6.475 1.867 2.44 2.044 8.599 6.39 17.878 8.876 9.28 2.487 16.79 1.805 19.919 1.256 4.442-.781 6.768-1.762 6.543 1.623zM57.81 47.591s-.453-6.49-6.325-8.156c-5.866-1.666-9.323 3.71-9.323 3.71m2.409 12.89s1.59 8.228 11.909 11.25c10.21 2.982 15.805-3.5 15.805-3.5m9.64-8.956s-.464-6.486-6.326-8.155C69.733 45 66.28 50.377 66.28 50.377m-32.926 5.451c-5.813 1.993-7.735 7.054-7.735 7.054m12.754 9.165c-.202.062-.405.12-.61.175v.004c-16.943 4.563-25.905-15.07-28.617-25.26C7.89 42.26 7.344 38.696 7.197 36.4c-.167-2.605 1.624-1.856 5.049-1.263 2.415.42 8.206.93 15.37-1 2.987-.802 7.22-2.227 9.946-3.69m-21.916 16.66s2.658 3.838 7.171 2.65h.004c4.513-1.188 4.862-5.819 4.862-5.819"/>
</svg>
