<svg xmlns="http://www.w3.org/2000/svg" width="100" height="100">
    <path fill="#56b3b4" stroke="#56b3b4" stroke-width=".793" d="M37.274 92.417a2.12 2.12 0 0 1-2.12 2.12H13.949a2.121 2.121 0 0 1 0-4.243h21.207c1.173 0 2.119.95 2.119 2.123zm-2.12-10.61h-4.241a2.121 2.121 0 0 0 0 4.242h4.242a2.121 2.121 0 0 0 0-4.243zm-21.206 4.242h8.477a2.121 2.121 0 0 0 0-4.243h-8.477a2.121 2.121 0 0 0 0 4.243zm21.207-12.72H13.948a2.121 2.121 0 0 0 0 4.243h21.207a2.121 2.121 0 0 0 0-4.242zm29.69-8.483H26.672a2.121 2.121 0 0 0 0 4.242h38.175a2.121 2.121 0 0 0 0-4.242zm-50.897 4.242h4.242a2.121 2.121 0 0 0 0-4.242h-4.242a2.121 2.121 0 0 0 0 4.242zM77.572 56.36H64.846a2.121 2.121 0 0 0 0 4.242h12.726a2.121 2.121 0 0 0 0-4.242zm-38.175 4.242h16.965a2.121 2.121 0 0 0 0-4.242H39.397a2.121 2.121 0 0 0 0 4.242zm-25.449 0h16.965a2.121 2.121 0 0 0 0-4.242H13.948a2.121 2.121 0 0 0 0 4.242zm67.859-12.718H47.885a2.12 2.12 0 0 0 0 4.238h33.93a2.12 2.12 0 0 0 0-4.238zM41.517 50a2.12 2.12 0 0 0-2.12-2.12H26.67a2.12 2.12 0 0 0 0 4.24h12.726a2.12 2.12 0 0 0 2.12-2.12zm-27.569 2.12h4.242a2.12 2.12 0 0 0 0-4.24h-4.242a2.12 2.12 0 0 0 0 4.24zm72.105-12.723H64.846a2.121 2.121 0 0 0 0 4.242h21.207a2.121 2.121 0 0 0 0-4.242zm-72.105 4.242h21.207a2.121 2.121 0 0 0 0-4.242H13.948a2.121 2.121 0 0 0 0 4.242zm48.779-10.604a2.115 2.115 0 0 0 2.119 2.12h21.207a2.121 2.121 0 0 0 0-4.243H64.846a2.12 2.12 0 0 0-2.12 2.123zm-31.814-2.123a2.121 2.121 0 0 0 0 4.242h4.242a2.121 2.121 0 0 0 0-4.242zm-16.965 4.242h8.477a2.121 2.121 0 0 0 0-4.242h-8.477a2.121 2.121 0 0 0 0 4.242zm61.501-10.603c0 1.17.95 2.12 2.123 2.12h4.239a2.121 2.121 0 0 0 0-4.243h-4.235a2.12 2.12 0 0 0-2.123 2.123zm-4.242 0a2.12 2.12 0 0 0-2.12-2.123H52.117a2.121 2.121 0 0 0 0 4.242h16.968a2.12 2.12 0 0 0 2.12-2.119zm-57.259 2.12h29.691a2.121 2.121 0 0 0 0-4.243H13.948a2.121 2.121 0 0 0 0 4.242zm19.088-10.604a2.12 2.12 0 0 0 2.119 2.123h42.417a2.121 2.121 0 0 0 0-4.242H35.155a2.12 2.12 0 0 0-2.12 2.119zM13.948 18.19h12.723a2.121 2.121 0 0 0 0-4.242H13.948a2.121 2.121 0 0 0 0 4.242zm0-8.484h50.898a2.121 2.121 0 0 0 0-4.243H13.948a2.121 2.121 0 0 0 0 4.243z"/>
</svg>
