<svg xmlns="http://www.w3.org/2000/svg" width="100" height="100">
    <g fill="none" stroke="#56b3b4" stroke-linecap="round" stroke-linejoin="round" stroke-width="5" paint-order="fill markers stroke">
        <path d="M15.8 7.55h48.335M15.8 16.947h12.737M36.131 16.947H76.16M15.8 26.385h28.4M52.11 26.385h15.822M76.001 26.385h5.222M15.8 35.823h7.99M32.017 35.823h3.956M64.293 35.823H84.23M15.8 45.26h22.388M81.54 45.26H57.806M15.8 54.698h16.225M39.901 54.698h16.173M64.135 54.698H76.18M15.8 64.136h4.193M27.904 64.136h36.073M15.8 73.574h8.698M31.993 73.574h4.475M15.8 83.012h4.68M15.8 92.45h20.668M27.744 83.012h8.724"/>
    </g>
</svg>
