<svg xmlns="http://www.w3.org/2000/svg" width="100" height="100">
    <g fill="none" stroke="#efcca3" stroke-linecap="round" stroke-linejoin="round" stroke-width="5" paint-order="fill markers stroke">
        <path d="M33.372 24.626s13.848-6.647 34.282.69M81.89 53.976s-.515 5.968-3.228 9.442c-4.217 3.826-3.83 6.786-8.18 10.28-2.901 2.208-6.108 3.194-6.108 3.194-15.79 6.409-27.772.371-27.772.371s-3.227-1.178-6.408-3.065c-5.858-4.652-3.345-6.78-6.967-10.123-3.622-3.344-4.922-9.846-4.922-9.846"/>
        <path d="m30.387 73.958.657-10.64s.92-14.973 12.872-17.206M70.712 71.463l-.788-8.144s-.92-14.974-12.872-17.207"/>
        <ellipse cx="50.615" cy="45.915" rx="6.042" ry="4.532"/>
        <path d="M50.615 51.103v6.699M42.603 65.946s7.88-14.843 16.287.263"/>
        <circle cx="28.339" cy="41.942" r="8"/>
        <circle cx="71.537" cy="42.061" r="8"/>
        <path d="M32.235 20.529c-3.984.263-11.656 1.576-15.64 3.415-5.035 4.554-8.626 11.046-13.661 15.6l5.254 6.174 6.568 10.902 3.546-3.415M81.698 53.205l3.546 3.415 6.568-10.902 5.254-6.174c-5.035-4.554-8.626-9.37-13.66-13.924-3.985-1.838-11.062-4.552-15.047-4.815l-.65 4.39M32.236 20.57l1.196 4.034"/>
    </g>
</svg>
