<svg xmlns="http://www.w3.org/2000/svg" width="100" height="100">
    <path fill="none" stroke="#ffe873" stroke-linecap="round" stroke-linejoin="round" stroke-width="5" d="M48.274 69.75H68.65m-40.752 0v13.44c0 5.163 4.293 9.35 9.589 9.35H59.06c5.296 0 9.589-4.187 9.589-9.35V69.748m.901-22.557c2.545-2.549 2.545-7.512 2.545-17.177h10.338c5.295 0 9.588 4.186 9.588 9.35V60.4c0 5.164-4.293 9.35-9.588 9.35H68.65"/>
    <path fill="none" stroke="#ffe873" stroke-linecap="round" stroke-linejoin="round" stroke-width="5" d="M51.726 30.102H31.35m40.752 0V16.75c0-5.13-4.293-9.29-9.589-9.29H40.94c-5.296 0-9.589 4.16-9.589 9.29v13.352m-.901 22.411c-2.545 2.533-2.545 7.463-2.545 17.066H17.567c-5.296 0-9.589-4.159-9.589-9.289v-20.9c0-5.13 4.293-9.288 9.589-9.288H31.35"/>
    <circle cx="50.214" cy="80.98" r="5" fill="#ffe873"/>
    <circle cx="50.214" cy="18.968" r="5" fill="#ffe873"/>
</svg>
