<svg xmlns="http://www.w3.org/2000/svg" width="100" height="100">
    <g fill="none" stroke-linecap="round" stroke-linejoin="round" stroke-width="5" paint-order="fill markers stroke">
        <path stroke="#d1d1d1" d="M37.454 73.769a43.088 28.13 0 0 1-30.471-28.41 43.088 28.13 0 0 1 34.93-26.13 43.088 28.13 0 0 1 47.238 15.868 43.088 28.13 0 0 1-12.259 33.746"/>
        <path stroke="#2165b6" d="M38.103 35.26v46.027h13.172V62.665h5.905l10.144 18.32h15.292c-4.125-6.672-7.78-13.64-12.133-20.167 5.93-2.6 7.036-6.228 7.212-12.613.126-4.87-2.776-11.405-12.34-12.339Z"/>
        <path stroke="#2165b6" d="M50.518 44.799v8.63h11.355c2.407-.309 4.121-1.994 4.24-4.24-.106-1.765-2.291-4.155-4.164-4.314z"/>
    </g>
</svg>
