<svg xmlns="http://www.w3.org/2000/svg" width="100" height="100">
    <path fill="#fbb040" d="m49.331 22.658 2.591 1.299zM34.29 88.028l-2.48-1.495zm23.226-62.257 2.753-.916zm2.649 7.947-2.748.915zm12.954-1.71-2.747.916zM58.704 16.879l2.417 1.612-2.417-1.606Zm7.894 22.519.568-2.84zm-48.335 39.6c-7.728-48.302-3.864-24.151 0 0zM58.837 6.545c-34.777 0-17.389 0 0 0zm0 5.796c-34.777-3.864-17.389-1.932 0 0zM18.263 78.998c-7.728-48.302-3.864-24.151 0 0zm2.591 7.095 31.068-62.136-5.182-2.591-31.068 62.136Zm31.068-62.136a16.45 16.45 0 0 1 15.21-9.089l.174-5.796A22.246 22.246 0 0 0 46.74 21.36ZM35.241 92.08l1.536-2.562-4.968-2.985-1.542 2.568zm1.536-2.562a341.528 341.528 0 0 1 35.832-49.187l-4.359-3.814A347.336 347.336 0 0 0 31.81 86.54Zm17.991-62.831 2.65 7.946 5.5-1.831-2.65-7.947-5.506 1.832zm21.099 4.405-2.69-8.074-5.495 1.831 2.69 8.075 5.5-1.832zM67.2 9.442a13.1 13.1 0 0 0-10.897 5.832l4.823 3.217a7.303 7.303 0 0 1 6.074-3.252zm-1.165 32.796c6.472 1.296 11.929-4.884 9.842-11.146l-5.5 1.832c.678 2.04-1.102 4.057-3.206 3.634zm-8.619-7.605a11.442 11.442 0 0 0 8.613 7.605l1.136-5.68a5.646 5.646 0 0 1-4.248-3.756Zm2.852-9.778a7.303 7.303 0 0 1 .852-6.364l-4.828-3.217a13.1 13.1 0 0 0-1.525 11.413zm6.863-9.987a2.538 2.538 0 0 1-1.45-.522 2.753 2.753 0 0 1-1.078-2.376c.151-2.232 2.215-2.527 2.591-2.527v5.796c.766 0 3.032-.475 3.194-2.88a3.043 3.043 0 0 0-1.2-2.632 3.257 3.257 0 0 0-1.883-.65l-.174 5.797z"/>
    <path fill="#f33" d="M14.972 9.136v-2.92a2.919 2.919 0 0 0-2.919 2.92zm70.053 81.728v2.92c2.123-.001 3.535-2.196 2.656-4.128zM70.501 58.908l-1.308-2.61a2.919 2.919 0 0 0-1.348 3.819zM12.053 9.136v70.053h5.838V9.136Zm14.595 84.647h58.377v-5.838H26.648Zm61.033-4.127-14.524-31.95-5.312 2.417 14.524 31.956 5.312-2.417zM14.972 12.055h43.783V6.217H14.972Zm67.134 23.35a23.351 23.351 0 0 1-12.913 20.9l2.616 5.213a29.189 29.189 0 0 0 16.135-26.112Zm-23.35-23.35c12.896 0 23.35 10.454 23.35 23.35h5.838c0-16.12-13.068-29.188-29.189-29.188ZM12.052 79.189c0 8.06 6.534 14.594 14.595 14.594v-5.838a8.757 8.757 0 0 1-8.757-8.756z"/>
</svg>
