<svg xmlns="http://www.w3.org/2000/svg" width="100" height="100">
    <path fill="#f33" d="M14.972 9.136v-2.92a2.919 2.919 0 0 0-2.919 2.92zm70.053 81.728v2.92c2.123-.001 3.535-2.196 2.656-4.128zM70.501 58.908l-1.308-2.61a2.919 2.919 0 0 0-1.348 3.819zM49.18 22.446l2.61 1.307zM34.032 88.284l-2.498-1.506zm23.392-62.703 2.773-.923zm2.668 8.003-2.767.923zm13.048-1.722-2.768.922zM58.62 16.626l2.434 1.622-2.434-1.617Zm7.951 22.68.572-2.861zM12.053 9.135v70.053h5.838V9.136Zm14.595 84.647h58.377v-5.838H26.648Zm61.033-4.127-14.524-31.95-5.312 2.417 14.524 31.956 5.312-2.417zM14.972 12.055h43.783V6.217H14.972Zm67.134 23.35a23.351 23.351 0 0 1-12.913 20.9l2.616 5.213a29.189 29.189 0 0 0 16.135-26.112Zm-23.35-23.35c12.896 0 23.35 10.454 23.35 23.35h5.838c0-16.12-13.068-29.188-29.189-29.188ZM12.052 79.189c0 8.06 6.534 14.594 14.595 14.594v-5.838a8.757 8.757 0 0 1-8.757-8.756zm8.448 7.145 31.29-62.58-5.219-2.61-31.29 62.58zm31.29-62.58A16.568 16.568 0 0 1 67.109 14.6l.175-5.838a22.405 22.405 0 0 0-20.712 12.376ZM34.99 92.363l1.547-2.58-5.003-3.006-1.553 2.586Zm1.547-2.58a343.972 343.972 0 0 1 36.089-49.539l-4.39-3.841a349.822 349.822 0 0 0-36.702 50.38Zm18.12-63.281 2.668 8.004 5.54-1.845-2.668-8.004-5.546 1.845zm21.25 4.437-2.709-8.132-5.534 1.844 2.708 8.132 5.54-1.844zM67.179 9.136c-4.41 0-8.528 2.204-10.975 5.872l4.857 3.24a7.356 7.356 0 0 1 6.118-3.275zm-1.173 33.03c6.518 1.304 12.014-4.92 9.912-11.226l-5.54 1.844c.683 2.055-1.109 4.087-3.228 3.66zm-8.68-7.66A11.524 11.524 0 0 0 66 42.167l1.144-5.721a5.686 5.686 0 0 1-4.279-3.783zm2.871-9.848a7.356 7.356 0 0 1 .858-6.41l-4.862-3.24a13.193 13.193 0 0 0-1.536 11.495zM67.11 14.6a2.556 2.556 0 0 1-1.46-.526 2.773 2.773 0 0 1-1.085-2.393c.152-2.248 2.23-2.545 2.61-2.545v5.837c.77 0 3.053-.478 3.216-2.9a3.065 3.065 0 0 0-1.208-2.651 3.28 3.28 0 0 0-1.898-.654l-.175 5.838z"/>
</svg>
