<svg xmlns="http://www.w3.org/2000/svg" width="100" height="100">
    <g fill="none" stroke="#ffc905" stroke-linecap="round" stroke-linejoin="round" paint-order="fill markers stroke">
        <g stroke-width="5.574">
            <path stroke-width="4.9995993" d="M24.88 51.602a25.115 25.115 0 0 1 25.114-25.114A25.115 25.115 0 0 1 75.11 51.602M24.883 51.927v34.545M75.105 51.927v34.546"/>
        </g>
        <g stroke-width="3.358">
            <path d="M22 52.817A28 28 0 0 1 42.282 25.9" transform="matrix(1.49405 0 0 1.48388 -24.708 -25.442)"/>
            <path d="M-78.008 52.817A28 28 0 0 1-57.725 25.9" transform="matrix(-1.49405 0 0 1.48388 -24.708 -25.442)"/>
            <path d="M22.004 53.178v26.286M77.996 53.178v26.286M22.004 79.464h55.992M23.44 54.29h8.303m36.437 0h8.392" transform="matrix(1.49405 0 0 1.48388 -24.708 -25.442)"/>
        </g>
        <g stroke-width="14.74">
            <path stroke-width="4.9999554" d="M40.496 51.208a9.498 9.498 0 0 1 9.498-9.498 9.498 9.498 0 0 1 9.498 9.498M40.498 51.33v41.143M59.49 51.33v41.143"/>
        </g>
        <g stroke-width="5.574">
            <path stroke-width="4.9995993" d="M38.136 9.08a33.862 24.46 0 0 1 23.717 0M24.883 51.927v40.545M75.105 51.927v40.546"/>
        </g>
        <path stroke-width="5" d="M44.663 26.218 37.758 9.312M55.34 26.218l6.905-16.906"/>
    </g>
</svg>
