<svg xmlns="http://www.w3.org/2000/svg" width="100" height="100">
    <path fill="none" stroke="#ffc905" stroke-linecap="round" stroke-linejoin="round" stroke-width="5" d="M50 8.026c-2.545 0-5.087.175-7.61.525-1.41.194-2.227 1.739-1.616 3.054l.573 1.232 4.46 9.555a2.103 2.103 0 0 0 2.027 1.215 38.074 38.074 0 0 1 4.332 0 2.1 2.1 0 0 0 2.027-1.211l4.46-9.555.573-1.236c.611-1.315-.206-2.86-1.617-3.054A55.172 55.172 0 0 0 50 8.026Zm18.301 8.54c-1.017-.385-2.154.09-2.62 1.092l-3.162 6.788c-.534 1.151.025 2.522 1.2 2.945 10.642 3.87 16.215 13.864 16.215 25.586v2.14h12v-2.14c0-16.598-8.634-30.784-23.633-36.41zm-36.609.007C16.7 22.193 8.067 36.373 8.067 52.977v2.14h11.999v-2.14c0-11.722 5.58-21.717 16.216-25.586 1.172-.426 1.727-1.796 1.193-2.945l-3.167-6.777c-.465-1.002-1.6-1.475-2.616-1.092zM50 33.608c-13.252 0-20.059 8.493-20.059 21.42v36.946h12V55.027c0-6.467 1.433-9.722 8.059-9.722 6.626 0 8.06 3.259 8.06 9.722v36.947h11.999V55.027c0-12.923-6.807-21.416-20.059-21.416zM8.067 65.18v26.793h11.999V65.181Zm71.867 0v26.793h12V65.181Z"/>
</svg>
