<svg xmlns="http://www.w3.org/2000/svg" width="100" height="100">
  <g fill="none" stroke="#f64c00" stroke-linecap="round" stroke-linejoin="round" stroke-width="5">
    <path
      d="M97.228677 59.625286c-45.329412 28.899786-94.457378 0-94.457378 0l6.193666-7.450156-4.5977984-10.219405L15.43594 36.929788V26.040259l11.068774-.335063 4.938377-10.219403 10.21733 3.853217 8.684729-7.706436 8.85502 8.041499 9.493603-4.565227 5.534387 10.680117 11.19649-.04188.04257 11.308357 10.685625 4.565225-4.597799 10.051874z" />
    <path
      d="M32.823339 42.935727a5.8759999 7.4310002 0 0 1 6.671455 2.45915 5.8759999 7.4310002 0 0 1 .151593 8.785953 5.8759999 7.4310002 0 0 1-6.580285 2.824824 5.8759999 7.4310002 0 0 1-4.109052-7.087071M64.497698 42.874753a5.8759999 7.4310002 0 0 1 6.671454 2.459149 5.8759999 7.4310002 0 0 1 .151593 8.785953 5.8759999 7.4310002 0 0 1-6.580284 2.824825 5.8759999 7.4310002 0 0 1-4.109053-7.087071"
      paint-order="stroke fill markers" />
    <g paint-order="stroke fill markers">
      <path
        d="M78.2601177 68.7597752a11 10.5 0 0 1 5.127233 11.632698 11 10.5 0 0 1-10.283691 7.931825M72.5868477 88.2929642v-10.05842" />
    </g>
    <g paint-order="stroke fill markers">
      <path
        d="M21.648633 68.8028168a10.5 11 90 0 0-5.127233 11.632698 10.5 11 90 0 0 10.283691 7.931825M27.321903 88.3360058v-10.05842" />
    </g>
  </g>
</svg>
