<svg xmlns="http://www.w3.org/2000/svg" width="100" height="100">
    <g fill="none" stroke="#f64c00" stroke-linecap="round" stroke-linejoin="round" stroke-width="5">
        <path d="M97.229 59.625c-45.33 28.9-94.458 0-94.458 0l6.194-7.45-4.598-10.22 11.069-5.025V26.04l11.069-.335 4.938-10.22L41.66 19.34l8.685-7.706 8.855 8.041 9.494-4.565 5.534 10.68 11.197-.042.042 11.308 10.686 4.566-4.598 10.052z"/>
        <path d="M32.823 42.936a5.876 7.431 0 0 1 6.672 2.459 5.876 7.431 0 0 1 .151 8.786 5.876 7.431 0 0 1-6.58 2.825 5.876 7.431 0 0 1-4.109-7.087M64.498 42.875a5.876 7.431 0 0 1 6.671 2.459 5.876 7.431 0 0 1 .152 8.786 5.876 7.431 0 0 1-6.58 2.825 5.876 7.431 0 0 1-4.11-7.087" paint-order="stroke fill markers"/>
        <g paint-order="stroke fill markers">
            <path d="M78.26 68.76a11 10.5 0 0 1 5.127 11.632 11 10.5 0 0 1-10.283 7.932M72.587 88.293V78.235"/>
        </g>
        <g paint-order="stroke fill markers">
            <path d="M21.649 68.803a10.5 11 90 0 0-5.128 11.633 10.5 11 90 0 0 10.284 7.931M27.322 88.336V78.278"/>
        </g>
    </g>
</svg>
