<svg xmlns="http://www.w3.org/2000/svg" width="100" height="100">
    <g fill="none" stroke="#cf649a" stroke-linecap="round" stroke-linejoin="round" stroke-width="5" paint-order="fill markers stroke">
        <path d="M45.162 43.532c7.202 4.274 13.07 2.984 18.881-.808S74.59 31.6 69.11 26.124c-2.74-2.739-12.716-3.195-21.955.752-9.24 3.947-17.946 12.095-18.55 16.471-1.21 8.751 12.33 11.539 14.236 16.945 1.905 5.407 1.089 7.907-.808 11.309-1.897 3.401-7.649 6.509-10.904 2.726-3.256-3.783 6.51-11.017 11.61-13.025 5.101-2.008 12.172-1.573 14.44 1.01 2.266 2.582-.25 7.168-.102 7.168"/>
        <circle cx="50" cy="50" r="42.031"/>
    </g>
</svg>
