<svg xmlns="http://www.w3.org/2000/svg" width="100" height="100">
    <g fill="none" stroke="#ff3e00" stroke-linecap="round" stroke-linejoin="round" stroke-width="5" paint-order="fill markers stroke">
        <path d="M80.94 41.853s8.847-12.584.502-24.643C73.097 5.15 59.146 9.33 59.146 9.33S38.218 20.409 26.624 28.275c-8.967 6.436-14.262 14.404-6.538 27.828 7.724 13.425 29.17 7.712 29.17 7.712"/>
        <path d="M19.06 58.147s-8.847 12.584-.502 24.643c8.345 12.06 22.296 7.88 22.296 7.88s20.928-11.078 32.522-18.944c8.967-6.436 14.262-14.404 6.538-27.828-7.724-13.425-29.17-7.712-29.17-7.712M39.205 43.357l26.316-16.24M34.227 73.23l26.316-16.24"/>
    </g>
</svg>
