<svg xmlns="http://www.w3.org/2000/svg" width="100" height="100">
    <g fill="none" stroke="#ff3e00" stroke-linecap="round" stroke-linejoin="round" stroke-width="5" paint-order="fill markers stroke">
        <path d="M50 8.738c-5.504 0-7.458 8.408-12.894 10.315-5.437 1.907-13.798-4.255-18.053 0-4.255 4.255 1.907 12.616 0 18.053C17.146 42.542 8.738 44.496 8.738 50c0 5.504 8.408 7.458 10.315 12.894 1.907 5.437-4.253 13.796 0 18.053 4.254 4.256 12.618-1.892 18.053.014C42.54 82.868 44.497 91.264 50 91.262c5.503-.002 7.458-8.408 12.894-10.315 5.437-1.907 13.796 4.253 18.053 0 4.256-4.254-1.892-12.618.014-18.053C82.868 57.46 91.264 55.503 91.262 50c-.002-5.503-8.408-7.458-10.315-12.894-1.907-5.437 4.255-13.798 0-18.053-4.255-4.255-12.616 1.907-18.053 0C57.458 17.146 55.504 8.738 50 8.738Z"/>
        <circle cx="50" cy="50" r="15.473"/>
    </g>
</svg>
