<svg xmlns="http://www.w3.org/2000/svg" width="100" height="100">
    <path fill="none" stroke="#fa652f" stroke-linecap="round" stroke-linejoin="round" stroke-width="5" d="M85.956 63.137c1.896-6.11 6.17-28.7-25.214-48.855a2.704 2.704 0 0 0-3.435.426 2.521 2.521 0 0 0-.094 3.358c.128.154 11.693 14.244 7.581 30.338-7.113-4.894-35.393-27.31-35.393-27.31l16.345 26.778-30.35-19.558S36.85 54.654 49.98 64.56c-6.357 2.283-20.167 4.698-38.408-6.637a2.708 2.708 0 0 0-3.278.314 2.521 2.521 0 0 0-.45 3.16c.607 1.016 15.23 24.741 46.145 24.741 8.483 0 13.436-2.415 17.424-4.354 2.45-1.186 4.384-2.13 6.497-2.13 5.256 0 8.704 5.217 8.734 5.264a2.687 2.687 0 0 0 2.478 1.212 2.636 2.636 0 0 0 2.237-1.573c3.797-8.819-2.743-18.152-5.404-21.426Z"/>
</svg>
