<svg xmlns="http://www.w3.org/2000/svg" width="100" height="100">
    <path fill="none" stroke="#38bdf8" stroke-linejoin="round" stroke-width="5" d="M50 22.737c-11.311 0-18.375 6.059-21.204 18.175 4.24-6.058 9.19-8.33 14.843-6.815 3.229.866 5.531 3.374 8.082 6.149C55.883 44.766 60.693 50 71.204 50c11.311 0 18.375-6.058 21.205-18.175-4.241 6.058-9.19 8.33-14.843 6.816-3.23-.867-5.532-3.375-8.082-6.15-4.162-4.52-8.973-9.754-19.484-9.754ZM28.796 50C17.485 50 10.42 56.058 7.59 68.175c4.241-6.058 9.19-8.33 14.843-6.816 3.23.867 5.532 3.375 8.082 6.15 4.162 4.52 8.973 9.754 19.484 9.754 11.311 0 18.375-6.059 21.204-18.175-4.24 6.058-9.19 8.33-14.843 6.815-3.229-.866-5.531-3.374-8.082-6.149C44.117 55.234 39.307 50 28.796 50Z" clip-rule="evenodd"/>
</svg>
