<svg xmlns="http://www.w3.org/2000/svg" width="100" height="100">
    <path fill="none" stroke="#56585a" stroke-width="5" d="M54.931 73.433c0-10.267 8.323-18.59 18.59-18.59 10.268 0 18.59 8.323 18.59 18.59 0 10.268-8.322 18.59-18.59 18.59-10.267 0-18.59-8.322-18.59-18.59z"/>
    <path fill="none" stroke="#323539" stroke-width="5" d="M54.935 26.578C54.937 16.31 63.262 7.988 73.53 7.99c10.267.002 18.59 8.326 18.587 18.594v16.731a1.859 1.859 0 0 1-1.859 1.86H56.794a1.859 1.859 0 0 1-1.859-1.86z"/>
    <path fill="none" stroke="#888" stroke-width="5" d="M45.065 73.406c.003 10.27-8.32 18.597-18.59 18.597S7.88 83.676 7.885 73.406V56.672c0-1.027.832-1.86 1.858-1.86h33.463c1.027 0 1.86.833 1.86 1.86z"/>
</svg>
