<svg xmlns="http://www.w3.org/2000/svg" width="100" height="100">
    <path fill="none" stroke="#888" stroke-width="5" d="M54.933 73.418c0-10.267 8.323-18.59 18.59-18.59s18.59 8.323 18.59 18.59-8.323 18.59-18.59 18.59-18.59-8.323-18.59-18.59zm0-46.846c.001-10.267 8.326-18.589 18.593-18.587 10.268.002 18.59 8.327 18.587 18.594v16.732a1.859 1.859 0 0 1-1.859 1.859H56.792a1.859 1.859 0 0 1-1.86-1.86zm-9.866 46.846c.004 10.27-8.32 18.597-18.59 18.597S7.883 83.688 7.887 73.418V56.683c0-1.026.832-1.859 1.859-1.859h33.462c1.027 0 1.86.833 1.86 1.86z"/>
</svg>
