<svg xmlns="http://www.w3.org/2000/svg" width="100" height="100">
    <g fill="none" stroke="#ffca22" stroke-width="1.68">
        <path stroke="#646cff" stroke-width="4.9985376" d="m67.514 21.474 21.592-3.898c1.767-.322 3.112 1.556 2.238 3.125v.003l-39.102 69.92c-.807 1.445-2.883 1.453-3.701.014L8.665 20.71c-.894-1.566.445-3.464 2.22-3.145l27.016 4.816"/>
        <path stroke-width="4.9985376" d="M68.672 8.389 39.74 14.057a1.062 1.062 0 0 0-.857.982L37.103 45.1a1.062 1.062 0 0 0 1.3 1.098l8.055-1.86a1.062 1.062 0 0 1 1.28 1.25l-2.393 11.72a1.062 1.062 0 0 0 1.35 1.229l4.976-1.512a1.062 1.062 0 0 1 1.35 1.232l-3.805 18.408c-.238 1.152 1.294 1.78 1.934.795l.425-.66 23.58-47.055a1.062 1.062 0 0 0-1.152-1.518l-8.292 1.598a1.062 1.062 0 0 1-1.22-1.339l5.41-18.762a1.062 1.062 0 0 0-1.226-1.34z"/>
    </g>
</svg>
