<svg xmlns="http://www.w3.org/2000/svg" width="100" height="100">
    <g fill="none" stroke="#729b1b" stroke-width="5">
        <path d="M73.7 35.077 50.892 68.02a2.02 2.02 0 0 1-.975.731 1.915 1.915 0 0 1-1.254 0 1.95 1.95 0 0 1-1.01-.731 2.054 2.054 0 0 1-.313-1.219l.905-18.107-14.73-3.134a1.915 1.915 0 0 1-.835-.418 1.741 1.741 0 0 1-.557-.766 1.741 1.741 0 0 1 0-.94 1.602 1.602 0 0 1 .348-.871L55.244 9.622a2.02 2.02 0 0 1 1.01-.766 1.846 1.846 0 0 1 1.219 0 2.02 2.02 0 0 1 1.01.766 1.81 1.81 0 0 1 .313 1.184l-.905 18.177 14.73 3.134a2.02 2.02 0 0 1 .87.418 2.403 2.403 0 0 1 .557.766 2.159 2.159 0 0 1-.209 1.846z"/>
        <path stroke-linecap="round" stroke-linejoin="round" d="m92.786 48.148-43.1 43.1L7.215 48.773" paint-order="fill markers stroke"/>
    </g>
</svg>
