<svg xmlns="http://www.w3.org/2000/svg" width="100" height="100">
    <path fill="none" stroke="#0098ff" stroke-width="5" d="M8.834 37.325s-2.042-1.492.409-3.478l5.715-5.166s1.632-1.738 3.362-.224l52.716 40.345v19.344s-.024 3.041-3.88 2.706L8.83 37.322Zm58.319 53.551c1.447 1.496 3.201 1.007 3.201 1.007l19.421-9.672c2.486-1.713 2.136-3.838 2.136-3.838V20.61c0-2.538-2.569-3.415-2.569-3.415L72.508 8.99c-3.678-2.297-6.086.416-6.086.416s3.097-2.255 4.614 2.013v76.377a3.51 3.51 0 0 1-.332 1.503c-.444.905-1.405 1.747-3.712 1.398zM22.424 49.794 8.834 62.28s-1.399 1.048 0 2.925l6.309 5.803s1.5 1.625 3.712-.227L33.26 59.74Zm23.853.101L71.2 30.663l-.164-19.243s-1.066-4.202-4.614-2.013L33.26 39.912Z"/>
</svg>
