<svg xmlns="http://www.w3.org/2000/svg" width="100" height="100">
    <path fill="none" stroke="#368fb9" stroke-linecap="round" stroke-linejoin="round" stroke-width="5" d="M43.938 16.153s3.592-10.915 6.909-8.788c1.022.664 4.697 8.844 4.697 8.844s3.925-2.294 4.367-1.438c5.117 15.598.404 26.596-6.356 35.373 8.99 8.396 10.555 16.998 8.815 27.883 8.458.018 12.812-8.225 23.6-8.732 4.836-.083 5.085 5.582 1.437 6.466-7.5 1.059-14.895 9.425-30.011 13.68-1.95 2.967-13.6 2.635-22.77 3.453-9.705.104-7.198-7.454-3.704-8.732-2.278-1.242-2.371-2.48-2.819-2.349-2.426 12.925-9.046 8.987-13.098 7.876-3.123-1.658.22-5.555.22-5.555-3.04 1.303-5.439-4.441-5.084-10.086.332-4.505 5.361-8.871 5.361-8.871-.3-11.246 2.985-18.562 11.717-24.705-3.05-3.593-6.57-9.375-1.929-16.11 6.043-1.686 7.216-8.85 18.648-8.209Z"/>
</svg>
